<?xml version="1.0" encoding="UTF-8" standalone="no"?>
<!DOCTYPE svg  PUBLIC '-//W3C//DTD SVG 1.1//EN'  'http://www.w3.org/Graphics/SVG/1.1/DTD/svg11.dtd'>
<svg xmlns="http://www.w3.org/2000/svg" xmlns:xlink="http://www.w3.org/1999/xlink" version="1.1">
<defs>
<font id="Geometria-Bold" horiz-adv-x="650">
<font-face underline-position="-150" font-weight="700" descent="-200" panose-1="2 11 7 3 2 2 4 2 2 4" units-per-em="1000" unicode-range="U+0020-FB04" bbox="-475 -270 1425 943" x-height="499" underline-thickness="50" font-family="Geometria" ascent="800" cap-height="700"/>
<missing-glyph d="M191 605v-510h283v510h-283zM583 0h-501v700h501v-700z" horiz-adv-x="741"/>
<glyph glyph-name="ij" horiz-adv-x="574" unicode="ij" d="M62 631q0 36 24.5 60.5t59.5 24.5t59.5 -24.5t24.5 -60.5q0 -35 -24.5 -59.5t-59.5 -24.5t-59.5 24.5t-24.5 59.5zM217 0h-141v499h141v-499zM342 631q0 36 24.5 60.5t59.5 24.5t60 -24.5t25 -60.5q0 -35 -25 -59.5t-60 -24.5t-59.5 24.5t-24.5 59.5zM317 -206 q-74 0 -111 22v120q35 -19 75 -19q76 0 76 79v503h141v-517q0 -89 -48.5 -138.5t-132.5 -49.5z"/>
<glyph glyph-name="f_f" horiz-adv-x="785" unicode="ff" d="M248 381v-381h-141v381h-89v118h89v47q0 76 44 121t125 45q73 0 127 -21v-114q-45 17 -86 17q-69 0 -69 -67v-28h219v47q0 76 44 121t125 45q73 0 127 -21v-114q-45 17 -86 17q-69 0 -69 -67v-28h155v-118h-155v-381h-141v381h-219z"/>
<glyph glyph-name="fi" horiz-adv-x="684" unicode="fi" d="M453 631q0 36 24.5 60.5t59.5 24.5t59.5 -24.5t24.5 -60.5q0 -35 -24.5 -59.5t-59.5 -24.5t-59.5 24.5t-24.5 59.5zM608 0h-141v381h-219v-381h-141v381h-89v118h89v47q0 76 44 121t125 45q73 0 127 -21v-114q-45 17 -86 17q-69 0 -69 -67v-28h360v-499z"/>
<glyph glyph-name="fl" horiz-adv-x="716" unicode="fl" d="M600 -13q-62 0 -97.5 33.5t-35.5 104.5v256h-219v-381h-141v381h-89v118h89v47q0 76 44 121t125 45q73 0 127 -21v-114q-45 17 -86 17q-69 0 -69 -67v-28h219v201h141v-538q0 -50 45 -50q21 0 36 9v-116q-36 -18 -89 -18z"/>
<glyph glyph-name="f_f_i" horiz-adv-x="1039" unicode="ffi" d="M813 631q0 36 24.5 60.5t59.5 24.5t59.5 -24.5t24.5 -60.5q0 -35 -24.5 -59.5t-59.5 -24.5t-59.5 24.5t-24.5 59.5zM608 381v-381h-141v381h-219v-381h-141v381h-89v118h89v47q0 76 44 121t125 45q73 0 127 -21v-114q-45 17 -86 17q-69 0 -69 -67v-28h219v47q0 76 44 121 t125 45q73 0 127 -21v-114q-45 17 -86 17q-69 0 -69 -67v-28h360v-499h-141v381h-219z"/>
<glyph glyph-name="f_f_l" horiz-adv-x="1076" unicode="ffl" d="M608 381v-381h-141v381h-219v-381h-141v381h-89v118h89v47q0 76 44 121t125 45q73 0 127 -21v-114q-45 17 -86 17q-69 0 -69 -67v-28h219v47q0 76 44 121t125 45q73 0 127 -21v-114q-45 17 -86 17q-69 0 -69 -67v-28h219v201h141v-538q0 -50 45 -50q21 0 36 9v-116 q-36 -18 -89 -18q-62 0 -97.5 33.5t-35.5 104.5v256h-219z"/>
<glyph glyph-name=".notdef" d="M191 605v-510h283v510h-283zM583 0h-501v700h501v-700z" horiz-adv-x="741"/>
<glyph glyph-name=".null" horiz-adv-x="0"/>
<glyph glyph-name="nonmarkingreturn" horiz-adv-x="333"/>
<glyph glyph-name="space" horiz-adv-x="256" unicode=" "/>
<glyph glyph-name="exclam" horiz-adv-x="333" unicode="!" d="M221 233h-109l-31 467h172zM80 76q0 37 25.5 62t61.5 25t61 -25t25 -62q0 -36 -25 -61.5t-61 -25.5t-61.5 25.5t-25.5 61.5z"/>
<glyph glyph-name="quotedbl" horiz-adv-x="391" unicode='&quot;' d="M358 403h-122v297h122v-297zM156 403h-121v297h121v-297z"/>
<glyph glyph-name="numbersign" horiz-adv-x="774" unicode="#" d="M324 424l-24 -148h150l24 148h-150zM257 0h-110l26 167h-138l17 109h138l24 148h-138l16 109h139l27 167h110l-27 -167h150l27 167h109l-26 -167h139l-18 -109h-138l-24 -148h139l-17 -109h-139l-27 -167h-109l27 167h-151z"/>
<glyph glyph-name="dollar" horiz-adv-x="629" unicode="$" d="M376 -109h-130v99q-121 13 -203 71v150q44 -38 116 -66q73 -27 144 -27q59 0 97 21.5t38 59.5q0 41 -36 58q-15 9 -40 18l-24 8l-56 17l-52 17q-11 3 -47 17q-31 12 -45 21q-52 36 -66 61q-24 48 -24 98q0 80 52 130.5t146 64.5v100h130v-99q82 -10 165 -54v-140 q-107 66 -227 66q-119 0 -119 -69q0 -30 37 -48q22 -12 57 -21q47 -13 76 -22q87 -27 152 -73q70 -49 70 -146q0 -83 -58 -139.5t-153 -71.5v-101z"/>
<glyph glyph-name="percent" horiz-adv-x="818" unicode="%" d="M143 477q23 -23 58 -23q34 0 57 23t23 58t-23 58t-57 23q-35 0 -58 -23q-22 -25 -22 -58t22 -58zM74 657q49 49 127 49t127 -49q50 -50 50 -122t-50 -122q-49 -49 -127 -49t-127 49q-50 50 -50 122t50 122zM558 107q23 -23 58 -23q34 0 57 23t23 58t-23 58t-57 23 q-35 0 -58 -23q-22 -25 -22 -58t22 -58zM489 287q49 49 127 49t127 -49q50 -50 50 -122t-50 -122q-49 -49 -127 -49t-127 49q-50 50 -50 122t50 122zM251 0h-101l418 700h101z"/>
<glyph glyph-name="ampersand" horiz-adv-x="751" unicode="&amp;" d="M304 109q60 0 108 39l-175 173q-25 -12 -43.5 -41t-18.5 -63q0 -50 36 -79t93 -29zM513 663v-135q-83 63 -164 63q-39 0 -65 -22t-26 -54q0 -18 9 -36q12 -23 55 -66l175 -174q35 53 38 143h135q-5 -133 -77 -236l148 -146h-178l-58 55q-93 -69 -210 -69q-111 0 -185 59 q-73 60 -73 166q0 73 36 125q38 53 83 75q-37 49 -37 112q0 82 58 136q58 55 151 55q104 0 185 -51z"/>
<glyph glyph-name="quotesingle" horiz-adv-x="189" unicode="&apos;" d="M156 403h-121v297h121v-297z"/>
<glyph glyph-name="parenleft" horiz-adv-x="388" unicode="(" d="M359 -206h-144q-144 182 -144 456q0 272 144 456h144q-159 -204 -159 -456t159 -456z"/>
<glyph glyph-name="parenright" horiz-adv-x="388" unicode=")" d="M173 -206h-144q159 204 159 456t-159 456h144q144 -184 144 -456q0 -274 -144 -456z"/>
<glyph glyph-name="asterisk" horiz-adv-x="421" unicode="*" d="M252 329h-85l3 117l-100 -61l-43 74l103 56l-103 56l43 74l100 -62l-3 117h85l-3 -117l99 62l43 -74l-104 -56l104 -56l-43 -74l-99 61z"/>
<glyph glyph-name="plus" horiz-adv-x="641" unicode="+" d="M384 77h-128v191h-190v126h190v192h128v-192h191v-126h-191v-191z"/>
<glyph glyph-name="comma" horiz-adv-x="280" unicode="," d="M122 -152h-116l86 303h151z"/>
<glyph glyph-name="hyphen" horiz-adv-x="501" unicode="-" d="M405 214h-309v127h309v-127z"/>
<glyph glyph-name="period" horiz-adv-x="263" unicode="." d="M132 -11q-37 0 -62 25.5t-25 62.5q0 36 25 61t62 25q36 0 61.5 -25t25.5 -61q0 -37 -25.5 -62.5t-61.5 -25.5z"/>
<glyph glyph-name="slash" horiz-adv-x="533" unicode="/" d="M121 -140h-141l421 932h141z"/>
<glyph glyph-name="zero" horiz-adv-x="705" unicode="0" d="M238 187q44 -66 115 -66q72 0 114 66q43 67 43 163q0 97 -43 162q-42 67 -114 67t-115 -67q-43 -65 -43 -162q0 -96 43 -163zM353 -14q-93 0 -163 52q-68 51 -103.5 132t-35.5 180q0 98 34 178q36 84 106.5 135t161.5 51q138 0 219 -107q82 -106 82 -257t-82 -257 q-81 -107 -219 -107z"/>
<glyph glyph-name="one" horiz-adv-x="390" unicode="1" d="M309 0h-141v546l-148 -75v141l164 88h125v-700z"/>
<glyph glyph-name="two" horiz-adv-x="578" unicode="2" d="M533 0h-498v105l206 187q71 65 97 104q28 40 28 85t-33 71.5t-87 26.5q-98 0 -189 -80v148q85 67 204 67q100 0 174 -59t74 -155q0 -74 -33 -131q-30 -54 -115 -133l-120 -110h292v-126z"/>
<glyph glyph-name="three" horiz-adv-x="577" unicode="3" d="M252 -14q-124 0 -213 56v137q92 -64 205 -64q64 0 105 31.5t41 85.5q0 51 -38 82.5t-101 31.5q-51 0 -99 -19v95l167 154h-258v124h442v-108l-158 -145q75 -13 132 -69q57 -55 57 -146q0 -112 -81 -179q-80 -67 -201 -67z"/>
<glyph glyph-name="four" horiz-adv-x="641" unicode="4" d="M374 519l-192 -228h192v228zM514 0h-140v175h-351v104l349 421h142v-409h103v-116h-103v-175z"/>
<glyph glyph-name="five" horiz-adv-x="587" unicode="5" d="M246 -14q-110 0 -199 50v135q89 -56 193 -56q68 0 111.5 31t43.5 86q0 52 -42.5 84t-113.5 32q-83 0 -168 -30l46 382h374v-124h-268l-15 -119q31 7 67 7q116 0 189 -64q75 -64 75 -168q0 -115 -85 -181q-85 -65 -208 -65z"/>
<glyph glyph-name="six" horiz-adv-x="638" unicode="6" d="M325 110q53 0 86.5 33.5t33.5 86.5q0 51 -34 84t-86 33q-41 0 -77 -25t-51 -63q3 -71 37 -110t91 -39zM334 -14q-132 0 -205.5 87t-73.5 241q0 79 20 150t58.5 127.5t101 89.5t141.5 33q90 0 158 -45v-130q-66 45 -142 45q-86 0 -136 -54q-49 -53 -55 -136q56 65 163 65 q95 0 160 -62q64 -61 64 -164q0 -109 -73 -178q-72 -69 -181 -69z"/>
<glyph glyph-name="seven" horiz-adv-x="567" unicode="7" d="M233 0h-153l286 571h-331v129h494v-111z"/>
<glyph glyph-name="eight" horiz-adv-x="637" unicode="8" d="M449 208q0 44 -37 73t-93 29t-93.5 -29t-37.5 -73q0 -43 37.5 -72t93.5 -29t93 29t37 72zM210 506q0 -38 31.5 -62.5t77.5 -24.5t77 24.5t31 62.5q0 39 -31 63.5t-77 24.5t-77.5 -24.5t-31.5 -63.5zM468 373q59 -21 94.5 -68t35.5 -106q0 -99 -81 -156q-79 -57 -198 -57 q-118 0 -199 57t-81 156q0 59 35.5 106t94.5 68q-46 21 -72 60t-26 87q0 86 70 140q71 54 178 54q105 0 176 -54t71 -140q0 -48 -26 -87t-72 -60z"/>
<glyph glyph-name="nine" horiz-adv-x="638" unicode="9" d="M313 590q-53 0 -86.5 -33.5t-33.5 -86.5q0 -51 34 -84t86 -33q41 0 77 25t51 64q-3 71 -37 109.5t-91 38.5zM304 714q132 0 205.5 -87t73.5 -241q0 -79 -20 -150t-58.5 -127.5t-101 -89.5t-141.5 -33q-90 0 -158 45v130q66 -45 142 -45q86 0 135 54q50 55 56 136 q-56 -65 -163 -65q-96 0 -160 61t-64 165q0 109 72 178q73 69 182 69z"/>
<glyph glyph-name="colon" horiz-adv-x="263" unicode=":" d="M132 -11q-37 0 -62 25.5t-25 62.5q0 36 25 61t62 25q36 0 61.5 -25t25.5 -61q0 -37 -25.5 -62.5t-61.5 -25.5zM132 319q-37 0 -62 25.5t-25 62.5q0 36 25 61t62 25q36 0 61.5 -25t25.5 -61q0 -37 -25.5 -62.5t-61.5 -25.5z"/>
<glyph glyph-name="semicolon" horiz-adv-x="285" unicode=";" d="M161 319q-37 0 -62 25.5t-25 62.5q0 36 25 61t62 25q36 0 61.5 -25t25.5 -61q0 -37 -25.5 -62.5t-61.5 -25.5zM122 -152h-116l86 303h151z"/>
<glyph glyph-name="less" horiz-adv-x="641" unicode="&lt;" d="M575 194v-137l-509 206v133l509 207v-137l-363 -136z"/>
<glyph glyph-name="equal" horiz-adv-x="641" unicode="=" d="M575 154h-509v128h509v-128zM575 381h-509v127h509v-127z"/>
<glyph glyph-name="greater" horiz-adv-x="641" unicode="&gt;" d="M575 263l-509 -206v137l363 136l-363 136v137l509 -207v-133z"/>
<glyph glyph-name="question" horiz-adv-x="491" unicode="?" d="M219 -11q-37 0 -62 25.5t-25 62.5q0 36 25 61t62 25q36 0 61.5 -25t25.5 -61q0 -37 -25.5 -62.5t-61.5 -25.5zM283 233h-134v148q67 14 118 47q52 34 52 77q0 39 -31.5 59.5t-83.5 20.5q-85 0 -179 -56v126q86 59 202 59q98 0 167 -54q70 -52 70 -146q0 -74 -54 -126 q-54 -53 -127 -75v-80z"/>
<glyph glyph-name="at" horiz-adv-x="940" unicode="@" d="M462 159q66 0 101 56v118q-35 56 -101 56q-47 0 -77.5 -33t-30.5 -82t30.5 -82t77.5 -33zM471 -162q-184 0 -309 124q-126 125 -126 314q0 185 127 311q127 127 308 127q185 0 309 -120q125 -120 125 -292q0 -114 -51 -181q-49 -67 -132 -67q-100 0 -143 72 q-23 -33 -62.5 -54.5t-90.5 -21.5q-87 0 -144 64q-56 65 -56 160q0 94 56 159t142 65t139 -65v53h121v-284q0 -100 69 -100q45 0 80 54q34 53 34 146q0 154 -110 266q-109 111 -286 111q-173 0 -285 -118q-112 -116 -112 -285q0 -171 112 -286q112 -117 285 -117 q109 0 217 60v-39q-98 -56 -217 -56z"/>
<glyph glyph-name="A" horiz-adv-x="770" unicode="A" d="M384 524l-103 -243h205zM167 0h-151l300 704h138l300 -704h-153l-69 162h-296z"/>
<glyph glyph-name="B" horiz-adv-x="716" unicode="B" d="M221 580v-154h162q45 0 70.5 20t25.5 56q0 37 -25.5 57.5t-70.5 20.5h-162zM221 307v-183h181q54 0 84 23.5t30 67.5t-30 68t-84 24h-181zM429 0h-352v700h329q97 0 154.5 -46t57.5 -129q0 -51 -25 -87t-63 -52q57 -12 100 -62q42 -49 42 -125q0 -89 -66 -144 q-65 -55 -177 -55z"/>
<glyph glyph-name="C" horiz-adv-x="677" unicode="C" d="M432 -14q-163 0 -271 102q-108 104 -108 262q0 160 107 262q108 102 272 102q102 0 185 -44v-145q-81 54 -184 54q-99 0 -167 -65q-66 -64 -66 -164t68 -165q67 -64 171 -64q115 0 192 61v-145q-85 -51 -199 -51z"/>
<glyph glyph-name="D" horiz-adv-x="776" unicode="D" d="M221 571v-442h106q117 0 182.5 58.5t65.5 162.5t-65.5 162.5t-182.5 58.5h-106zM339 0h-262v700h262q170 0 277 -98t107 -252q0 -155 -107 -253q-106 -97 -277 -97z"/>
<glyph glyph-name="E" horiz-adv-x="640" unicode="E" d="M602 0h-525v700h514v-129h-370v-135h298v-127h-298v-180h381v-129z"/>
<glyph glyph-name="F" horiz-adv-x="628" unicode="F" d="M221 0h-144v700h513v-129h-369v-142h285v-127h-285v-302z"/>
<glyph glyph-name="G" horiz-adv-x="767" unicode="G" d="M426 -14q-160 0 -266 102q-107 104 -107 262q0 160 107 262q106 102 271 102q121 0 210 -53v-142q-97 60 -200 60q-107 0 -174 -64q-67 -63 -67 -168q0 -104 65 -166t161 -62q92 0 141 46v241h144v-309q-45 -48 -120 -79q-78 -32 -165 -32z"/>
<glyph glyph-name="H" horiz-adv-x="758" unicode="H" d="M221 0h-144v700h144v-262h316v262h143v-700h-143v307h-316v-307z"/>
<glyph glyph-name="I" horiz-adv-x="307" unicode="I" d="M225 0h-143v700h143v-700z"/>
<glyph glyph-name="J" horiz-adv-x="510" unicode="J" d="M196 -14q-109 0 -168 41v142q60 -48 138 -48q68 0 100.5 31.5t32.5 101.5v446h143v-470q0 -67 -19.5 -116t-54.5 -76t-77.5 -39.5t-94.5 -12.5z"/>
<glyph glyph-name="K" horiz-adv-x="706" unicode="K" d="M221 0h-144v700h144v-276l258 276h176l-297 -321l348 -379h-184l-301 323v-323z"/>
<glyph glyph-name="L" horiz-adv-x="603" unicode="L" d="M576 0h-499v700h144v-571h355v-129z"/>
<glyph glyph-name="M" horiz-adv-x="846" unicode="M" d="M221 0h-144v700h143l203 -290l203 290h142v-700h-142v479l-161 -225h-80l-164 225v-479z"/>
<glyph glyph-name="N" horiz-adv-x="771" unicode="N" d="M218 0h-141v700h123l353 -448v448h140v-700h-119l-356 450v-450z"/>
<glyph glyph-name="O" horiz-adv-x="832" unicode="O" d="M53 350q0 154 103 258q103 106 260 106q156 0 259 -106q104 -106 104 -258q0 -151 -104 -258q-103 -106 -259 -106q-157 0 -260 106t-103 258zM261 186q62 -65 155 -65q92 0 154 65t62 164t-62 164t-154 65q-93 0 -155 -65q-61 -64 -61 -164t61 -164z"/>
<glyph glyph-name="P" horiz-adv-x="659" unicode="P" d="M221 574v-174h152q52 0 81 22.5t29 64.5t-29 64.5t-81 22.5h-152zM221 0h-144v700h306q113 0 178 -59q66 -58 66 -152q0 -95 -66 -153q-65 -59 -178 -59h-162v-277z"/>
<glyph glyph-name="Q" horiz-adv-x="832" unicode="Q" d="M261 186q62 -65 155 -65q92 0 154 65t62 164t-62 164t-154 65q-93 0 -155 -65q-61 -64 -61 -164t61 -164zM398 -12q-150 6 -248 110q-97 103 -97 252q0 154 103 258q103 106 260 106q156 0 259 -106q104 -106 104 -258q0 -112 -60 -204q-59 -91 -159 -131q40 -51 107 -51 q45 0 83 21v-121q-51 -23 -106 -23q-118 0 -246 147z"/>
<glyph glyph-name="R" horiz-adv-x="730" unicode="R" d="M221 574v-170h172q49 0 76.5 22t27.5 63q0 40 -27.5 62.5t-76.5 22.5h-172zM221 0h-144v700h324q112 0 176 -58q65 -57 65 -149q0 -70 -38.5 -121.5t-106.5 -72.5l216 -299h-167l-204 283h-121v-283z"/>
<glyph glyph-name="S" horiz-adv-x="629" unicode="S" d="M309 -14q-158 0 -266 75v150q44 -38 116 -66q73 -27 144 -27q59 0 97 21.5t38 59.5q0 41 -36 58q-15 9 -40 18l-24 8l-56 17l-52 17q-11 3 -47 17q-31 12 -45 21q-52 36 -66 61q-24 48 -24 98q0 93 71 146q71 54 193 54q123 0 229 -58v-140q-107 66 -227 66 q-119 0 -119 -69q0 -30 37 -48q22 -12 57 -21q47 -13 76 -22q87 -27 152 -73q70 -49 70 -146q0 -101 -79 -159t-199 -58z"/>
<glyph glyph-name="T" horiz-adv-x="647" unicode="T" d="M30 571v129h587v-129h-222v-571h-144v571h-221z"/>
<glyph glyph-name="U" horiz-adv-x="735" unicode="U" d="M367 -14q-131 0 -215 81t-84 227v406h143v-411q0 -81 42.5 -124.5t113.5 -43.5q72 0 114.5 43.5t42.5 124.5v411h144v-406q0 -146 -85 -227q-84 -81 -216 -81z"/>
<glyph glyph-name="V" horiz-adv-x="760" unicode="V" d="M448 -4h-136l-294 704h159l204 -504l205 504h156z"/>
<glyph glyph-name="W" horiz-adv-x="1075" unicode="W" d="M383 -4h-127l-235 704h160l144 -472l158 474h112l159 -474l144 472h157l-236 -704h-127l-153 467z"/>
<glyph glyph-name="X" horiz-adv-x="725" unicode="X" d="M48 700h168l147 -209l149 209h166l-231 -322l272 -378h-168l-190 261l-189 -261h-166l273 377z"/>
<glyph glyph-name="Y" horiz-adv-x="696" unicode="Y" d="M420 0h-143v314l-271 386h170l174 -249l175 249h165l-270 -383v-317z"/>
<glyph glyph-name="Z" horiz-adv-x="641" unicode="Z" d="M608 0h-575v102l364 469h-347v129h542v-101l-363 -470h379v-129z"/>
<glyph glyph-name="bracketleft" horiz-adv-x="429" unicode="[" d="M393 -206h-314v912h314v-111h-186v-690h186v-111z"/>
<glyph glyph-name="backslash" horiz-adv-x="532" unicode="\" d="M553 -140h-141l-421 932h141z"/>
<glyph glyph-name="bracketright" horiz-adv-x="429" unicode="]" d="M36 706h314v-912h-314v111h186v690h-186v111z"/>
<glyph glyph-name="asciicircum" horiz-adv-x="550" unicode="^" d="M168 339h-134l174 399h134l174 -399h-133l-108 278z"/>
<glyph glyph-name="underscore" horiz-adv-x="645" unicode="_" d="M641 -149h-637v95h637v-95z"/>
<glyph glyph-name="grave" horiz-adv-x="521" unicode="`" d="M133 722h171l95 -146h-122z"/>
<glyph glyph-name="a" horiz-adv-x="602" unicode="a" d="M369 147v50q-44 29 -104 29q-45 0 -71.5 -17t-26.5 -48q0 -32 24 -48.5t65 -16.5q74 0 113 51zM544 109q18 0 29 6v-103q-27 -21 -76 -21q-85 0 -113 64q-66 -68 -172 -68q-82 0 -133 46t-51 121q0 80 58 122t139 42q85 0 144 -31v15q0 94 -132 94q-81 0 -151 -42v118 q76 40 185 40q108 0 172 -52q66 -52 66 -144v-169q0 -38 35 -38z"/>
<glyph glyph-name="b" horiz-adv-x="644" unicode="b" d="M334 110q60 0 97 40q38 41 38 100q0 58 -38 99q-37 40 -97 40q-40 0 -73 -20.5t-51 -53.5v-130q18 -33 51 -54t73 -21zM374 -13q-108 0 -164 74v-61h-141v700h141v-262q59 74 164 74q102 0 168 -76q67 -74 67 -186t-67 -188q-66 -75 -168 -75z"/>
<glyph glyph-name="c" horiz-adv-x="516" unicode="c" d="M307 -13q-111 0 -191 72q-80 74 -80 192t80 189q81 72 193 72q82 0 148 -33v-120q-65 30 -127 30q-66 0 -111 -39q-44 -38 -44 -100t45 -101t110 -39q77 0 135 34v-120q-70 -37 -158 -37z"/>
<glyph glyph-name="d" horiz-adv-x="645" unicode="d" d="M311 110q40 0 73 21t51 54v130q-18 33 -51 53.5t-73 20.5q-60 0 -97 -40q-38 -41 -38 -99q0 -59 38 -100q37 -40 97 -40zM271 -13q-101 0 -169 75q-66 76 -66 188q0 111 66 186q67 76 169 76q105 0 164 -74v262h141v-700h-141v61q-56 -74 -164 -74z"/>
<glyph glyph-name="e" horiz-adv-x="573" unicode="e" d="M176 301h219q-2 43 -30.5 71.5t-74.5 28.5q-47 0 -78 -27.5t-36 -72.5zM313 -13q-117 0 -197 72t-80 191q0 111 72 186q72 76 188 76q108 0 173 -77t65 -187v-37h-358q11 -50 55.5 -77t111.5 -27q83 0 160 44v-113q-67 -51 -190 -51z"/>
<glyph glyph-name="f" horiz-adv-x="425" unicode="f" d="M248 381v-381h-141v381h-89v118h89v47q0 76 44 121t125 45q73 0 127 -21v-114q-45 17 -86 17q-69 0 -69 -67v-28h155v-118h-155z"/>
<glyph glyph-name="g" horiz-adv-x="638" unicode="g" d="M309 133q40 0 73 19t51 49v120q-18 30 -51 49t-73 19q-59 0 -95.5 -36.5t-36.5 -91.5t37.5 -91.5t94.5 -36.5zM433 441v58h141v-441q0 -128 -86 -196t-203 -68q-123 0 -196 43v127q79 -48 181 -48q31 0 58 6.5t52 21t39 42t14 65.5v31q-59 -71 -165 -71q-102 0 -167 72 q-65 73 -65 179q0 105 65 178q65 72 167 72q106 0 165 -71z"/>
<glyph glyph-name="h" horiz-adv-x="618" unicode="h" d="M210 318v-318h-141v700h141v-262q68 74 167 74q86 0 134 -54.5t48 -151.5v-306h-141v277q0 54 -26.5 80t-68.5 26q-32 0 -63.5 -18.5t-49.5 -46.5z"/>
<glyph glyph-name="i" horiz-adv-x="293" unicode="i" d="M62 631q0 36 24.5 60.5t59.5 24.5t59.5 -24.5t24.5 -60.5q0 -35 -24.5 -59.5t-59.5 -24.5t-59.5 24.5t-24.5 59.5zM217 0h-141v499h141v-499z"/>
<glyph glyph-name="j" horiz-adv-x="293" unicode="j" d="M61 631q0 36 24.5 60.5t59.5 24.5t60 -24.5t25 -60.5q0 -35 -25 -59.5t-60 -24.5t-59.5 24.5t-24.5 59.5zM36 -206q-74 0 -111 22v120q35 -19 75 -19q76 0 76 79v503h141v-517q0 -89 -48.5 -138.5t-132.5 -49.5z"/>
<glyph glyph-name="k" horiz-adv-x="599" unicode="k" d="M210 0h-141v700h141v-383l172 182h173l-217 -225l251 -274h-182l-197 215v-215z"/>
<glyph glyph-name="l" horiz-adv-x="318" unicode="l" d="M202 -13q-62 0 -97.5 33.5t-35.5 104.5v575h141v-538q0 -50 45 -50q21 0 36 9v-116q-36 -18 -89 -18z"/>
<glyph glyph-name="m" horiz-adv-x="926" unicode="m" d="M210 0h-141v499h141v-61q56 74 152 74q54 0 96.5 -24t58.5 -61q25 38 72 61.5t100 23.5q82 0 130 -52t48 -148v-312h-141v280q0 103 -83 103q-32 0 -61 -19t-43 -49v-315h-141v280q0 103 -83 103q-30 0 -60 -19t-45 -47v-317z"/>
<glyph glyph-name="n" horiz-adv-x="618" unicode="n" d="M210 318v-318h-141v499h141v-60q67 73 167 73q86 0 134 -54.5t48 -151.5v-306h-141v277q0 54 -26.5 80t-68.5 26q-32 0 -63.5 -18.5t-49.5 -46.5z"/>
<glyph glyph-name="o" horiz-adv-x="625" unicode="o" d="M36 250q0 111 78 186q77 76 199 76t199 -76q78 -76 78 -186q0 -112 -78 -188q-78 -75 -199 -75t-199 75q-78 76 -78 188zM214 150q39 -40 99 -40t99 40q39 41 39 100q0 60 -39 99q-39 40 -99 40t-99 -40q-39 -39 -39 -99t39 -100z"/>
<glyph glyph-name="p" horiz-adv-x="644" unicode="p" d="M334 389q-40 0 -73 -21t-51 -54v-130q18 -33 51 -53.5t73 -20.5q60 0 97 40q38 41 38 99q0 59 -38 100q-37 40 -97 40zM374 512q102 0 168 -76q67 -74 67 -187q0 -111 -67 -187q-66 -75 -168 -75q-105 0 -164 74v-261h-141v699h141v-61q56 74 164 74z"/>
<glyph glyph-name="q" horiz-adv-x="645" unicode="q" d="M311 389q-60 0 -97 -40q-38 -41 -38 -100q0 -58 38 -99q37 -40 97 -40q40 0 73 20.5t51 53.5v130q-18 33 -51 54t-73 21zM271 512q108 0 164 -74v61h141v-699h-141v261q-59 -74 -164 -74q-101 0 -169 75q-66 76 -66 187q0 112 66 187q67 76 169 76z"/>
<glyph glyph-name="r" horiz-adv-x="423" unicode="r" d="M210 0h-141v499h141v-84q23 40 70 68q49 29 104 29q12 0 16 -1v-138q-20 5 -44 5q-49 0 -89.5 -25.5t-56.5 -61.5v-291z"/>
<glyph glyph-name="s" horiz-adv-x="512" unicode="s" d="M253 -13q-133 0 -210 47v125q36 -24 91.5 -40.5t112.5 -16.5q86 0 86 42q0 20 -25 31q-13 6 -26 9l-37 9q-8 2 -21.5 5.5t-18.5 5.5q-89 24 -125.5 57.5t-36.5 97.5q0 71 58.5 112t161.5 41q114 0 187 -46v-120q-89 52 -181 52q-80 0 -80 -40q0 -8 4.5 -14.5t9 -9.5 t14.5 -9q6 -2 22 -6.5t21 -6.5l53 -11q83 -19 123 -56.5t40 -101.5q0 -70 -61 -113t-162 -43z"/>
<glyph glyph-name="t" horiz-adv-x="441" unicode="t" d="M116 155v226h-98v118h98v137h141v-137h142v-118h-142v-198q0 -37 16 -53.5t52 -16.5q37 0 73 18v-117q-44 -27 -119 -27q-163 0 -163 168z"/>
<glyph glyph-name="u" horiz-adv-x="619" unicode="u" d="M409 181v318h141v-499h-141v60q-67 -73 -167 -73q-86 0 -134 54.5t-48 151.5v306h141v-277q0 -54 26.5 -80t68.5 -26q32 0 63.5 18.5t49.5 46.5z"/>
<glyph glyph-name="v" horiz-adv-x="589" unicode="v" d="M358 -4h-128l-217 503h152l132 -324l131 324h147z"/>
<glyph glyph-name="w" horiz-adv-x="827" unicode="w" d="M308 -4h-120l-169 503h141l99 -297l98 299h113l101 -299l97 297h140l-171 -503h-122l-104 301z"/>
<glyph glyph-name="x" horiz-adv-x="581" unicode="x" d="M34 499h158l100 -140l101 140h156l-175 -238l190 -261h-158l-116 160l-117 -160h-156l191 260z"/>
<glyph glyph-name="y" horiz-adv-x="579" unicode="y" d="M134 -206q-62 0 -100 20v123q35 -20 76 -20q38 0 63.5 23.5t47.5 76.5l-215 482h152l132 -328l125 328h149l-231 -551q-66 -154 -199 -154z"/>
<glyph glyph-name="z" horiz-adv-x="526" unicode="z" d="M493 0h-461v93l252 288h-236v118h429v-96l-253 -285h269v-118z"/>
<glyph glyph-name="braceleft" horiz-adv-x="409" unicode="{" d="M373 -206h-80q-77 0 -122 45t-45 122v111q0 61 -16 89t-61 33v112q46 5 61.5 31t15.5 86v116q0 77 45 122t122 45h80v-111h-50q-32 0 -50.5 -19.5t-18.5 -51.5v-142q0 -108 -80 -132q80 -24 80 -132v-142q0 -32 18.5 -51.5t50.5 -19.5h50v-111z"/>
<glyph glyph-name="bar" horiz-adv-x="346" unicode="|" d="M236 -111h-126v871h126v-871z"/>
<glyph glyph-name="braceright" horiz-adv-x="409" unicode="}" d="M116 -206h-80v111h50q32 0 50.5 19.5t18.5 51.5v142q0 108 80 132q-80 24 -80 132v142q0 32 -18.5 51.5t-50.5 19.5h-50v111h80q77 0 122 -45t45 -122v-116q0 -60 15.5 -86t61.5 -31v-112q-45 -5 -61 -33t-16 -89v-111q0 -77 -45 -122t-122 -45z"/>
<glyph glyph-name="asciitilde" horiz-adv-x="629" unicode="~" d="M444 169q-48 0 -130 27q-83 27 -130 27q-75 0 -118 -46v126q14 19 47 31t71 12q49 0 130 -27q82 -27 130 -27q76 0 119 46v-127q-15 -19 -48 -30.5t-71 -11.5z"/>
<glyph glyph-name="nbspace" horiz-adv-x="256" unicode=" "/>
<glyph glyph-name="exclamdown" horiz-adv-x="333" unicode="¡" d="M80 424q0 36 25.5 61t61.5 25t61 -25t25 -61q0 -37 -25 -62.5t-61 -25.5t-61.5 25.5t-25.5 62.5zM221 266l32 -466h-172l31 466h109z"/>
<glyph glyph-name="cent" horiz-adv-x="516" unicode="¢" d="M242 504v112h119v-108q48 -6 96 -29v-121q-65 30 -127 30q-65 0 -111 -38q-44 -38 -44 -100t45 -101t110 -39q77 0 135 34v-120q-50 -26 -104 -34v-107h-119v111q-89 20 -148 88q-58 68 -58 169t58 166q59 68 148 87z"/>
<glyph glyph-name="sterling" horiz-adv-x="602" unicode="£" d="M557 0h-510v129h14q41 0 54 17.5t13 64.5v71h-81v111h81v82q0 111 68 175t185 64q93 0 160 -35v-134q-62 34 -137 34q-132 0 -132 -124v-62h225v-111h-225v-91q0 -44 -29 -62h314v-129z"/>
<glyph glyph-name="currency" horiz-adv-x="575" unicode="¤" d="M206 270q33 -33 80 -33q48 0 79 33q33 34 33 81t-33 80q-31 34 -79 34q-47 0 -80 -34q-32 -34 -32 -80t32 -81zM466 232l66 -66l-61 -61l-65 66q-56 -37 -120 -37t-120 37l-65 -66l-61 61l66 66q-36 54 -36 119t36 119l-66 66l61 61l65 -66q55 37 120 37q64 0 120 -37 l65 66l61 -61l-66 -66q36 -54 36 -119t-36 -119z"/>
<glyph glyph-name="yen" horiz-adv-x="673" unicode="¥" d="M69 129v94h196v70h-196v95h156l-215 312h162l166 -250l167 250h157l-215 -312h158v-95h-197v-70h197v-94h-197v-129h-143v129h-196z"/>
<glyph glyph-name="brokenbar" horiz-adv-x="346" unicode="¦" d="M236 407h-126v353h126v-353zM236 -111h-126v353h126v-353z"/>
<glyph glyph-name="section" horiz-adv-x="646" unicode="§" d="M367 195l44 -14q66 15 66 65q0 33 -41 53q-21 11 -43 18q-19 7 -25 8l-55 18q-64 19 -78 25q-67 -16 -67 -67q0 -30 41 -52q25 -12 43 -18l25 -8l55 -17zM312 -166q-123 0 -223 53v130q115 -59 229 -59q104 0 104 53q0 29 -39 43q-19 10 -42 16l-26 8l-60 18 q-104 31 -162 74q-56 44 -56 119q0 89 100 132q-60 47 -60 117q0 83 70 129q71 47 186 47q122 0 223 -53v-131q-116 60 -228 60q-105 0 -105 -53q0 -24 35 -43q10 -5 57 -20q5 -2 21.5 -6t31 -8.5t23.5 -7.5q96 -29 152 -68q66 -44 66 -125q0 -44 -27 -78.5t-73 -53.5 q60 -45 60 -117q0 -82 -71 -129t-186 -47z"/>
<glyph glyph-name="dieresis" horiz-adv-x="521" unicode="¨" d="M156 569q-30 0 -52 21.5t-22 52.5q0 30 22 51.5t52 21.5q31 0 52.5 -21t21.5 -52t-21.5 -52.5t-52.5 -21.5zM428 590q-21 -21 -52 -21q-32 0 -53 21t-21 53q0 31 21 52t53 21q31 0 52 -21q22 -22 22 -52q0 -31 -22 -53z"/>
<glyph glyph-name="copyright" horiz-adv-x="830" unicode="©" d="M414 20q138 0 232 97q95 98 95 234q0 138 -94 233q-95 96 -231 96q-138 0 -232 -97q-95 -98 -95 -234t94 -233q95 -96 231 -96zM440 150q-90 0 -149 58q-60 58 -60 142t60 141q59 58 149 58q57 0 101 -23v-85q-49 29 -101 29q-51 0 -86 -34.5t-35 -85.5q0 -52 36 -86 q35 -34 89 -34q62 0 105 33v-85q-46 -28 -109 -28zM53 350q0 150 106 256q107 108 257 108q151 0 256 -107q105 -106 105 -257q0 -150 -106 -257q-107 -107 -257 -107q-151 0 -256 107t-105 257z"/>
<glyph glyph-name="ordfeminine" horiz-adv-x="443" unicode="ª" d="M404 398q13 0 21 5v-71q-19 -13 -52 -13q-65 0 -81 49q-51 -53 -131 -53q-61 0 -99.5 34t-38.5 90q0 57 42 89.5t105 32.5q62 0 112 -26v16q0 77 -103 77q-60 0 -113 -32v80q53 31 136 31q79 0 126.5 -39t47.5 -107v-131q0 -32 28 -32zM282 432v40q-37 24 -86 24 q-36 0 -57.5 -14t-21.5 -38q0 -53 72 -53q58 0 93 41z"/>
<glyph glyph-name="guillemotleft" horiz-adv-x="590" unicode="«" d="M559 35h-142l-137 179v71l137 179h142l-162 -214zM310 35h-141l-137 179v71l137 179h141l-161 -214z"/>
<glyph glyph-name="logicalnot" horiz-adv-x="595" unicode="¬" d="M529 138h-126v160h-337v127h463v-287z"/>
<glyph glyph-name="uni00AD" horiz-adv-x="501" unicode="­" d="M405 214h-309v127h309v-127z"/>
<glyph glyph-name="registered" horiz-adv-x="830" unicode="®" d="M414 20q138 0 232 97q95 98 95 234q0 138 -94 233q-95 96 -231 96q-138 0 -232 -97q-95 -98 -95 -234t94 -233q95 -96 231 -96zM347 479v-89h90q51 0 51 43q0 22 -13.5 34t-37.5 12h-90zM347 168h-85v383h179q60 0 96.5 -32t36.5 -83q0 -38 -20.5 -66.5t-57.5 -39.5 l118 -162h-95l-111 152h-61v-152zM53 350q0 150 106 256q107 108 257 108q151 0 256 -107q105 -106 105 -257q0 -150 -106 -257q-107 -107 -257 -107q-151 0 -256 107t-105 257z"/>
<glyph glyph-name="overscore" horiz-adv-x="507" unicode="¯" d="M405 595h-307v95h307v-95z"/>
<glyph glyph-name="degree" horiz-adv-x="394" unicode="°" d="M357 556q0 -64 -48 -111q-46 -46 -112 -46t-113 46q-47 47 -47 111t47 111q49 47 113 47q65 0 112 -47q48 -47 48 -111zM121 556q0 -32 22 -55t54 -23t54 23t22 55q0 33 -22 55.5t-54 22.5t-54 -22.5t-22 -55.5z"/>
<glyph glyph-name="plusminus" horiz-adv-x="641" unicode="±" d="M575 19h-509v126h509v-126zM384 210h-128v163h-190v126h190v167h128v-167h191v-126h-191v-163z"/>
<glyph glyph-name="twosuperior" horiz-adv-x="356" unicode="²" d="M319 322h-281v69l108 92q65 56 65 93q0 20 -15.5 31.5t-40.5 11.5q-54 0 -104 -39v95q47 32 112 32q57 0 100 -33q44 -32 44 -86q0 -41 -17.5 -72t-62.5 -71l-48 -43h140v-80z"/>
<glyph glyph-name="threesuperior" horiz-adv-x="328" unicode="³" d="M144 315q-71 0 -122 30v88q55 -34 114 -34q31 0 51.5 14t20.5 37q0 22 -17.5 35.5t-47.5 13.5q-36 0 -61 -11v59l87 73h-136v80h253v-71l-80 -69q43 -9 70.5 -36.5t27.5 -75.5q0 -59 -47 -97q-47 -36 -113 -36z"/>
<glyph glyph-name="acute" horiz-adv-x="458" unicode="´" d="M262 570h-122l95 146h170z"/>
<glyph glyph-name="mu" horiz-adv-x="628" unicode="µ" d="M418 181v318h141v-499h-141v60q-67 -73 -167 -73q-26 0 -41 4v-191h-141v699h141v-277q0 -54 26.5 -80t68.5 -26q32 0 63.5 18.5t49.5 46.5z"/>
<glyph glyph-name="paragraph" horiz-adv-x="572" unicode="¶" d="M495 0h-144v288h-79q-110 0 -175 57q-64 58 -64 149q0 92 64 149q65 57 175 57h223v-700z"/>
<glyph glyph-name="middot" horiz-adv-x="263" unicode="·" d="M132 300q-37 0 -62 25.5t-25 62.5q0 36 25 61t62 25q36 0 61.5 -25t25.5 -61q0 -37 -25.5 -62.5t-61.5 -25.5z"/>
<glyph glyph-name="cedilla" horiz-adv-x="503" unicode="¸" d="M271 -145h-163l117 156h113z"/>
<glyph glyph-name="onesuperior" horiz-adv-x="252" unicode="¹" d="M214 322h-96v280l-101 -51v94l105 55h92v-378z"/>
<glyph glyph-name="ordmasculine" horiz-adv-x="449" unicode="º" d="M19 511q0 84 58 139q58 57 148 57q89 0 147 -57q58 -55 58 -139q0 -85 -58 -140q-59 -56 -147 -56q-89 0 -148 56q-58 55 -58 140zM225 404q45 0 74 30.5t29 76.5q0 45 -29 75.5t-74 30.5q-46 0 -75 -30t-29 -76t29.5 -76.5t74.5 -30.5z"/>
<glyph glyph-name="guillemotright" horiz-adv-x="589" unicode="»" d="M420 35h-141l161 215l-161 214h141l137 -179v-71zM172 35h-141l161 215l-161 214h141l137 -179v-71z"/>
<glyph glyph-name="onequarter" horiz-adv-x="765" unicode="¼" d="M604 272l-93 -108h93v108zM696 0h-92v90h-190v68l185 220h97v-214h54v-74h-54v-90zM214 322h-96v280l-101 -51v94l105 55h92v-378zM207 0h-108l422 700h108z"/>
<glyph glyph-name="onehalf" horiz-adv-x="806" unicode="½" d="M769 0h-281v69l108 92q65 56 65 93q0 20 -15.5 31.5t-40.5 11.5q-55 0 -104 -39v95q47 32 112 32q57 0 100 -33q44 -32 44 -86q0 -41 -17.5 -72t-62.5 -71l-48 -43h140v-80zM214 322h-96v280l-101 -51v94l105 55h92v-378zM207 0h-108l422 700h108z"/>
<glyph glyph-name="threequarters" horiz-adv-x="808" unicode="¾" d="M251 0h-108l422 700h108zM144 315q-71 0 -122 30v88q55 -34 114 -34q31 0 51.5 14t20.5 37q0 22 -17.5 35.5t-47.5 13.5q-36 0 -61 -11v59l87 73h-136v80h253v-71l-80 -69q43 -9 70.5 -36.5t27.5 -75.5q0 -59 -47 -97q-47 -36 -113 -36zM647 272l-93 -108h93v108zM739 0 h-92v90h-190v68l185 220h97v-214h54v-74h-54v-90z"/>
<glyph glyph-name="questiondown" horiz-adv-x="491" unicode="¿" d="M208 266h134v-141q-67 -14 -118 -47q-52 -33 -52 -76q0 -39 31.5 -59t83.5 -20q85 0 179 56v-126q-86 -59 -202 -59q-98 0 -168 55q-69 54 -69 149q0 71 53 121t128 74v73zM272 510q37 0 62 -25.5t25 -62.5q0 -36 -25 -61t-62 -25q-36 0 -61.5 25t-25.5 61 q0 37 25.5 62.5t61.5 25.5z"/>
<glyph glyph-name="Agrave" horiz-adv-x="770" unicode="À" d="M185 907h170l95 -146h-122zM384 524l-103 -243h205zM167 0h-151l300 704h138l300 -704h-153l-69 162h-296z"/>
<glyph glyph-name="Aacute" horiz-adv-x="770" unicode="Á" d="M447 761h-122l95 146h170zM384 524l-103 -243h205zM167 0h-151l300 704h138l300 -704h-153l-69 162h-296z"/>
<glyph glyph-name="Acircumflex" horiz-adv-x="770" unicode="Â" d="M319 762h-122l122 145h136l119 -145h-123l-67 77zM384 524l-103 -243h205zM167 0h-151l300 704h138l300 -704h-153l-69 162h-296z"/>
<glyph glyph-name="Atilde" horiz-adv-x="770" unicode="Ã" d="M280 765h-77q1 60 32.5 100t81.5 40q31 0 71 -22t61 -22q34 0 43 41h76q0 -55 -32 -99q-32 -42 -81 -42q-32 0 -72 22q-41 23 -61 23q-34 0 -42 -41zM384 524l-103 -243h205zM167 0h-151l300 704h138l300 -704h-153l-69 162h-296z"/>
<glyph glyph-name="Adieresis" horiz-adv-x="770" unicode="Ä" d="M276 760q-30 0 -52 21.5t-22 52.5q0 30 22 51.5t52 21.5q31 0 52.5 -21t21.5 -52t-21.5 -52.5t-52.5 -21.5zM548 781q-21 -21 -52 -21q-32 0 -53 21t-21 53q0 31 21 52t53 21q31 0 52 -21t21 -52q0 -32 -21 -53zM384 524l-103 -243h205zM167 0h-151l300 704h138l300 -704 h-153l-69 162h-296z"/>
<glyph glyph-name="Aring" horiz-adv-x="770" unicode="Å" d="M352 805q16 -13 33 -13q19 0 32 13q14 14 14 33q0 21 -14 32q-11 14 -32 14q-19 0 -33 -14q-13 -13 -13 -32q0 -17 13 -33zM459 764q-31 -31 -74 -31t-74 31t-31 74t31 74t74 31t74 -31t31 -74t-31 -74zM384 524l-103 -243h205zM167 0h-151l300 704h138l300 -704h-153 l-69 162h-296z"/>
<glyph glyph-name="AE" horiz-adv-x="1058" unicode="Æ" d="M502 575h-19l-164 -294h183v294zM646 309v-180h374v-129h-518v162h-250l-90 -162h-158l395 700h610v-129h-363v-135h291v-127h-291z"/>
<glyph glyph-name="Ccedilla" horiz-adv-x="677" unicode="Ç" d="M432 -145h-163l101 136q-141 20 -229 117q-88 98 -88 242q0 160 107 262q108 102 272 102q102 0 185 -44v-145q-81 54 -184 54q-99 0 -167 -65q-66 -64 -66 -164t68 -165q67 -64 171 -64q115 0 192 61v-145q-63 -37 -141 -47z"/>
<glyph glyph-name="Egrave" horiz-adv-x="640" unicode="È" d="M153 907h170l95 -146h-122zM602 0h-525v700h514v-129h-370v-135h298v-127h-298v-180h381v-129z"/>
<glyph glyph-name="Eacute" horiz-adv-x="640" unicode="É" d="M366 761h-122l95 146h170zM602 0h-525v700h514v-129h-370v-135h298v-127h-298v-180h381v-129z"/>
<glyph glyph-name="Ecircumflex" horiz-adv-x="640" unicode="Ê" d="M272 762h-122l122 145h136l119 -145h-123l-67 77zM602 0h-525v700h514v-129h-370v-135h298v-127h-298v-180h381v-129z"/>
<glyph glyph-name="Edieresis" horiz-adv-x="640" unicode="Ë" d="M230 760q-30 0 -52 21.5t-22 52.5q0 30 22 51.5t52 21.5q31 0 52.5 -21t21.5 -52t-21.5 -52.5t-52.5 -21.5zM502 781q-21 -21 -52 -21q-32 0 -53 21t-21 53q0 31 21 52t53 21q31 0 52 -21t21 -52q0 -32 -21 -53zM602 0h-525v700h514v-129h-370v-135h298v-127h-298v-180 h381v-129z"/>
<glyph glyph-name="Igrave" horiz-adv-x="307" unicode="Ì" d="M-48 907h170l95 -146h-122zM225 0h-143v700h143v-700z"/>
<glyph glyph-name="Iacute" horiz-adv-x="307" unicode="Í" d="M215 761h-122l95 146h170zM225 0h-143v700h143v-700z"/>
<glyph glyph-name="Icircumflex" horiz-adv-x="307" unicode="Î" d="M225 0h-143v700h143v-700zM87 762h-122l122 145h136l119 -145h-123l-67 77z"/>
<glyph glyph-name="Idieresis" horiz-adv-x="307" unicode="Ï" d="M44 760q-30 0 -52 21.5t-22 52.5q0 30 22 51.5t52 21.5q31 0 52.5 -21t21.5 -52t-21.5 -52.5t-52.5 -21.5zM316 781q-21 -21 -52 -21q-32 0 -53 21t-21 53q0 31 21 52t53 21q31 0 52 -21t21 -52q0 -32 -21 -53zM225 0h-143v700h143v-700z"/>
<glyph glyph-name="Eth" horiz-adv-x="830" unicode="Ð" d="M275 306v-177h106q117 0 182.5 58.5t65.5 162.5t-65.5 162.5t-182.5 58.5h-106v-144h138v-121h-138zM393 0h-262v306h-96v121h96v273h262q170 0 277 -98t107 -252q0 -155 -107 -253q-106 -97 -277 -97z"/>
<glyph glyph-name="Ntilde" horiz-adv-x="771" unicode="Ñ" d="M280 765h-77q1 60 32.5 100t81.5 40q31 0 71 -22t61 -22q34 0 43 41h76q0 -55 -32 -99q-32 -42 -81 -42q-32 0 -72 22q-41 23 -61 23q-34 0 -42 -41zM218 0h-141v700h123l353 -448v448h140v-700h-119l-356 450v-450z"/>
<glyph glyph-name="Ograve" horiz-adv-x="832" unicode="Ò" d="M214 907h170l95 -146h-122zM53 350q0 154 103 258q103 106 260 106q156 0 259 -106q104 -106 104 -258q0 -151 -104 -258q-103 -106 -259 -106q-157 0 -260 106t-103 258zM261 186q62 -65 155 -65q92 0 154 65t62 164t-62 164t-154 65q-93 0 -155 -65q-61 -64 -61 -164 t61 -164z"/>
<glyph glyph-name="Oacute" horiz-adv-x="832" unicode="Ó" d="M465 761h-122l95 146h170zM53 350q0 154 103 258q103 106 260 106q156 0 259 -106q104 -106 104 -258q0 -151 -104 -258q-103 -106 -259 -106q-157 0 -260 106t-103 258zM261 186q62 -65 155 -65q92 0 154 65t62 164t-62 164t-154 65q-93 0 -155 -65q-61 -64 -61 -164 t61 -164z"/>
<glyph glyph-name="Ocircumflex" horiz-adv-x="832" unicode="Ô" d="M350 762h-122l122 145h136l119 -145h-123l-67 77zM53 350q0 154 103 258q103 106 260 106q156 0 259 -106q104 -106 104 -258q0 -151 -104 -258q-103 -106 -259 -106q-157 0 -260 106t-103 258zM261 186q62 -65 155 -65q92 0 154 65t62 164t-62 164t-154 65 q-93 0 -155 -65q-61 -64 -61 -164t61 -164z"/>
<glyph glyph-name="Otilde" horiz-adv-x="832" unicode="Õ" d="M311 765h-77q1 60 32.5 100t81.5 40q31 0 71 -22t61 -22q34 0 43 41h76q0 -55 -32 -99q-31 -42 -81 -42q-32 0 -72 22q-41 23 -61 23q-34 0 -42 -41zM53 350q0 154 103 258q103 106 260 106q156 0 259 -106q104 -106 104 -258q0 -151 -104 -258q-103 -106 -259 -106 q-157 0 -260 106t-103 258zM261 186q62 -65 155 -65q92 0 154 65t62 164t-62 164t-154 65q-93 0 -155 -65q-61 -64 -61 -164t61 -164z"/>
<glyph glyph-name="Odieresis" horiz-adv-x="832" unicode="Ö" d="M307 760q-30 0 -52 21.5t-22 52.5q0 30 22 51.5t52 21.5q31 0 52.5 -21t21.5 -52t-21.5 -52.5t-52.5 -21.5zM579 781q-21 -21 -52 -21q-32 0 -53 21t-21 53q0 31 21 52t53 21q31 0 52 -21t21 -52q0 -32 -21 -53zM53 350q0 154 103 258q103 106 260 106q156 0 259 -106 q104 -106 104 -258q0 -151 -104 -258q-103 -106 -259 -106q-157 0 -260 106t-103 258zM261 186q62 -65 155 -65q92 0 154 65t62 164t-62 164t-154 65q-93 0 -155 -65q-61 -64 -61 -164t61 -164z"/>
<glyph glyph-name="multiply" horiz-adv-x="600" unicode="×" d="M301 242l-146 -145l-89 89l146 145l-146 146l89 89l145 -145l146 145l88 -89l-144 -146l144 -145l-88 -89z"/>
<glyph glyph-name="Oslash" horiz-adv-x="832" unicode="Ø" d="M416 121q92 0 154 65t62 164q0 79 -43 140l-282 -341q49 -28 109 -28zM200 350q0 -81 43 -142l282 342q-50 29 -109 29q-93 0 -155 -65q-61 -64 -61 -164zM416 -14q-110 0 -198 56l-34 -42h-112l80 97q-99 103 -99 253q0 154 103 258q103 106 260 106q106 0 197 -56 l35 42h114l-81 -98q98 -104 98 -252q0 -151 -104 -258q-103 -106 -259 -106z"/>
<glyph glyph-name="Ugrave" horiz-adv-x="735" unicode="Ù" d="M171 907h170l95 -146h-122zM367 -14q-131 0 -215 81t-84 227v406h143v-411q0 -81 42.5 -124.5t113.5 -43.5q72 0 114.5 43.5t42.5 124.5v411h144v-406q0 -146 -85 -227q-84 -81 -216 -81z"/>
<glyph glyph-name="Uacute" horiz-adv-x="735" unicode="Ú" d="M423 761h-122l95 146h170zM367 -14q-131 0 -215 81t-84 227v406h143v-411q0 -81 42.5 -124.5t113.5 -43.5q72 0 114.5 43.5t42.5 124.5v411h144v-406q0 -146 -85 -227q-84 -81 -216 -81z"/>
<glyph glyph-name="Ucircumflex" horiz-adv-x="735" unicode="Û" d="M302 762h-122l122 145h136l119 -145h-123l-67 77zM367 -14q-131 0 -215 81t-84 227v406h143v-411q0 -81 42.5 -124.5t113.5 -43.5q72 0 114.5 43.5t42.5 124.5v411h144v-406q0 -146 -85 -227q-84 -81 -216 -81z"/>
<glyph glyph-name="Udieresis" horiz-adv-x="735" unicode="Ü" d="M258 760q-30 0 -52 21.5t-22 52.5q0 30 22 51.5t52 21.5q31 0 52.5 -21t21.5 -52t-21.5 -52.5t-52.5 -21.5zM530 781q-21 -21 -52 -21q-32 0 -53 21t-21 53q0 31 21 52t53 21q31 0 52 -21t21 -52q0 -32 -21 -53zM367 -14q-131 0 -215 81t-84 227v406h143v-411 q0 -81 42.5 -124.5t113.5 -43.5q72 0 114.5 43.5t42.5 124.5v411h144v-406q0 -146 -85 -227q-84 -81 -216 -81z"/>
<glyph glyph-name="Yacute" horiz-adv-x="696" unicode="Ý" d="M401 761h-122l95 146h170zM420 0h-143v314l-271 386h170l174 -249l175 249h165l-270 -383v-317z"/>
<glyph glyph-name="Thorn" horiz-adv-x="668" unicode="Þ" d="M382 435h-161v-174h161q52 0 81 22.5t29 64.5t-29 64.5t-81 22.5zM77 700h144v-139h171q113 0 178 -59q66 -58 66 -152t-66 -153q-65 -59 -178 -59h-171v-138h-144v700z"/>
<glyph glyph-name="germandbls" horiz-adv-x="626" unicode="ß" d="M374 -9q-60 0 -91 12v113q30 -11 63 -11q49 0 78.5 28t29.5 75q0 53 -37.5 83.5t-102.5 30.5h-18v102h17q44 0 68.5 21.5t24.5 59.5t-25.5 59.5t-67.5 21.5q-47 0 -75 -30t-28 -84v-472h-141v473q0 111 67 175t175 64t169 -55q61 -54 61 -136q0 -52 -23.5 -89t-59.5 -50 q57 -16 95 -66t38 -122q0 -96 -59.5 -149.5t-157.5 -53.5z"/>
<glyph glyph-name="agrave" horiz-adv-x="602" unicode="à" d="M105 722h171l95 -146h-122zM369 197q-44 29 -104 29q-45 0 -71.5 -17t-26.5 -48q0 -32 24 -48.5t65 -16.5q74 0 113 51v50zM544 109q18 0 29 6v-103q-27 -21 -76 -21q-85 0 -113 64q-66 -68 -172 -68q-82 0 -133 46t-51 121q0 80 58 122t139 42q85 0 144 -31v15 q0 94 -132 94q-81 0 -151 -42v118q76 40 185 40q108 0 172 -52q66 -52 66 -144v-169q0 -38 35 -38z"/>
<glyph glyph-name="aacute" horiz-adv-x="602" unicode="á" d="M315 570h-122l95 146h170zM369 197q-44 29 -104 29q-45 0 -71.5 -17t-26.5 -48q0 -32 24 -48.5t65 -16.5q74 0 113 51v50zM544 109q18 0 29 6v-103q-27 -21 -76 -21q-85 0 -113 64q-66 -68 -172 -68q-82 0 -133 46t-51 121q0 80 58 122t139 42q85 0 144 -31v15 q0 94 -132 94q-81 0 -151 -42v118q76 40 185 40q108 0 172 -52q66 -52 66 -144v-169q0 -38 35 -38z"/>
<glyph glyph-name="acircumflex" horiz-adv-x="602" unicode="â" d="M204 570h-121l122 146h136l119 -146h-124l-66 78zM369 197q-44 29 -104 29q-45 0 -71.5 -17t-26.5 -48q0 -32 24 -48.5t65 -16.5q74 0 113 51v50zM544 109q18 0 29 6v-103q-27 -21 -76 -21q-85 0 -113 64q-66 -68 -172 -68q-82 0 -133 46t-51 121q0 80 58 122t139 42 q85 0 144 -31v15q0 94 -132 94q-81 0 -151 -42v118q76 40 185 40q108 0 172 -52q66 -52 66 -144v-169q0 -38 35 -38z"/>
<glyph glyph-name="atilde" horiz-adv-x="602" unicode="ã" d="M176 576h-76q0 59 31 99q32 41 82 41q31 0 71 -22q41 -22 62 -22q34 0 42 41h77q-1 -55 -33 -99q-32 -42 -80 -42q-32 0 -72 22q-41 23 -61 23q-34 0 -43 -41zM369 197q-44 29 -104 29q-45 0 -71.5 -17t-26.5 -48q0 -32 24 -48.5t65 -16.5q74 0 113 51v50zM544 109 q18 0 29 6v-103q-27 -21 -76 -21q-85 0 -113 64q-66 -68 -172 -68q-82 0 -133 46t-51 121q0 80 58 122t139 42q85 0 144 -31v15q0 94 -132 94q-81 0 -151 -42v118q76 40 185 40q108 0 172 -52q66 -52 66 -144v-169q0 -38 35 -38z"/>
<glyph glyph-name="adieresis" horiz-adv-x="602" unicode="ä" d="M170 569q-30 0 -52 21.5t-22 52.5q0 30 22 51.5t52 21.5q31 0 52.5 -21t21.5 -52t-21.5 -52.5t-52.5 -21.5zM442 590q-21 -21 -52 -21q-32 0 -53 21t-21 53q0 31 21 52t53 21q31 0 52 -21q22 -22 22 -52q0 -31 -22 -53zM369 197q-44 29 -104 29q-45 0 -71.5 -17 t-26.5 -48q0 -32 24 -48.5t65 -16.5q74 0 113 51v50zM544 109q18 0 29 6v-103q-27 -21 -76 -21q-85 0 -113 64q-66 -68 -172 -68q-82 0 -133 46t-51 121q0 80 58 122t139 42q85 0 144 -31v15q0 94 -132 94q-81 0 -151 -42v118q76 40 185 40q108 0 172 -52q66 -52 66 -144 v-169q0 -38 35 -38z"/>
<glyph glyph-name="aring" horiz-adv-x="602" unicode="å" d="M244 617q16 -13 33 -13q19 0 32 13q14 14 14 33q0 21 -14 32q-11 14 -32 14q-19 0 -33 -14q-13 -13 -13 -32q0 -17 13 -33zM351 576q-31 -31 -74 -31t-74 31t-31 74t31 74t74 31t74 -31t31 -74t-31 -74zM369 197q-44 29 -104 29q-45 0 -71.5 -17t-26.5 -48 q0 -32 24 -48.5t65 -16.5q74 0 113 51v50zM544 109q18 0 29 6v-103q-27 -21 -76 -21q-85 0 -113 64q-66 -68 -172 -68q-82 0 -133 46t-51 121q0 80 58 122t139 42q85 0 144 -31v15q0 94 -132 94q-81 0 -151 -42v118q76 40 185 40q108 0 172 -52q66 -52 66 -144v-169 q0 -38 35 -38z"/>
<glyph glyph-name="ae" horiz-adv-x="903" unicode="æ" d="M506 301h219q-2 43 -30.5 71.5t-74.5 28.5q-47 0 -78 -27.5t-36 -72.5zM256 94q41 0 75.5 16.5t50.5 43.5q-8 20 -12 45q-44 29 -105 29q-45 0 -71.5 -17.5t-26.5 -49.5t24.5 -49.5t64.5 -17.5zM864 248v-37h-358q11 -50 55.5 -77t111.5 -27q83 0 160 44v-113 q-67 -51 -190 -51q-137 0 -217 93q-33 -40 -89 -66.5t-121 -26.5q-84 0 -136 46t-52 121q0 80 58 122t139 42q85 0 144 -31v15q0 94 -132 94q-81 0 -151 -42v118q76 40 185 40q115 0 180 -68q71 68 172 68q112 0 176 -76q65 -77 65 -188z"/>
<glyph glyph-name="ccedilla" horiz-adv-x="516" unicode="ç" d="M36 251q0 118 80 189q81 72 193 72q82 0 148 -33v-120q-65 30 -127 30q-66 0 -111 -39q-44 -38 -44 -100t45 -101t110 -39q77 0 135 34v-120q-39 -21 -83 -30l-59 -139h-163l101 136q-97 14 -161 84t-64 176z"/>
<glyph glyph-name="egrave" horiz-adv-x="573" unicode="è" d="M126 722h171l95 -146h-122zM176 301h219q-2 43 -30.5 71.5t-74.5 28.5q-47 0 -78 -27.5t-36 -72.5zM313 -13q-117 0 -197 72t-80 191q0 111 72 186q72 76 188 76q108 0 173 -77t65 -187v-37h-358q11 -50 55.5 -77t111.5 -27q83 0 160 44v-113q-67 -51 -190 -51z"/>
<glyph glyph-name="eacute" horiz-adv-x="573" unicode="é" d="M339 570h-122l95 146h170zM176 301h219q-2 43 -30.5 71.5t-74.5 28.5q-47 0 -78 -27.5t-36 -72.5zM313 -13q-117 0 -197 72t-80 191q0 111 72 186q72 76 188 76q108 0 173 -77t65 -187v-37h-358q11 -50 55.5 -77t111.5 -27q83 0 160 44v-113q-67 -51 -190 -51z"/>
<glyph glyph-name="ecircumflex" horiz-adv-x="573" unicode="ê" d="M220 570h-121l122 146h136l119 -146h-124l-66 78zM176 301h219q-2 43 -30.5 71.5t-74.5 28.5q-47 0 -78 -27.5t-36 -72.5zM313 -13q-117 0 -197 72t-80 191q0 111 72 186q72 76 188 76q108 0 173 -77t65 -187v-37h-358q11 -50 55.5 -77t111.5 -27q83 0 160 44v-113 q-67 -51 -190 -51z"/>
<glyph glyph-name="edieresis" horiz-adv-x="573" unicode="ë" d="M178 569q-30 0 -52 21.5t-22 52.5q0 30 22 51.5t52 21.5q31 0 52.5 -21t21.5 -52t-21.5 -52.5t-52.5 -21.5zM450 590q-21 -21 -52 -21q-32 0 -53 21t-21 53q0 31 21 52t53 21q31 0 52 -21q22 -22 22 -52q0 -31 -22 -53zM176 301h219q-2 43 -30.5 71.5t-74.5 28.5 q-47 0 -78 -27.5t-36 -72.5zM313 -13q-117 0 -197 72t-80 191q0 111 72 186q72 76 188 76q108 0 173 -77t65 -187v-37h-358q11 -50 55.5 -77t111.5 -27q83 0 160 44v-113q-67 -51 -190 -51z"/>
<glyph glyph-name="igrave" horiz-adv-x="267" unicode="ì" d="M-68 722h171l95 -146h-122zM204 0h-141v499h141v-499z"/>
<glyph glyph-name="iacute" horiz-adv-x="267" unicode="í" d="M192 570h-122l95 146h170zM204 0h-141v499h141v-499z"/>
<glyph glyph-name="icircumflex" horiz-adv-x="267" unicode="î" d="M204 0h-141v499h141v-499zM66 570h-121l122 146h136l119 -146h-124l-66 78z"/>
<glyph glyph-name="idieresis" horiz-adv-x="266" unicode="ï" d="M204 0h-141v499h141v-499zM23 569q-30 0 -52 21.5t-22 52.5q0 30 22 51.5t52 21.5q31 0 52.5 -21t21.5 -52t-21.5 -52.5t-52.5 -21.5zM295 590q-21 -21 -52 -21q-32 0 -53 21t-21 53q0 31 21 52t53 21q31 0 52 -21q22 -22 22 -52q0 -31 -22 -53z"/>
<glyph glyph-name="eth" horiz-adv-x="602" unicode="ð" d="M301 358q-54 0 -90 -35.5t-36 -88.5t35.5 -88t90.5 -35t91 35t36 88t-36 88.5t-91 35.5zM301 -13q-115 0 -191 71q-74 71 -74 173q0 100 62 164q63 63 161 63q57 0 94 -17l-80 106l-120 -46l-51 69l115 45l-68 85h152l32 -42l99 37l50 -70l-95 -36l81 -111 q51 -70 76 -124q23 -51 23 -112q0 -108 -76 -181q-76 -74 -190 -74z"/>
<glyph glyph-name="ntilde" horiz-adv-x="618" unicode="ñ" d="M210 318v-318h-141v499h141v-60q67 73 167 73q86 0 134 -54.5t48 -151.5v-306h-141v277q0 54 -26.5 80t-68.5 26q-32 0 -63.5 -18.5t-49.5 -46.5zM208 576h-76q0 59 31 99q32 41 82 41q31 0 71 -22q41 -22 62 -22q34 0 42 41h77q-1 -55 -33 -99q-32 -42 -80 -42 q-32 0 -72 22q-41 23 -61 23q-34 0 -43 -41z"/>
<glyph glyph-name="ograve" horiz-adv-x="625" unicode="ò" d="M118 722h171l95 -146h-122zM36 250q0 111 78 186q77 76 199 76t199 -76q78 -76 78 -186q0 -112 -78 -188q-78 -75 -199 -75t-199 75q-78 76 -78 188zM214 150q39 -40 99 -40t99 40q39 41 39 100q0 60 -39 99q-39 40 -99 40t-99 -40q-39 -39 -39 -99t39 -100z"/>
<glyph glyph-name="oacute" horiz-adv-x="625" unicode="ó" d="M364 570h-122l95 146h170zM36 250q0 111 78 186q77 76 199 76t199 -76q78 -76 78 -186q0 -112 -78 -188q-78 -75 -199 -75t-199 75q-78 76 -78 188zM214 150q39 -40 99 -40t99 40q39 41 39 100q0 60 -39 99q-39 40 -99 40t-99 -40q-39 -39 -39 -99t39 -100z"/>
<glyph glyph-name="ocircumflex" horiz-adv-x="625" unicode="ô" d="M245 570h-121l122 146h136l119 -146h-124l-66 78zM36 250q0 111 78 186q77 76 199 76t199 -76q78 -76 78 -186q0 -112 -78 -188q-78 -75 -199 -75t-199 75q-78 76 -78 188zM214 150q39 -40 99 -40t99 40q39 41 39 100q0 60 -39 99q-39 40 -99 40t-99 -40q-39 -39 -39 -99 t39 -100z"/>
<glyph glyph-name="otilde" horiz-adv-x="625" unicode="õ" d="M207 576h-76q0 59 31 99q32 41 82 41q31 0 71 -22q41 -22 62 -22q34 0 42 41h77q-2 -55 -33 -99q-32 -42 -80 -42q-32 0 -72 22q-41 23 -61 23q-34 0 -43 -41zM36 250q0 111 78 186q77 76 199 76t199 -76q78 -76 78 -186q0 -112 -78 -188q-78 -75 -199 -75t-199 75 q-78 76 -78 188zM214 150q39 -40 99 -40t99 40q39 41 39 100q0 60 -39 99q-39 40 -99 40t-99 -40q-39 -39 -39 -99t39 -100z"/>
<glyph glyph-name="odieresis" horiz-adv-x="625" unicode="ö" d="M203 569q-30 0 -52 21.5t-22 52.5q0 30 22 51.5t52 21.5q31 0 52.5 -21t21.5 -52t-21.5 -52.5t-52.5 -21.5zM475 590q-21 -21 -52 -21q-32 0 -53 21t-21 53q0 31 21 52t53 21q31 0 52 -21q22 -22 22 -52q0 -31 -22 -53zM36 250q0 111 78 186q77 76 199 76t199 -76 q78 -76 78 -186q0 -112 -78 -188q-78 -75 -199 -75t-199 75q-78 76 -78 188zM214 150q39 -40 99 -40t99 40q39 41 39 100q0 60 -39 99q-39 40 -99 40t-99 -40q-39 -39 -39 -99t39 -100z"/>
<glyph glyph-name="divide" horiz-adv-x="632" unicode="÷" d="M379 42q-25 -25 -62 -25q-35 0 -63 25q-26 26 -26 63t26 63t63 26q39 0 62 -26q26 -26 26 -63t-26 -63zM566 268h-500v126h500v-126zM379 494q-25 -25 -62 -25q-35 0 -63 25q-26 26 -26 63q0 39 26 62q26 26 63 26q39 0 62 -26q26 -23 26 -62q0 -37 -26 -63z"/>
<glyph glyph-name="oslash" horiz-adv-x="625" unicode="ø" d="M313 110q60 0 99 40t39 100q0 44 -22 78l-176 -206q27 -12 60 -12zM175 250q0 -45 22 -79l176 206q-27 13 -60 13q-60 0 -99 -40t-39 -100zM313 -13q-81 0 -146 36l-19 -23h-98l58 68q-72 74 -72 182q0 111 78 186q77 76 199 76q81 0 145 -36l20 23h98l-59 -69 q73 -74 73 -180q0 -112 -78 -188q-78 -75 -199 -75z"/>
<glyph glyph-name="ugrave" horiz-adv-x="619" unicode="ù" d="M128 722h171l95 -146h-122zM550 499v-499h-141v60q-67 -73 -167 -73q-86 0 -134 54.5t-48 151.5v306h141v-277q0 -54 26.5 -80t68.5 -26q32 0 63.5 18.5t49.5 46.5v318h141z"/>
<glyph glyph-name="uacute" horiz-adv-x="619" unicode="ú" d="M342 570h-122l95 146h170zM550 499v-499h-141v60q-67 -73 -167 -73q-86 0 -134 54.5t-48 151.5v306h141v-277q0 -54 26.5 -80t68.5 -26q32 0 63.5 18.5t49.5 46.5v318h141z"/>
<glyph glyph-name="ucircumflex" horiz-adv-x="619" unicode="û" d="M238 570h-121l122 146h136l119 -146h-124l-66 78zM550 499v-499h-141v60q-67 -73 -167 -73q-86 0 -134 54.5t-48 151.5v306h141v-277q0 -54 26.5 -80t68.5 -26q32 0 63.5 18.5t49.5 46.5v318h141z"/>
<glyph glyph-name="udieresis" horiz-adv-x="619" unicode="ü" d="M196 569q-30 0 -52 21.5t-22 52.5q0 30 22 51.5t52 21.5q31 0 52.5 -21t21.5 -52t-21.5 -52.5t-52.5 -21.5zM468 590q-21 -21 -52 -21q-32 0 -53 21t-21 53q0 31 21 52t53 21q31 0 52 -21q22 -22 22 -52q0 -31 -22 -53zM550 499v-499h-141v60q-67 -73 -167 -73 q-86 0 -134 54.5t-48 151.5v306h141v-277q0 -54 26.5 -80t68.5 -26q32 0 63.5 18.5t49.5 46.5v318h141z"/>
<glyph glyph-name="yacute" horiz-adv-x="579" unicode="ý" d="M333 570h-122l95 146h170zM134 -206q-62 0 -100 20v123q35 -20 76 -20q38 0 63.5 23.5t47.5 76.5l-215 482h152l132 -328l125 328h149l-231 -551q-66 -154 -199 -154z"/>
<glyph glyph-name="thorn" horiz-adv-x="644" unicode="þ" d="M334 110q60 0 97 40q38 41 38 100q0 58 -38 99q-37 40 -97 40q-40 0 -73 -20.5t-51 -53.5v-130q18 -33 51 -54t73 -21zM374 -13q-108 0 -164 74v-261h-141v900h141v-262q59 74 164 74q102 0 168 -76q67 -74 67 -186t-67 -188q-66 -75 -168 -75z"/>
<glyph glyph-name="ydieresis" horiz-adv-x="579" unicode="ÿ" d="M174 569q-30 0 -52 21.5t-22 52.5q0 30 22 51.5t52 21.5q31 0 52.5 -21t21.5 -52t-21.5 -52.5t-52.5 -21.5zM446 590q-21 -21 -52 -21q-32 0 -53 21t-21 53q0 31 21 52t53 21q31 0 52 -21q22 -22 22 -52q0 -31 -22 -53zM134 -206q-62 0 -100 20v123q35 -20 76 -20 q38 0 63.5 23.5t47.5 76.5l-215 482h152l132 -328l125 328h149l-231 -551q-66 -154 -199 -154z"/>
<glyph glyph-name="Amacron" horiz-adv-x="770" unicode="Ā" d="M538 785h-306v95h306v-95zM384 524l-103 -243h205zM167 0h-151l300 704h138l300 -704h-153l-69 162h-296z"/>
<glyph glyph-name="amacron" horiz-adv-x="602" unicode="ā" d="M437 595h-307v95h307v-95zM369 197q-44 29 -104 29q-45 0 -71.5 -17t-26.5 -48q0 -32 24 -48.5t65 -16.5q74 0 113 51v50zM544 109q18 0 29 6v-103q-27 -21 -76 -21q-85 0 -113 64q-66 -68 -172 -68q-82 0 -133 46t-51 121q0 80 58 122t139 42q85 0 144 -31v15 q0 94 -132 94q-81 0 -151 -42v118q76 40 185 40q108 0 172 -52q66 -52 66 -144v-169q0 -38 35 -38z"/>
<glyph glyph-name="Abreve" horiz-adv-x="770" unicode="Ă" d="M220 909h95q2 -33 21 -53t49 -20t49 20t21 53h95q-2 -75 -50 -119q-47 -44 -115 -44q-67 0 -116 44q-48 44 -49 119zM384 524l-103 -243h205zM167 0h-151l300 704h138l300 -704h-153l-69 162h-296z"/>
<glyph glyph-name="abreve" horiz-adv-x="602" unicode="ă" d="M278 561q-70 0 -116.5 44.5t-49.5 117.5h96q2 -33 21 -53t49 -20t48.5 20t20.5 53h95q-2 -74 -49 -118t-115 -44zM369 197q-44 29 -104 29q-45 0 -71.5 -17t-26.5 -48q0 -32 24 -48.5t65 -16.5q74 0 113 51v50zM544 109q18 0 29 6v-103q-27 -21 -76 -21q-85 0 -113 64 q-66 -68 -172 -68q-82 0 -133 46t-51 121q0 80 58 122t139 42q85 0 144 -31v15q0 94 -132 94q-81 0 -151 -42v118q76 40 185 40q108 0 172 -52q66 -52 66 -144v-169q0 -38 35 -38z"/>
<glyph glyph-name="Aogonek" horiz-adv-x="770" unicode="Ą" d="M384 524l-103 -243h205zM749 -202q-59 0 -93.5 29t-34.5 74q0 54 45 99h-65l-69 162h-296l-69 -162h-151l300 704h138l300 -704q-35 -35 -35 -70q0 -22 14.5 -34.5t39.5 -12.5q23 0 36 7v-84q-22 -8 -60 -8z"/>
<glyph glyph-name="aogonek" horiz-adv-x="590" unicode="ą" d="M369 147v50q-44 29 -104 29q-45 0 -71.5 -17t-26.5 -48q0 -32 24 -48.5t65 -16.5q74 0 113 51zM568 -190q-59 0 -93.5 29t-34.5 74q0 41 29 81q-64 10 -85 61q-66 -68 -172 -68q-82 0 -133 46t-51 121q0 80 58 122t139 42q85 0 144 -31v15q0 94 -132 94q-81 0 -151 -42 v118q76 40 185 40q108 0 172 -52q66 -52 66 -144v-169q0 -38 35 -38q18 0 29 6v-103q-35 -35 -35 -70q0 -22 14.5 -34.5t39.5 -12.5q23 0 36 7v-84q-22 -8 -60 -8z"/>
<glyph glyph-name="Cacute" horiz-adv-x="677" unicode="Ć" d="M439 761h-122l95 146h170zM432 -14q-163 0 -271 102q-108 104 -108 262q0 160 107 262q108 102 272 102q102 0 185 -44v-145q-81 54 -184 54q-99 0 -167 -65q-66 -64 -66 -164t68 -165q67 -64 171 -64q115 0 192 61v-145q-85 -51 -199 -51z"/>
<glyph glyph-name="cacute" horiz-adv-x="513" unicode="ć" d="M313 570h-122l95 146h170zM307 -13q-111 0 -191 72q-80 74 -80 192t80 189q81 72 193 72q82 0 148 -33v-120q-65 30 -127 30q-66 0 -111 -39q-44 -38 -44 -100t45 -101t110 -39q77 0 135 34v-120q-70 -37 -158 -37z"/>
<glyph glyph-name="Ccircumflex" horiz-adv-x="677" unicode="Ĉ" d="M327 762h-122l122 145h136l119 -145h-123l-67 77zM432 -14q-163 0 -271 102q-108 104 -108 262q0 160 107 262q108 102 272 102q102 0 185 -44v-145q-81 54 -184 54q-99 0 -167 -65q-66 -64 -66 -164t68 -165q67 -64 171 -64q115 0 192 61v-145q-85 -51 -199 -51z"/>
<glyph glyph-name="ccircumflex" horiz-adv-x="516" unicode="ĉ" d="M211 570h-121l122 146h136l119 -146h-124l-66 78zM307 -13q-111 0 -191 72q-80 74 -80 192t80 189q81 72 193 72q82 0 148 -33v-120q-65 30 -127 30q-66 0 -111 -39q-44 -38 -44 -100t45 -101t110 -39q77 0 135 34v-120q-70 -37 -158 -37z"/>
<glyph glyph-name="Cdotaccent" horiz-adv-x="677" unicode="Ċ" d="M410 760q-30 0 -52 21.5t-22 52.5q0 30 22 51.5t52 21.5q31 0 52.5 -21.5t21.5 -51.5q0 -31 -21.5 -52.5t-52.5 -21.5zM432 -14q-163 0 -271 102q-108 104 -108 262q0 160 107 262q108 102 272 102q102 0 185 -44v-145q-81 54 -184 54q-99 0 -167 -65q-66 -64 -66 -164 t68 -165q67 -64 171 -64q115 0 192 61v-145q-85 -51 -199 -51z"/>
<glyph glyph-name="cdotaccent" horiz-adv-x="516" unicode="ċ" d="M297 569q-30 0 -52 21.5t-22 52.5q0 30 22 51.5t52 21.5q31 0 52 -21t21 -52t-21 -52.5t-52 -21.5zM307 -13q-111 0 -191 72q-80 74 -80 192t80 189q81 72 193 72q82 0 148 -33v-120q-65 30 -127 30q-66 0 -111 -39q-44 -38 -44 -100t45 -101t110 -39q77 0 135 34v-120 q-70 -37 -158 -37z"/>
<glyph glyph-name="Ccaron" horiz-adv-x="677" unicode="Č" d="M467 907h122l-122 -146h-136l-119 146h123l67 -78zM432 -14q-163 0 -271 102q-108 104 -108 262q0 160 107 262q108 102 272 102q102 0 185 -44v-145q-81 54 -184 54q-99 0 -167 -65q-66 -64 -66 -164t68 -165q67 -64 171 -64q115 0 192 61v-145q-85 -51 -199 -51z"/>
<glyph glyph-name="ccaron" horiz-adv-x="516" unicode="č" d="M350 716h122l-122 -146h-136l-120 146h124l66 -78zM307 -13q-111 0 -191 72q-80 74 -80 192t80 189q81 72 193 72q82 0 148 -33v-120q-65 30 -127 30q-66 0 -111 -39q-44 -38 -44 -100t45 -101t110 -39q77 0 135 34v-120q-70 -37 -158 -37z"/>
<glyph glyph-name="Dcaron" horiz-adv-x="776" unicode="Ď" d="M415 907h122l-122 -146h-136l-119 146h123l67 -78zM221 571v-442h106q117 0 182.5 58.5t65.5 162.5t-65.5 162.5t-182.5 58.5h-106zM339 0h-262v700h262q170 0 277 -98t107 -252q0 -155 -107 -253q-106 -97 -277 -97z"/>
<glyph glyph-name="dcaron" horiz-adv-x="821" unicode="ď" d="M751 496h-105l59 204h130zM311 110q40 0 73 21t51 54v130q-18 33 -51 53.5t-73 20.5q-60 0 -97 -40q-38 -41 -38 -99q0 -59 38 -100q37 -40 97 -40zM271 -13q-101 0 -169 75q-66 76 -66 188q0 111 66 186q67 76 169 76q105 0 164 -74v262h141v-700h-141v61 q-56 -74 -164 -74z"/>
<glyph glyph-name="Dcroat" horiz-adv-x="830" unicode="Đ" d="M275 306v-177h106q117 0 182.5 58.5t65.5 162.5t-65.5 162.5t-182.5 58.5h-106v-144h138v-121h-138zM393 0h-262v306h-96v121h96v273h262q170 0 277 -98t107 -252q0 -155 -107 -253q-106 -97 -277 -97z"/>
<glyph glyph-name="dslash" horiz-adv-x="639" unicode="đ" d="M311 110q40 0 73 21t51 54v130q-18 33 -51 53.5t-73 20.5q-60 0 -97 -40q-38 -41 -38 -99q0 -59 38 -100q37 -40 97 -40zM435 559h-122v73h122v68h141v-68h94v-73h-94v-559h-141v61q-56 -74 -164 -74q-101 0 -169 75q-66 76 -66 188q0 111 66 186q67 76 169 76 q105 0 164 -74v121z"/>
<glyph glyph-name="Emacron" horiz-adv-x="640" unicode="Ē" d="M491 785h-306v95h306v-95zM602 0h-525v700h514v-129h-370v-135h298v-127h-298v-180h381v-129z"/>
<glyph glyph-name="emacron" horiz-adv-x="573" unicode="ē" d="M442 595h-307v95h307v-95zM176 301h219q-2 43 -30.5 71.5t-74.5 28.5q-47 0 -78 -27.5t-36 -72.5zM313 -13q-117 0 -197 72t-80 191q0 111 72 186q72 76 188 76q108 0 173 -77t65 -187v-37h-358q11 -50 55.5 -77t111.5 -27q83 0 160 44v-113q-67 -51 -190 -51z"/>
<glyph glyph-name="Ebreve" horiz-adv-x="640" unicode="Ĕ" d="M173 909h95q2 -33 21 -53t49 -20t49 20t21 53h95q-2 -75 -50 -119q-47 -44 -115 -44q-67 0 -116 44q-48 44 -49 119zM602 0h-525v700h514v-129h-370v-135h298v-127h-298v-180h381v-129z"/>
<glyph glyph-name="ebreve" horiz-adv-x="573" unicode="ĕ" d="M288 561q-70 0 -116.5 44.5t-49.5 117.5h96q2 -33 21 -53t49 -20t48.5 20t20.5 53h95q-2 -74 -49 -118t-115 -44zM176 301h219q-2 43 -30.5 71.5t-74.5 28.5q-47 0 -78 -27.5t-36 -72.5zM313 -13q-117 0 -197 72t-80 191q0 111 72 186q72 76 188 76q108 0 173 -77 t65 -187v-37h-358q11 -50 55.5 -77t111.5 -27q83 0 160 44v-113q-67 -51 -190 -51z"/>
<glyph glyph-name="Edotaccent" horiz-adv-x="640" unicode="Ė" d="M338 760q-30 0 -52 21.5t-22 52.5q0 30 22 51.5t52 21.5q31 0 52.5 -21.5t21.5 -51.5q0 -31 -21.5 -52.5t-52.5 -21.5zM602 0h-525v700h514v-129h-370v-135h298v-127h-298v-180h381v-129z"/>
<glyph glyph-name="edotaccent" horiz-adv-x="573" unicode="ė" d="M288 569q-30 0 -52 21.5t-22 52.5q0 30 22 51.5t52 21.5q31 0 52 -21t21 -52t-21 -52.5t-52 -21.5zM176 301h219q-2 43 -30.5 71.5t-74.5 28.5q-47 0 -78 -27.5t-36 -72.5zM313 -13q-117 0 -197 72t-80 191q0 111 72 186q72 76 188 76q108 0 173 -77t65 -187v-37h-358 q11 -50 55.5 -77t111.5 -27q83 0 160 44v-113q-67 -51 -190 -51z"/>
<glyph glyph-name="Eogonek" horiz-adv-x="640" unicode="Ę" d="M514 0h-437v700h514v-129h-370v-135h298v-127h-298v-180h381v-129q-35 -35 -35 -70q0 -22 14.5 -34.5t39.5 -12.5q23 0 36 7v-84q-22 -8 -60 -8q-59 0 -93.5 29t-34.5 74q0 54 45 99z"/>
<glyph glyph-name="eogonek" horiz-adv-x="573" unicode="ę" d="M176 301h219q-2 43 -30.5 71.5t-74.5 28.5q-47 0 -78 -27.5t-36 -72.5zM498 -164q-59 0 -93.5 29t-34.5 74q0 27 12 54q-33 -6 -69 -6q-117 0 -197 72t-80 191q0 111 72 186q72 76 188 76q108 0 173 -77t65 -187v-37h-358q11 -50 55.5 -77t111.5 -27q83 0 160 44v-113 q-35 -35 -35 -70q0 -22 14.5 -34.5t39.5 -12.5q23 0 36 7v-84q-22 -8 -60 -8z"/>
<glyph glyph-name="Ecaron" horiz-adv-x="640" unicode="Ě" d="M406 907h122l-122 -146h-136l-119 146h123l67 -78zM602 0h-525v700h514v-129h-370v-135h298v-127h-298v-180h381v-129z"/>
<glyph glyph-name="ecaron" horiz-adv-x="573" unicode="ě" d="M354 716h122l-122 -146h-136l-120 146h124l66 -78zM176 301h219q-2 43 -30.5 71.5t-74.5 28.5q-47 0 -78 -27.5t-36 -72.5zM313 -13q-117 0 -197 72t-80 191q0 111 72 186q72 76 188 76q108 0 173 -77t65 -187v-37h-358q11 -50 55.5 -77t111.5 -27q83 0 160 44v-113 q-67 -51 -190 -51z"/>
<glyph glyph-name="Gcircumflex" horiz-adv-x="767" unicode="Ĝ" d="M334 762h-122l122 145h136l119 -145h-123l-67 77zM426 -14q-160 0 -266 102q-107 104 -107 262q0 160 107 262q106 102 271 102q121 0 210 -53v-142q-97 60 -200 60q-107 0 -174 -64q-67 -63 -67 -168q0 -104 65 -166t161 -62q92 0 141 46v241h144v-309q-45 -48 -120 -79 q-78 -32 -165 -32z"/>
<glyph glyph-name="gcircumflex" horiz-adv-x="638" unicode="ĝ" d="M245 570h-121l122 146h136l119 -146h-124l-66 78zM309 133q40 0 73 19t51 49v120q-18 30 -51 49t-73 19q-59 0 -95.5 -36.5t-36.5 -91.5t37.5 -91.5t94.5 -36.5zM433 441v58h141v-441q0 -128 -86 -196t-203 -68q-123 0 -196 43v127q79 -48 181 -48q31 0 58 6.5t52 21 t39 42t14 65.5v31q-59 -71 -165 -71q-102 0 -167 72q-65 73 -65 179q0 105 65 178q65 72 167 72q106 0 165 -71z"/>
<glyph glyph-name="Gbreve" horiz-adv-x="767" unicode="Ğ" d="M247 921h95q2 -33 21 -53t49 -20t49 20t21 53h95q-2 -75 -50 -119q-47 -44 -115 -44q-67 0 -116 44q-48 44 -49 119zM426 -14q-160 0 -266 102q-107 104 -107 262q0 160 107 262q106 102 271 102q121 0 210 -53v-142q-97 60 -200 60q-107 0 -174 -64q-67 -63 -67 -168 q0 -104 65 -166t161 -62q92 0 141 46v241h144v-309q-45 -48 -120 -79q-78 -32 -165 -32z"/>
<glyph glyph-name="gbreve" horiz-adv-x="638" unicode="ğ" d="M307 561q-70 0 -116.5 44.5t-49.5 117.5h96q2 -33 21 -53t49 -20t48.5 20t20.5 53h95q-2 -74 -49 -118t-115 -44zM309 133q40 0 73 19t51 49v120q-18 30 -51 49t-73 19q-59 0 -95.5 -36.5t-36.5 -91.5t37.5 -91.5t94.5 -36.5zM433 441v58h141v-441q0 -128 -86 -196 t-203 -68q-123 0 -196 43v127q79 -48 181 -48q31 0 58 6.5t52 21t39 42t14 65.5v31q-59 -71 -165 -71q-102 0 -167 72q-65 73 -65 179q0 105 65 178q65 72 167 72q106 0 165 -71z"/>
<glyph glyph-name="Gdotaccent" horiz-adv-x="767" unicode="Ġ" d="M414 760q-30 0 -52 21.5t-22 52.5q0 30 22 51.5t52 21.5q31 0 52.5 -21.5t21.5 -51.5q0 -31 -21.5 -52.5t-52.5 -21.5zM426 -14q-160 0 -266 102q-107 104 -107 262q0 160 107 262q106 102 271 102q121 0 210 -53v-142q-97 60 -200 60q-107 0 -174 -64q-67 -63 -67 -168 q0 -104 65 -166t161 -62q92 0 141 46v241h144v-309q-45 -48 -120 -79q-78 -32 -165 -32z"/>
<glyph glyph-name="gdotaccent" horiz-adv-x="638" unicode="ġ" d="M309 569q-30 0 -52 21.5t-22 52.5q0 30 22 51.5t52 21.5q31 0 52 -21t21 -52t-21 -52.5t-52 -21.5zM309 133q40 0 73 19t51 49v120q-18 30 -51 49t-73 19q-59 0 -95.5 -36.5t-36.5 -91.5t37.5 -91.5t94.5 -36.5zM433 441v58h141v-441q0 -128 -86 -196t-203 -68 q-123 0 -196 43v127q79 -48 181 -48q31 0 58 6.5t52 21t39 42t14 65.5v31q-59 -71 -165 -71q-102 0 -167 72q-65 73 -65 179q0 105 65 178q65 72 167 72q106 0 165 -71z"/>
<glyph glyph-name="uni0122" horiz-adv-x="767" unicode="Ģ" d="M417 -270h-105l59 204h130zM426 -14q-160 0 -266 102q-107 104 -107 262q0 160 107 262q106 102 271 102q121 0 210 -53v-142q-97 60 -200 60q-107 0 -174 -64q-67 -63 -67 -168q0 -104 65 -166t161 -62q92 0 141 46v241h144v-309q-45 -48 -120 -79q-78 -32 -165 -32z "/>
<glyph glyph-name="uni0123" horiz-adv-x="638" unicode="ģ" d="M327 778h105l-59 -204h-130zM309 133q40 0 73 19t51 49v120q-18 30 -51 49t-73 19q-59 0 -95.5 -36.5t-36.5 -91.5t37.5 -91.5t94.5 -36.5zM433 441v58h141v-441q0 -128 -86 -196t-203 -68q-123 0 -196 43v127q79 -48 181 -48q31 0 58 6.5t52 21t39 42t14 65.5v31 q-59 -71 -165 -71q-102 0 -167 72q-65 73 -65 179q0 105 65 178q65 72 167 72q106 0 165 -71z"/>
<glyph glyph-name="Hcircumflex" horiz-adv-x="758" unicode="Ĥ" d="M312 762h-122l122 145h136l119 -145h-123l-67 77zM221 0h-144v700h144v-262h316v262h143v-700h-143v307h-316v-307z"/>
<glyph glyph-name="hcircumflex" horiz-adv-x="610" unicode="ĥ" d="M67 762h-122l122 145h136l119 -145h-123l-67 77zM61 0v700h141v-262q68 74 167 74q86 0 134 -54.5t48 -151.5v-306h-141v277q0 54 -26.5 80t-68.5 26q-32 0 -63.5 -18.5t-49.5 -46.5v-318h-141z"/>
<glyph glyph-name="Hbar" horiz-adv-x="838" unicode="Ħ" d="M261 518v-80h317v80h-317zM261 0h-143v518h-72v93h72v89h143v-89h317v89h143v-89h71v-93h-71v-518h-143v307h-317v-307z"/>
<glyph glyph-name="hbar" horiz-adv-x="665" unicode="ħ" d="M257 247v-247h-141v518h-102v93h102v89h141v-89h160v-93h-160v-151q68 74 167 74q86 0 134 -54.5t48 -151.5v-235h-141v206q0 54 -26.5 80t-68.5 26q-32 0 -63.5 -18.5t-49.5 -46.5z"/>
<glyph glyph-name="Itilde" horiz-adv-x="307" unicode="Ĩ" d="M225 0h-143v700h143v-700zM48 765h-77q1 60 32.5 100t81.5 40q31 0 71 -22t61 -22q34 0 43 41h76q0 -55 -32 -99q-32 -42 -81 -42q-32 0 -72 22q-41 23 -61 23q-34 0 -42 -41z"/>
<glyph glyph-name="itilde" horiz-adv-x="267" unicode="ĩ" d="M204 0h-141v499h141v-499zM27 576h-76q0 58 32 99t81 41q31 0 71 -22q41 -22 62 -22q34 0 42 41h77q-2 -55 -33 -99q-31 -42 -80 -42q-32 0 -72 22q-41 23 -61 23q-34 0 -43 -41z"/>
<glyph glyph-name="Imacron" horiz-adv-x="307" unicode="Ī" d="M225 0h-143v700h143v-700zM306 785h-306v95h306v-95z"/>
<glyph glyph-name="imacron" horiz-adv-x="267" unicode="ī" d="M287 595h-307v95h307v-95zM204 0h-141v499h141v-499z"/>
<glyph glyph-name="Ibreve" horiz-adv-x="307" unicode="Ĭ" d="M225 0h-143v700h143v-700zM-12 909h95q2 -33 21 -53t49 -20t49 20t21 53h95q-2 -75 -50 -119q-47 -44 -115 -44q-67 0 -116 44q-48 44 -49 119z"/>
<glyph glyph-name="ibreve" horiz-adv-x="267" unicode="ĭ" d="M204 0h-141v499h141v-499zM133 561q-70 0 -116.5 44.5t-49.5 117.5h96q2 -33 21 -53t49 -20t48.5 20t20.5 53h95q-2 -74 -49 -118t-115 -44z"/>
<glyph glyph-name="Iogonek" horiz-adv-x="307" unicode="Į" d="M137 0h-55v700h143v-700q-35 -35 -35 -70q0 -22 14.5 -34.5t39.5 -12.5q23 0 36 7v-84q-22 -8 -60 -8q-59 0 -93.5 29t-34.5 74q0 54 45 99z"/>
<glyph glyph-name="iogonek" horiz-adv-x="293" unicode="į" d="M62 631q0 36 24.5 60.5t59.5 24.5t59.5 -24.5t24.5 -60.5q0 -35 -24.5 -59.5t-59.5 -24.5t-59.5 24.5t-24.5 59.5zM129 0h-53v499h141v-499q-35 -35 -35 -70q0 -22 14.5 -34.5t39.5 -12.5q23 0 36 7v-84q-22 -8 -60 -8q-59 0 -93.5 29t-34.5 74q0 54 45 99z"/>
<glyph glyph-name="Idot" horiz-adv-x="307" unicode="İ" d="M225 0h-143v700h143v-700zM154 760q-30 0 -52 21.5t-22 52.5q0 30 22 51.5t52 21.5q31 0 52.5 -21.5t21.5 -51.5q0 -31 -21.5 -52.5t-52.5 -21.5z"/>
<glyph glyph-name="dotlessi" horiz-adv-x="267" unicode="ı" d="M204 0h-141v499h141v-499z"/>
<glyph glyph-name="IJ" horiz-adv-x="634" unicode="Ĳ" d="M276 -14q-126 0 -194 43v143q76 -51 171 -51q84 0 124.5 33.5t40.5 107.5v438h143v-459q0 -135 -79 -195q-80 -60 -206 -60zM225 270h-143v430h143v-430z"/>
<glyph glyph-name="Jcircumflex" horiz-adv-x="499" unicode="Ĵ" d="M291 762h-122l122 145h136l119 -145h-123l-67 77zM184 -14q-109 0 -168 41v142q60 -48 138 -48q68 0 100.5 31.5t32.5 101.5v446h143v-470q0 -67 -19.5 -116t-54.5 -76t-77.5 -39.5t-94.5 -12.5z"/>
<glyph glyph-name="jcircumflex" horiz-adv-x="293" unicode="ĵ" d="M80 576h-121l122 146h136l119 -146h-124l-66 78zM36 -206q-74 0 -111 22v119q35 -19 75 -19q76 0 76 79v504h141v-517q0 -89 -48.5 -138.5t-132.5 -49.5z"/>
<glyph glyph-name="uni0136" horiz-adv-x="706" unicode="Ķ" d="M363 -270h-105l59 204h130zM221 0h-144v700h144v-276l258 276h176l-297 -321l348 -379h-184l-301 323v-323z"/>
<glyph glyph-name="uni0137" horiz-adv-x="591" unicode="ķ" d="M301 -270h-105l59 204h130zM202 0h-141v700h141v-383l172 182h173l-217 -225l251 -274h-182l-197 215v-215z"/>
<glyph glyph-name="kgreenlandic" horiz-adv-x="599" unicode="ĸ" d="M210 0h-141v499h141v-182l172 182h173l-217 -225l251 -274h-182l-197 215v-215z"/>
<glyph glyph-name="Lacute" horiz-adv-x="603" unicode="Ĺ" d="M211 761h-122l95 146h170zM576 0h-499v700h144v-571h355v-129z"/>
<glyph glyph-name="lacute" horiz-adv-x="310" unicode="ĺ" d="M194 761h-122l95 146h170zM193 -13q-62 0 -97.5 33.5t-35.5 104.5v575h141v-538q0 -50 45 -50q21 0 36 9v-116q-36 -18 -89 -18z"/>
<glyph glyph-name="uni013B" horiz-adv-x="603" unicode="Ļ" d="M334 -270h-105l59 204h130zM576 0h-499v700h144v-571h355v-129z"/>
<glyph glyph-name="lcommaaccent" horiz-adv-x="318" unicode="ļ" d="M186 -270h-105l59 204h130zM202 -13q-62 0 -97.5 33.5t-35.5 104.5v575h141v-538q0 -50 45 -50q21 0 36 9v-116q-36 -18 -89 -18z"/>
<glyph glyph-name="Lcaron" horiz-adv-x="611" unicode="Ľ" d="M487 496h-105l59 204h130zM576 0h-499v700h144v-571h355v-129z"/>
<glyph glyph-name="lcaron" horiz-adv-x="428" unicode="ľ" d="M358 496h-105l59 204h130zM186 -13q-62 0 -97.5 33.5t-35.5 104.5v575h141v-538q0 -50 45 -50q21 0 36 9v-116q-36 -18 -89 -18z"/>
<glyph glyph-name="Ldot" horiz-adv-x="603" unicode="Ŀ" d="M576 0h-499v700h144v-571h355v-129zM489 298q-37 0 -62 25.5t-25 62.5q0 36 25 61t62 25q36 0 61.5 -25t25.5 -61q0 -37 -25.5 -62.5t-61.5 -25.5z"/>
<glyph glyph-name="ldot" horiz-adv-x="476" unicode="ŀ" d="M351 298q-37 0 -62 25.5t-25 62.5q0 36 25 61t62 25q36 0 61.5 -25t25.5 -61q0 -37 -25.5 -62.5t-61.5 -25.5zM195 -13q-62 0 -97.5 33.5t-35.5 104.5v575h141v-538q0 -50 45 -50q21 0 36 9v-116q-36 -18 -89 -18z"/>
<glyph glyph-name="Lslash" horiz-adv-x="634" unicode="Ł" d="M108 279l-97 -62v124l97 62v297h144v-204l146 95v-124l-146 -95v-243h355v-129h-499v279z"/>
<glyph glyph-name="lslash" horiz-adv-x="393" unicode="ł" d="M118 266l-102 -66v124l102 66v310h141v-219l103 67v-124l-103 -67v-195q0 -50 45 -50q21 0 36 9v-116q-36 -18 -89 -18q-62 0 -97.5 33.5t-35.5 104.5v141z"/>
<glyph glyph-name="Nacute" horiz-adv-x="771" unicode="Ń" d="M439 761h-122l95 146h170zM218 0h-141v700h123l353 -448v448h140v-700h-119l-356 450v-450z"/>
<glyph glyph-name="nacute" horiz-adv-x="618" unicode="ń" d="M345 570h-122l95 146h170zM210 318v-318h-141v499h141v-60q67 73 167 73q86 0 134 -54.5t48 -151.5v-306h-141v277q0 54 -26.5 80t-68.5 26q-32 0 -63.5 -18.5t-49.5 -46.5z"/>
<glyph glyph-name="uni0145" horiz-adv-x="771" unicode="Ņ" d="M401 -270h-105l59 204h130zM218 0h-141v700h123l353 -448v448h140v-700h-119l-356 450v-450z"/>
<glyph glyph-name="uni0146" horiz-adv-x="618" unicode="ņ" d="M304 -270h-105l59 204h130zM210 318v-318h-141v499h141v-60q67 73 167 73q86 0 134 -54.5t48 -151.5v-306h-141v277q0 54 -26.5 80t-68.5 26q-32 0 -63.5 -18.5t-49.5 -46.5z"/>
<glyph glyph-name="Ncaron" horiz-adv-x="771" unicode="Ň" d="M452 907h122l-122 -146h-136l-119 146h123l67 -78zM218 0h-141v700h123l353 -448v448h140v-700h-119l-356 450v-450z"/>
<glyph glyph-name="ncaron" horiz-adv-x="618" unicode="ň" d="M381 716h122l-122 -146h-136l-120 146h124l66 -78zM210 318v-318h-141v499h141v-60q67 73 167 73q86 0 134 -54.5t48 -151.5v-306h-141v277q0 54 -26.5 80t-68.5 26q-32 0 -63.5 -18.5t-49.5 -46.5z"/>
<glyph glyph-name="napostrophe" horiz-adv-x="759" unicode="ŉ" d="M119 496h-105l59 204h130zM351 318v-318h-141v499h141v-60q67 73 167 73q86 0 134 -54.5t48 -151.5v-306h-141v277q0 54 -26.5 80t-68.5 26q-32 0 -63.5 -18.5t-49.5 -46.5z"/>
<glyph glyph-name="Eng" horiz-adv-x="771" unicode="Ŋ" d="M218 0h-141v700h123l353 -448v448h140v-702q0 -97 -51 -150.5t-142 -53.5q-76 0 -120 23v125q37 -22 84 -22q87 0 87 90v19l-333 421v-450z"/>
<glyph glyph-name="eng" horiz-adv-x="618" unicode="ŋ" d="M378 -206q-74 0 -111 22v120q35 -19 75 -19q76 0 76 79v281q0 54 -26.5 80t-68.5 26q-32 0 -63.5 -18.5t-49.5 -46.5v-318h-141v499h141v-60q67 73 167 73q86 0 134 -54.5t48 -151.5v-324q0 -89 -48.5 -138.5t-132.5 -49.5z"/>
<glyph glyph-name="Omacron" horiz-adv-x="832" unicode="Ō" d="M569 785h-306v95h306v-95zM53 350q0 154 103 258q103 106 260 106q156 0 259 -106q104 -106 104 -258q0 -151 -104 -258q-103 -106 -259 -106q-157 0 -260 106t-103 258zM261 186q62 -65 155 -65q92 0 154 65t62 164t-62 164t-154 65q-93 0 -155 -65q-61 -64 -61 -164 t61 -164z"/>
<glyph glyph-name="omacron" horiz-adv-x="625" unicode="ō" d="M467 595h-307v95h307v-95zM36 250q0 111 78 186q77 76 199 76t199 -76q78 -76 78 -186q0 -112 -78 -188q-78 -75 -199 -75t-199 75q-78 76 -78 188zM214 150q39 -40 99 -40t99 40q39 41 39 100q0 60 -39 99q-39 40 -99 40t-99 -40q-39 -39 -39 -99t39 -100z"/>
<glyph glyph-name="Obreve" horiz-adv-x="832" unicode="Ŏ" d="M251 921h95q2 -33 21 -53t49 -20t49 20t21 53h95q-2 -75 -50 -119q-47 -44 -115 -44q-67 0 -116 44q-48 44 -49 119zM53 350q0 154 103 258q103 106 260 106q156 0 259 -106q104 -106 104 -258q0 -151 -104 -258q-103 -106 -259 -106q-157 0 -260 106t-103 258zM261 186 q62 -65 155 -65q92 0 154 65t62 164t-62 164t-154 65q-93 0 -155 -65q-61 -64 -61 -164t61 -164z"/>
<glyph glyph-name="obreve" horiz-adv-x="625" unicode="ŏ" d="M313 568q-70 0 -116.5 44.5t-49.5 117.5h96q2 -33 21 -53t49 -20t48.5 20t20.5 53h95q-2 -74 -49 -118t-115 -44zM36 250q0 111 78 186q77 76 199 76t199 -76q78 -76 78 -186q0 -112 -78 -188q-78 -75 -199 -75t-199 75q-78 76 -78 188zM214 150q39 -40 99 -40t99 40 q39 41 39 100q0 60 -39 99q-39 40 -99 40t-99 -40q-39 -39 -39 -99t39 -100z"/>
<glyph glyph-name="Ohungarumlaut" horiz-adv-x="832" unicode="Ő" d="M372 761h-123l95 146h172zM600 761h-123l95 146h172zM53 350q0 154 103 258q103 106 260 106q156 0 259 -106q104 -106 104 -258q0 -151 -104 -258q-103 -106 -259 -106q-157 0 -260 106t-103 258zM261 186q62 -65 155 -65q92 0 154 65t62 164t-62 164t-154 65 q-93 0 -155 -65q-61 -64 -61 -164t61 -164z"/>
<glyph glyph-name="ohungarumlaut" horiz-adv-x="625" unicode="ő" d="M256 570h-123l95 146h172zM484 570h-123l95 146h172zM36 250q0 111 78 186q77 76 199 76t199 -76q78 -76 78 -186q0 -112 -78 -188q-78 -75 -199 -75t-199 75q-78 76 -78 188zM214 150q39 -40 99 -40t99 40q39 41 39 100q0 60 -39 99q-39 40 -99 40t-99 -40 q-39 -39 -39 -99t39 -100z"/>
<glyph glyph-name="OE" horiz-adv-x="1079" unicode="Œ" d="M449 129h74v442h-74q-118 0 -183 -58.5t-65 -162.5t65 -162.5t183 -58.5zM1041 0h-604q-171 0 -277 97q-107 98 -107 253q0 154 107 252t277 98h593v-129h-363v-135h291v-127h-291v-180h374v-129z"/>
<glyph glyph-name="oe" horiz-adv-x="979" unicode="œ" d="M582 301h219q-2 43 -30.5 71.5t-74.5 28.5q-47 0 -78 -27.5t-36 -72.5zM214 150q39 -40 99 -40t99 40q39 41 39 100q0 60 -39 100t-99 40t-99 -40t-39 -100t39 -100zM940 248v-37h-358q11 -50 55.5 -77t111.5 -27q83 0 160 44v-113q-67 -51 -194 -51q-125 0 -201 81 q-80 -81 -204 -81q-119 0 -196 76q-78 77 -78 187q0 111 78 186q77 76 199 76q121 0 201 -84q74 84 185 84t176 -77t65 -187z"/>
<glyph glyph-name="Racute" horiz-adv-x="730" unicode="Ŕ" d="M352 761h-122l95 146h170zM221 574v-170h172q49 0 76.5 22t27.5 63q0 40 -27.5 62.5t-76.5 22.5h-172zM221 0h-144v700h324q112 0 176 -58q65 -57 65 -149q0 -70 -38.5 -121.5t-106.5 -72.5l216 -299h-167l-204 283h-121v-283z"/>
<glyph glyph-name="racute" horiz-adv-x="423" unicode="ŕ" d="M254 570h-122l95 146h170zM210 0h-141v499h141v-84q23 40 70 68q49 29 104 29q12 0 16 -1v-138q-20 5 -44 5q-49 0 -89.5 -25.5t-56.5 -61.5v-291z"/>
<glyph glyph-name="uni0156" horiz-adv-x="730" unicode="Ŗ" d="M368 -270h-105l59 204h130zM221 574v-170h172q49 0 76.5 22t27.5 63q0 40 -27.5 62.5t-76.5 22.5h-172zM221 0h-144v700h324q112 0 176 -58q65 -57 65 -149q0 -70 -38.5 -121.5t-106.5 -72.5l216 -299h-167l-204 283h-121v-283z"/>
<glyph glyph-name="uni0157" horiz-adv-x="423" unicode="ŗ" d="M122 -270h-105l59 204h130zM210 0h-141v499h141v-84q23 40 70 68q49 29 104 29q12 0 16 -1v-138q-20 5 -44 5q-49 0 -89.5 -25.5t-56.5 -61.5v-291z"/>
<glyph glyph-name="Rcaron" horiz-adv-x="730" unicode="Ř" d="M402 907h122l-122 -146h-136l-119 146h123l67 -78zM221 574v-170h172q49 0 76.5 22t27.5 63q0 40 -27.5 62.5t-76.5 22.5h-172zM221 0h-144v700h324q112 0 176 -58q65 -57 65 -149q0 -70 -38.5 -121.5t-106.5 -72.5l216 -299h-167l-204 283h-121v-283z"/>
<glyph glyph-name="rcaron" horiz-adv-x="415" unicode="ř" d="M285 716h122l-122 -146h-136l-120 146h124l66 -78zM202 0h-141v499h141v-84q23 40 70 68q49 29 104 29q12 0 16 -1v-138q-20 5 -44 5q-49 0 -89.5 -25.5t-56.5 -61.5v-291z"/>
<glyph glyph-name="Sacute" horiz-adv-x="627" unicode="Ś" d="M329 761h-122l95 146h170zM309 -14q-158 0 -266 75v150q44 -38 116 -66q73 -27 144 -27q59 0 97 21.5t38 59.5q0 41 -36 58q-15 9 -40 18l-24 8l-56 17l-52 17q-11 3 -47 17q-31 12 -45 21q-52 36 -66 61q-24 48 -24 98q0 93 71 146q71 54 193 54q123 0 229 -58v-140 q-107 66 -227 66q-119 0 -119 -69q0 -30 37 -48q22 -12 57 -21q47 -13 76 -22q87 -27 152 -73q70 -49 70 -146q0 -101 -79 -159t-199 -58z"/>
<glyph glyph-name="sacute" horiz-adv-x="512" unicode="ś" d="M280 570h-122l95 146h170zM253 -13q-133 0 -210 47v125q36 -24 91.5 -40.5t112.5 -16.5q86 0 86 42q0 20 -25 31q-13 6 -26 9l-37 9q-8 2 -21.5 5.5t-18.5 5.5q-89 24 -125.5 57.5t-36.5 97.5q0 71 58.5 112t161.5 41q114 0 187 -46v-120q-89 52 -181 52q-80 0 -80 -40 q0 -8 4.5 -14.5t9 -9.5t14.5 -9q6 -2 22 -6.5t21 -6.5l53 -11q83 -19 123 -56.5t40 -101.5q0 -70 -61 -113t-162 -43z"/>
<glyph glyph-name="Scircumflex" horiz-adv-x="627" unicode="Ŝ" d="M242 762h-122l122 145h136l119 -145h-123l-67 77zM309 -14q-158 0 -266 75v150q44 -38 116 -66q73 -27 144 -27q59 0 97 21.5t38 59.5q0 41 -36 58q-15 9 -40 18l-24 8l-56 17l-52 17q-11 3 -47 17q-31 12 -45 21q-52 36 -66 61q-24 48 -24 98q0 93 71 146q71 54 193 54 q123 0 229 -58v-140q-107 66 -227 66q-119 0 -119 -69q0 -30 37 -48q22 -12 57 -21q47 -13 76 -22q87 -27 152 -73q70 -49 70 -146q0 -101 -79 -159t-199 -58z"/>
<glyph glyph-name="scircumflex" horiz-adv-x="512" unicode="ŝ" d="M186 570h-121l122 146h136l119 -146h-124l-66 78zM253 -13q-133 0 -210 47v125q36 -24 91.5 -40.5t112.5 -16.5q86 0 86 42q0 20 -25 31q-13 6 -26 9l-37 9q-8 2 -21.5 5.5t-18.5 5.5q-89 24 -125.5 57.5t-36.5 97.5q0 71 58.5 112t161.5 41q114 0 187 -46v-120 q-89 52 -181 52q-80 0 -80 -40q0 -8 4.5 -14.5t9 -9.5t14.5 -9q6 -2 22 -6.5t21 -6.5l53 -11q83 -19 123 -56.5t40 -101.5q0 -70 -61 -113t-162 -43z"/>
<glyph glyph-name="Scedilla" horiz-adv-x="627" unicode="Ş" d="M326 -145h-163l100 133q-130 10 -220 73v150q44 -38 116 -66q73 -27 144 -27q59 0 97 21.5t38 59.5q0 41 -36 58q-15 9 -40 18l-24 8l-56 17l-52 17q-11 3 -47 17q-31 12 -45 21q-52 36 -66 61q-24 48 -24 98q0 93 71 146q71 54 193 54q123 0 229 -58v-140 q-107 66 -227 66q-119 0 -119 -69q0 -30 37 -48q22 -12 57 -21q47 -13 76 -22q87 -27 152 -73q70 -49 70 -146q0 -82 -54.5 -137t-147.5 -73z"/>
<glyph glyph-name="scedilla" horiz-adv-x="512" unicode="ş" d="M263 -145h-163l100 134q-100 9 -157 45v125q36 -24 91.5 -40.5t112.5 -16.5q86 0 86 42q0 20 -25 31q-13 6 -26 9l-37 9q-8 2 -21.5 5.5t-18.5 5.5q-89 24 -125.5 57.5t-36.5 97.5q0 71 58.5 112t161.5 41q114 0 187 -46v-120q-89 52 -181 52q-80 0 -80 -40 q0 -8 4.5 -14.5t9 -9.5t14.5 -9q6 -2 22 -6.5t21 -6.5l53 -11q83 -19 123 -56.5t40 -101.5q0 -57 -41 -97t-113 -53z"/>
<glyph glyph-name="Scaron" horiz-adv-x="627" unicode="Š" d="M372 907h122l-122 -146h-136l-119 146h123l67 -78zM309 -14q-158 0 -266 75v150q44 -38 116 -66q73 -27 144 -27q59 0 97 21.5t38 59.5q0 41 -36 58q-15 9 -40 18l-24 8l-56 17l-52 17q-11 3 -47 17q-31 12 -45 21q-52 36 -66 61q-24 48 -24 98q0 93 71 146q71 54 193 54 q123 0 229 -58v-140q-107 66 -227 66q-119 0 -119 -69q0 -30 37 -48q22 -12 57 -21q47 -13 76 -22q87 -27 152 -73q70 -49 70 -146q0 -101 -79 -159t-199 -58z"/>
<glyph glyph-name="scaron" horiz-adv-x="512" unicode="š" d="M327 716h122l-122 -146h-136l-120 146h124l66 -78zM253 -13q-133 0 -210 47v125q36 -24 91.5 -40.5t112.5 -16.5q86 0 86 42q0 20 -25 31q-13 6 -26 9l-37 9q-8 2 -21.5 5.5t-18.5 5.5q-89 24 -125.5 57.5t-36.5 97.5q0 71 58.5 112t161.5 41q114 0 187 -46v-120 q-89 52 -181 52q-80 0 -80 -40q0 -8 4.5 -14.5t9 -9.5t14.5 -9q6 -2 22 -6.5t21 -6.5l53 -11q83 -19 123 -56.5t40 -101.5q0 -70 -61 -113t-162 -43z"/>
<glyph glyph-name="uni0162" horiz-adv-x="647" unicode="Ţ" d="M318 -145h-163l108 145h-12v571h-221v129h587v-129h-222v-571h-15z"/>
<glyph glyph-name="uni0163" horiz-adv-x="441" unicode="ţ" d="M116 155v226h-98v118h98v137h141v-137h142v-118h-142v-198q0 -37 16 -53.5t52 -16.5q37 0 73 18v-117q-28 -17 -74 -23l-58 -136h-163l106 143q-93 32 -93 157z"/>
<glyph glyph-name="Tcaron" horiz-adv-x="647" unicode="Ť" d="M390 907h122l-122 -146h-136l-119 146h123l67 -78zM30 571v129h587v-129h-222v-571h-144v571h-221z"/>
<glyph glyph-name="tcaron" horiz-adv-x="620" unicode="ť" d="M550 496h-105l59 204h130zM123 381h-98v118h98v137h141v-137h142v-118h-142v-198q0 -37 16 -53.5t52 -16.5q37 0 73 18v-117q-43 -27 -119 -27q-163 0 -163 168v226z"/>
<glyph glyph-name="Tbar" horiz-adv-x="647" unicode="Ŧ" d="M395 0h-144v300h-123v118h123v153h-221v129h587v-129h-222v-153h121v-118h-121v-300z"/>
<glyph glyph-name="tbar" horiz-adv-x="441" unicode="ŧ" d="M116 213h-98v103h98v65h-98v118h98v137h141v-137h142v-118h-142v-65h142v-103h-142v-30q0 -37 16 -53.5t52 -16.5q37 0 73 18v-117q-44 -27 -119 -27q-163 0 -163 168v58z"/>
<glyph glyph-name="Utilde" horiz-adv-x="735" unicode="Ũ" d="M367 -14q-131 0 -215 81t-84 227v406h143v-411q0 -81 42.5 -124.5t113.5 -43.5q72 0 114.5 43.5t42.5 124.5v411h144v-406q0 -146 -85 -227q-84 -81 -216 -81zM263 765h-77q1 60 32.5 100t81.5 40q31 0 71 -22t61 -22q34 0 43 41h76q0 -55 -32 -99q-31 -42 -81 -42 q-32 0 -72 22q-41 23 -61 23q-34 0 -42 -41z"/>
<glyph glyph-name="utilde" horiz-adv-x="619" unicode="ũ" d="M200 576h-76q0 59 31 99q32 41 82 41q31 0 71 -22q41 -22 62 -22q34 0 42 41h77q-1 -55 -33 -99q-32 -42 -80 -42q-32 0 -72 22q-41 23 -61 23q-34 0 -43 -41zM550 499v-499h-141v60q-67 -73 -167 -73q-86 0 -134 54.5t-48 151.5v306h141v-277q0 -54 26.5 -80t68.5 -26 q32 0 63.5 18.5t49.5 46.5v318h141z"/>
<glyph glyph-name="Umacron" horiz-adv-x="735" unicode="Ū" d="M521 785h-306v95h306v-95zM367 -14q-131 0 -215 81t-84 227v406h143v-411q0 -81 42.5 -124.5t113.5 -43.5q72 0 114.5 43.5t42.5 124.5v411h144v-406q0 -146 -85 -227q-84 -81 -216 -81z"/>
<glyph glyph-name="umacron" horiz-adv-x="619" unicode="ū" d="M459 595h-307v95h307v-95zM550 499v-499h-141v60q-67 -73 -167 -73q-86 0 -134 54.5t-48 151.5v306h141v-277q0 -54 26.5 -80t68.5 -26q32 0 63.5 18.5t49.5 46.5v318h141z"/>
<glyph glyph-name="Ubreve" horiz-adv-x="735" unicode="Ŭ" d="M203 909h95q2 -33 21 -53t49 -20t49 20t21 53h95q-2 -75 -50 -119q-47 -44 -115 -44q-67 0 -116 44q-48 44 -49 119zM367 -14q-131 0 -215 81t-84 227v406h143v-411q0 -81 42.5 -124.5t113.5 -43.5q72 0 114.5 43.5t42.5 124.5v411h144v-406q0 -146 -85 -227 q-84 -81 -216 -81z"/>
<glyph glyph-name="ubreve" horiz-adv-x="619" unicode="ŭ" d="M306 561q-70 0 -116.5 44.5t-49.5 117.5h96q2 -33 21 -53t49 -20t48.5 20t20.5 53h95q-2 -74 -49 -118t-115 -44zM550 499v-499h-141v60q-67 -73 -167 -73q-86 0 -134 54.5t-48 151.5v306h141v-277q0 -54 26.5 -80t68.5 -26q32 0 63.5 18.5t49.5 46.5v318h141z"/>
<glyph glyph-name="Uring" horiz-adv-x="735" unicode="Ů" d="M367 -14q-131 0 -215 81t-84 227v406h143v-411q0 -81 42.5 -124.5t113.5 -43.5q72 0 114.5 43.5t42.5 124.5v411h144v-406q0 -146 -85 -227q-84 -81 -216 -81zM335 805q16 -13 33 -13q19 0 32 13q14 14 14 33q0 21 -14 32q-11 14 -32 14q-19 0 -33 -14q-13 -13 -13 -32 q0 -17 13 -33zM442 764q-31 -31 -74 -31t-74 31t-31 74t31 74t74 31t74 -31t31 -74t-31 -74z"/>
<glyph glyph-name="uring" horiz-adv-x="619" unicode="ů" d="M273 617q16 -13 33 -13q19 0 32 13q14 14 14 33q0 21 -14 32q-11 14 -32 14q-19 0 -33 -14q-13 -13 -13 -32q0 -17 13 -33zM380 576q-31 -31 -74 -31t-74 31t-31 74t31 74t74 31t74 -31t31 -74t-31 -74zM550 499v-499h-141v60q-67 -73 -167 -73q-86 0 -134 54.5 t-48 151.5v306h141v-277q0 -54 26.5 -80t68.5 -26q32 0 63.5 18.5t49.5 46.5v318h141z"/>
<glyph glyph-name="Uhungarumlaut" horiz-adv-x="735" unicode="Ű" d="M296 761h-123l95 146h172zM524 761h-123l95 146h172zM367 -14q-131 0 -215 81t-84 227v406h143v-411q0 -81 42.5 -124.5t113.5 -43.5q72 0 114.5 43.5t42.5 124.5v411h144v-406q0 -146 -85 -227q-84 -81 -216 -81z"/>
<glyph glyph-name="uhungarumlaut" horiz-adv-x="611" unicode="ű" d="M244 570h-123l95 146h172zM472 570h-123l95 146h172zM550 499v-499h-141v60q-67 -73 -167 -73q-86 0 -134 54.5t-48 151.5v306h141v-277q0 -54 26.5 -80t68.5 -26q32 0 63.5 18.5t49.5 46.5v318h141z"/>
<glyph glyph-name="Uogonek" horiz-adv-x="735" unicode="Ų" d="M487 -116q19 0 36 6v-83q-24 -9 -60 -9q-59 0 -93.5 29t-34.5 75q0 47 31 84q-131 2 -215 81q-83 81 -83 227v406h143v-411q0 -81 42.5 -124.5t113.5 -43.5q72 0 114.5 43.5t42.5 124.5v411h144v-406q0 -104 -41.5 -171.5t-125.5 -110.5q-68 -35 -68 -82q0 -22 14.5 -34 t39.5 -12z"/>
<glyph glyph-name="uogonek" horiz-adv-x="619" unicode="ų" d="M545 -202q-59 0 -93.5 29t-34.5 74q0 54 45 99h-53v60q-67 -73 -167 -73q-86 0 -134 54.5t-48 151.5v306h141v-277q0 -54 26.5 -80t68.5 -26q32 0 63.5 18.5t49.5 46.5v318h141v-499q-35 -35 -35 -70q0 -22 14.5 -34.5t39.5 -12.5q23 0 36 7v-84q-22 -8 -60 -8z"/>
<glyph glyph-name="Wcircumflex" horiz-adv-x="1075" unicode="Ŵ" d="M472 762h-122l122 145h136l119 -145h-123l-67 77zM383 -4h-127l-235 704h160l144 -472l158 474h112l159 -474l144 472h157l-236 -704h-127l-153 467z"/>
<glyph glyph-name="wcircumflex" horiz-adv-x="845" unicode="ŵ" d="M345 570h-121l122 146h136l119 -146h-124l-66 78zM308 -4h-120l-169 503h141l99 -297l98 299h113l101 -299l97 297h140l-171 -503h-122l-104 301z"/>
<glyph glyph-name="Ycircumflex" horiz-adv-x="696" unicode="Ŷ" d="M282 762h-122l122 145h136l119 -145h-123l-67 77zM420 0h-143v314l-271 386h170l174 -249l175 249h165l-270 -383v-317z"/>
<glyph glyph-name="ycircumflex" horiz-adv-x="579" unicode="ŷ" d="M219 570h-121l122 146h136l119 -146h-124l-66 78zM134 -206q-62 0 -100 20v123q35 -20 76 -20q38 0 63.5 23.5t47.5 76.5l-215 482h152l132 -328l125 328h149l-231 -551q-66 -154 -199 -154z"/>
<glyph glyph-name="Ydieresis" horiz-adv-x="696" unicode="Ÿ" d="M239 760q-30 0 -52 21.5t-22 52.5q0 30 22 51.5t52 21.5q31 0 52.5 -21t21.5 -52t-21.5 -52.5t-52.5 -21.5zM511 781q-21 -21 -52 -21q-32 0 -53 21t-21 53q0 31 21 52t53 21q31 0 52 -21t21 -52q0 -32 -21 -53zM420 0h-143v314l-271 386h170l174 -249l175 249h165 l-270 -383v-317z"/>
<glyph glyph-name="Zacute" horiz-adv-x="641" unicode="Ź" d="M354 761h-122l95 146h170zM608 0h-575v102l364 469h-347v129h542v-101l-363 -470h379v-129z"/>
<glyph glyph-name="zacute" horiz-adv-x="526" unicode="ź" d="M285 570h-122l95 146h170zM493 0h-461v93l252 288h-236v118h429v-96l-253 -285h269v-118z"/>
<glyph glyph-name="Zdotaccent" horiz-adv-x="641" unicode="Ż" d="M320 760q-30 0 -52 21.5t-22 52.5q0 30 22 51.5t52 21.5q31 0 52.5 -21.5t21.5 -51.5q0 -31 -21.5 -52.5t-52.5 -21.5zM608 0h-575v102l364 469h-347v129h542v-101l-363 -470h379v-129z"/>
<glyph glyph-name="zdotaccent" horiz-adv-x="526" unicode="ż" d="M263 569q-30 0 -52 21.5t-22 52.5q0 30 22 51.5t52 21.5q31 0 52 -21t21 -52t-21 -52.5t-52 -21.5zM493 0h-461v93l252 288h-236v118h429v-96l-253 -285h269v-118z"/>
<glyph glyph-name="Zcaron" horiz-adv-x="641" unicode="Ž" d="M387 907h122l-122 -146h-136l-119 146h123l67 -78zM608 0h-575v102l364 469h-347v129h542v-101l-363 -470h379v-129z"/>
<glyph glyph-name="zcaron" horiz-adv-x="526" unicode="ž" d="M329 716h122l-122 -146h-136l-120 146h124l66 -78zM493 0h-461v93l252 288h-236v118h429v-96l-253 -285h269v-118z"/>
<glyph glyph-name="longs" horiz-adv-x="410" unicode="ſ" d="M248 527v-527h-141v381h-89v118h89v47q0 76 44 121t125 45q73 0 127 -21v-114q-45 17 -86 17q-69 0 -69 -67z"/>
<glyph glyph-name="florin" horiz-adv-x="504" unicode="ƒ" d="M410 712q60 0 98 -19v-116q-33 13 -68 13q-95 0 -115 -116l-8 -47h133v-118h-152l-49 -308q-15 -95 -72 -151t-153 -56q-60 0 -98 19v116q33 -13 68 -13q95 0 115 116l44 277h-104v118h123l13 78q15 95 72 151t153 56z"/>
<glyph glyph-name="uni0218" horiz-adv-x="627" unicode="Ș" d="M307 -270h-105l59 204h130zM309 -14q-158 0 -266 75v150q44 -38 116 -66q73 -27 144 -27q59 0 97 21.5t38 59.5q0 41 -36 58q-15 9 -40 18l-24 8l-56 17l-52 17q-11 3 -47 17q-31 12 -45 21q-52 36 -66 61q-24 48 -24 98q0 93 71 146q71 54 193 54q123 0 229 -58v-140 q-107 66 -227 66q-119 0 -119 -69q0 -30 37 -48q22 -12 57 -21q47 -13 76 -22q87 -27 152 -73q70 -49 70 -146q0 -101 -79 -159t-199 -58z"/>
<glyph glyph-name="uni0219" horiz-adv-x="512" unicode="ș" d="M262 -270h-105l59 204h130zM253 -13q-133 0 -210 47v125q36 -24 91.5 -40.5t112.5 -16.5q86 0 86 42q0 20 -25 31q-13 6 -26 9l-37 9q-8 2 -21.5 5.5t-18.5 5.5q-89 24 -125.5 57.5t-36.5 97.5q0 71 58.5 112t161.5 41q114 0 187 -46v-120q-89 52 -181 52q-80 0 -80 -40 q0 -8 4.5 -14.5t9 -9.5t14.5 -9q6 -2 22 -6.5t21 -6.5l53 -11q83 -19 123 -56.5t40 -101.5q0 -70 -61 -113t-162 -43z"/>
<glyph glyph-name="uni021A" horiz-adv-x="647" unicode="Ț" d="M305 -270h-105l59 204h130zM30 571v129h587v-129h-222v-571h-144v571h-221z"/>
<glyph glyph-name="uni021B" horiz-adv-x="441" unicode="ț" d="M256 -270h-105l59 204h130zM116 155v226h-98v118h98v137h141v-137h142v-118h-142v-198q0 -37 16 -53.5t52 -16.5q37 0 73 18v-117q-44 -27 -119 -27q-163 0 -163 168z"/>
<glyph glyph-name="circumflex" horiz-adv-x="540" unicode="ˆ" d="M204 570h-121l122 146h136l119 -146h-124l-66 78z"/>
<glyph glyph-name="caron" horiz-adv-x="514" unicode="ˇ" d="M299 716h122l-122 -146h-136l-120 146h124l66 -78z"/>
<glyph glyph-name="uni02C9" horiz-adv-x="503" unicode="ˉ" d="M418 596h-333v94h333v-94z"/>
<glyph glyph-name="breve" horiz-adv-x="480" unicode="˘" d="M239 561q-70 0 -116.5 44.5t-49.5 117.5h96q2 -33 21 -53t49 -20t48.5 20t20.5 53h95q-2 -74 -49 -118t-115 -44z"/>
<glyph glyph-name="dotaccent" horiz-adv-x="568" unicode="˙" d="M285 569q-30 0 -52 21.5t-22 52.5q0 30 22 51.5t52 21.5q31 0 52 -21t21 -52t-21 -52.5t-52 -21.5z"/>
<glyph glyph-name="ring" horiz-adv-x="555" unicode="˚" d="M230 617q16 -13 33 -13q19 0 32 13q14 14 14 33q0 21 -14 32q-11 14 -32 14q-19 0 -33 -14q-13 -13 -13 -32q0 -17 13 -33zM337 576q-31 -31 -74 -31t-74 31t-31 74t31 74t74 31t74 -31t31 -74t-31 -74z"/>
<glyph glyph-name="ogonek" horiz-adv-x="496" unicode="˛" d="M302 -200q-59 0 -93.5 29t-34.5 74q0 54 45 99h88q-35 -35 -35 -70q0 -22 14.5 -34.5t39.5 -12.5q23 0 36 7v-84q-22 -8 -60 -8z"/>
<glyph glyph-name="tilde" horiz-adv-x="509" unicode="˜" d="M146 576h-76q0 59 31 99q32 41 82 41q31 0 71 -22q41 -22 62 -22q34 0 42 41h77q-1 -55 -33 -99q-32 -42 -80 -42q-32 0 -72 22q-41 23 -61 23q-34 0 -43 -41z"/>
<glyph glyph-name="hungarumlaut" horiz-adv-x="625" unicode="˝" d="M190 570h-123l95 146h172zM418 570h-123l95 146h172z"/>
<glyph glyph-name="acutecomb" horiz-adv-x="12" unicode="́" d="M-237 570h-122l95 146h170z"/>
<glyph glyph-name="uni037E" horiz-adv-x="285" unicode=";" d="M161 319q-37 0 -62 25.5t-25 62.5q0 36 25 61t62 25q36 0 61.5 -25t25.5 -61q0 -37 -25.5 -62.5t-61.5 -25.5zM122 -152h-116l86 303h151z"/>
<glyph glyph-name="uni0394" horiz-adv-x="770" unicode="Δ" d="M384 521l-166 -394h332zM754 0h-738l300 700h138z"/>
<glyph glyph-name="uni03A9" horiz-adv-x="792" unicode="Ω" d="M721 382q0 -73 -27.5 -142t-71.5 -111h98v-129h-266v109q53 38 86.5 104t33.5 144q0 97 -49 159q-49 63 -129 63t-129 -63q-49 -62 -49 -159q0 -78 33.5 -144t86.5 -104v-109h-266v129h98q-44 42 -71.5 111t-27.5 142q0 136 89 234t236 98t236 -98t89 -234z"/>
<glyph glyph-name="uni03BC" horiz-adv-x="628" unicode="μ" d="M418 181v318h141v-499h-141v60q-67 -73 -167 -73q-26 0 -41 4v-191h-141v699h141v-277q0 -54 26.5 -80t68.5 -26q32 0 63.5 18.5t49.5 46.5z"/>
<glyph glyph-name="pi" horiz-adv-x="700" unicode="π" d="M561 -11q-63 0 -101 39.5t-38 114.5v238h-158v-381h-141v381h-97v118h631v-118h-99v-197q0 -37 11.5 -53t38.5 -16q30 0 49 15v-116q-34 -25 -96 -25z"/>
<glyph glyph-name="uni0401" horiz-adv-x="640" unicode="Ё" d="M229 760q-30 0 -52 21.5t-22 52.5q0 30 22 51.5t52 21.5q31 0 52.5 -21t21.5 -52t-21.5 -52.5t-52.5 -21.5zM501 781q-21 -21 -52 -21q-32 0 -53 21t-21 53q0 31 21 52t53 21q31 0 52 -21t21 -52q0 -32 -21 -53zM602 0h-525v700h514v-129h-370v-135h298v-127h-298v-180 h381v-129z"/>
<glyph glyph-name="uni0402" horiz-adv-x="779" unicode="Ђ" d="M516 -8q-50 0 -85 11v117q30 -11 64 -11q49 0 79.5 26t30.5 68q0 45 -36.5 73t-98.5 28q-77 0 -140 -29v-275h-143v571h-157v129h522v-129h-222v-161q72 27 158 27q118 0 188 -64q71 -65 71 -166q0 -93 -63 -154q-61 -61 -168 -61z"/>
<glyph glyph-name="uni0403" horiz-adv-x="617" unicode="Ѓ" d="M360 761h-122l95 146h170zM221 0h-144v700h505v-129h-361v-571z"/>
<glyph glyph-name="uni0404" horiz-adv-x="672" unicode="Є" d="M434 -14q-159 0 -268 106t-109 258q0 153 108 258q107 106 267 106q101 0 185 -45v-141q-83 53 -187 53q-75 0 -134 -45q-58 -43 -76 -115h266v-121h-273q15 -80 77 -131q62 -50 143 -50q122 0 197 60v-143q-85 -50 -196 -50z"/>
<glyph glyph-name="uni0405" horiz-adv-x="629" unicode="Ѕ" d="M311 -14q-158 0 -266 75v150q44 -38 116 -66q73 -27 144 -27q59 0 97 21.5t38 59.5q0 41 -36 58q-15 9 -40 18l-24 8l-56 17l-52 17q-11 3 -47 17q-31 12 -45 21q-52 36 -66 61q-24 48 -24 98q0 93 71 146q71 54 193 54q123 0 229 -58v-140q-106 66 -227 66 q-119 0 -119 -69q0 -30 37 -48q22 -12 57 -21q48 -13 76 -22q87 -27 152 -73q70 -49 70 -146q0 -101 -79 -159t-199 -58z"/>
<glyph glyph-name="uni0406" horiz-adv-x="307" unicode="І" d="M225 0h-143v700h143v-700z"/>
<glyph glyph-name="uni0407" horiz-adv-x="307" unicode="Ї" d="M44 760q-30 0 -52 21.5t-22 52.5q0 30 22 51.5t52 21.5q31 0 52.5 -21t21.5 -52t-21.5 -52.5t-52.5 -21.5zM316 781q-21 -21 -52 -21q-32 0 -53 21t-21 53q0 31 21 52t53 21q31 0 52 -21t21 -52q0 -32 -21 -53zM225 0h-143v700h143v-700z"/>
<glyph glyph-name="uni0408" horiz-adv-x="510" unicode="Ј" d="M196 -14q-109 0 -168 41v142q60 -48 138 -48q68 0 100.5 31.5t32.5 101.5v446h143v-470q0 -67 -19.5 -116t-54.5 -76t-77.5 -39.5t-94.5 -12.5z"/>
<glyph glyph-name="uni0409" horiz-adv-x="1102" unicode="Љ" d="M649 349v-224h141q63 0 99 29.5t36 81.5q0 53 -36 83t-99 30h-141zM506 571h-207l-4 -142q-8 -247 -56 -339q-49 -93 -173 -93q-38 0 -59 9v130q22 -8 51 -8q56 0 76 77q20 79 23 290l3 205h489v-231h150q125 0 198 -66q73 -64 73 -169t-73 -169q-74 -65 -198 -65h-293 v571z"/>
<glyph glyph-name="uni040A" horiz-adv-x="1123" unicode="Њ" d="M670 349v-224h141q63 0 99 29.5t36 81.5q0 53 -36 83t-99 30h-141zM820 0h-293v325h-306v-325h-144v700h144v-248h306v248h143v-231h150q124 0 198 -66q73 -64 73 -169t-73 -169q-74 -65 -198 -65z"/>
<glyph glyph-name="uni040B" horiz-adv-x="801" unicode="Ћ" d="M330 274v-274h-143v571h-157v129h522v-129h-222v-160q73 26 158 26q124 0 191 -58.5t67 -170.5v-208h-143v184q0 64 -33 92t-101 28q-77 0 -139 -30z"/>
<glyph glyph-name="uni040C" horiz-adv-x="706" unicode="Ќ" d="M387 761h-122l95 146h170zM221 0h-144v700h144v-276l258 276h176l-297 -321l348 -379h-184l-301 323v-323z"/>
<glyph glyph-name="uni040E" horiz-adv-x="663" unicode="Ў" d="M148 909h106q0 -33 20.5 -53t55.5 -20t56 20t22 53h106q-1 -78 -52 -124.5t-131 -46.5t-131 46.5t-52 124.5zM177 -14q-72 0 -106 20v127q34 -19 81 -19q44 0 70 20q25 19 54 77l-265 489h159l177 -344l155 344h153l-258 -548q-78 -166 -220 -166z"/>
<glyph glyph-name="uni040F" horiz-adv-x="736" unicode="Џ" d="M435 -143h-136v143h-222v700h144v-571h293v571h144v-700h-223v-143z"/>
<glyph glyph-name="uni0410" horiz-adv-x="770" unicode="А" d="M384 524l-103 -243h205zM167 0h-151l300 704h138l300 -704h-153l-69 162h-296z"/>
<glyph glyph-name="uni0411" horiz-adv-x="687" unicode="Б" d="M221 339v-212h147q63 0 97 27t34 78t-34.5 79t-96.5 28h-147zM379 0h-302v700h508v-129h-364v-112h158q123 0 193 -64q72 -65 72 -166t-71 -166q-71 -63 -194 -63z"/>
<glyph glyph-name="uni0412" horiz-adv-x="716" unicode="В" d="M221 580v-154h162q45 0 70.5 20t25.5 56q0 37 -25.5 57.5t-70.5 20.5h-162zM221 307v-183h181q54 0 84 23.5t30 67.5t-30 68t-84 24h-181zM429 0h-352v700h329q97 0 154.5 -46t57.5 -129q0 -51 -25 -87t-63 -52q57 -12 100 -62q42 -49 42 -125q0 -89 -66 -144 q-65 -55 -177 -55z"/>
<glyph glyph-name="uni0413" horiz-adv-x="617" unicode="Г" d="M221 0h-144v700h505v-129h-361v-571z"/>
<glyph glyph-name="uni0414" horiz-adv-x="795" unicode="Д" d="M246 129h281v442h-205q0 -145 -16.5 -249t-59.5 -193zM153 -143h-135v272h69q47 72 70 180q22 104 22 280v111h492v-571h96v-272h-135v143h-479v-143z"/>
<glyph glyph-name="uni0415" horiz-adv-x="640" unicode="Е" d="M602 0h-525v700h514v-129h-370v-135h298v-127h-298v-180h381v-129z"/>
<glyph glyph-name="uni0416" horiz-adv-x="1031" unicode="Ж" d="M193 0h-187l296 363l-266 337h177l230 -295v295h144v-295l231 295h177l-267 -337l297 -363h-188l-250 309v-309h-144v309z"/>
<glyph glyph-name="uni0417" horiz-adv-x="629" unicode="З" d="M288 -14q-152 0 -253 65v140q46 -32 110 -51.5t123 -19.5q80 0 124.5 27t44.5 75q0 42 -39.5 64.5t-109.5 22.5h-88v121h105q113 0 113 77q0 35 -35 54.5t-96 19.5q-121 0 -224 -52v133q97 52 231 52q122 0 193 -55q73 -55 73 -144q0 -50 -27.5 -86.5t-67.5 -53.5 q54 -20 87 -63.5t33 -104.5q0 -93 -80 -158q-79 -63 -217 -63z"/>
<glyph glyph-name="uni0418" horiz-adv-x="762" unicode="И" d="M198 0h-121v700h144v-456l339 456h124v-700h-143v459z"/>
<glyph glyph-name="uni0419" horiz-adv-x="762" unicode="Й" d="M197 909h106q0 -33 20.5 -53t55.5 -20t56 20t22 53h106q-1 -78 -52 -124.5t-131 -46.5t-131 46.5t-52 124.5zM198 0h-121v700h144v-456l339 456h124v-700h-143v459z"/>
<glyph glyph-name="uni041A" horiz-adv-x="706" unicode="К" d="M221 0h-144v700h144v-276l258 276h176l-297 -321l348 -379h-184l-301 323v-323z"/>
<glyph glyph-name="uni041B" horiz-adv-x="732" unicode="Л" d="M7 6v130q22 -8 51 -8q56 0 76 77q20 79 23 290l3 205h494v-700h-143v571h-212l-4 -142q-8 -247 -56 -339q-49 -93 -173 -93q-38 0 -59 9z"/>
<glyph glyph-name="uni041C" horiz-adv-x="846" unicode="М" d="M221 0h-144v700h143l203 -290l203 290h142v-700h-142v479l-161 -225h-80l-164 225v-479z"/>
<glyph glyph-name="uni041D" horiz-adv-x="758" unicode="Н" d="M221 0h-144v700h144v-262h316v262h143v-700h-143v307h-316v-307z"/>
<glyph glyph-name="uni041E" horiz-adv-x="832" unicode="О" d="M53 350q0 154 103 258q103 106 260 106q156 0 259 -106q104 -106 104 -258q0 -151 -104 -258q-103 -106 -259 -106q-157 0 -260 106t-103 258zM261 186q62 -65 155 -65q92 0 154 65t62 164t-62 164t-154 65q-93 0 -155 -65q-61 -64 -61 -164t61 -164z"/>
<glyph glyph-name="uni041F" horiz-adv-x="741" unicode="П" d="M221 0h-144v700h586v-700h-143v571h-299v-571z"/>
<glyph glyph-name="uni0420" horiz-adv-x="659" unicode="Р" d="M221 574v-174h152q52 0 81 22.5t29 64.5t-29 64.5t-81 22.5h-152zM221 0h-144v700h306q113 0 178 -59q66 -58 66 -152q0 -95 -66 -153q-65 -59 -178 -59h-162v-277z"/>
<glyph glyph-name="uni0421" horiz-adv-x="677" unicode="С" d="M432 -14q-163 0 -271 102q-108 104 -108 262q0 160 107 262q108 102 272 102q102 0 185 -44v-145q-81 54 -184 54q-99 0 -167 -65q-66 -64 -66 -164t68 -165q67 -64 171 -64q115 0 192 61v-145q-85 -51 -199 -51z"/>
<glyph glyph-name="uni0422" horiz-adv-x="647" unicode="Т" d="M30 571v129h587v-129h-222v-571h-144v571h-221z"/>
<glyph glyph-name="uni0423" horiz-adv-x="663" unicode="У" d="M177 -14q-72 0 -106 20v127q34 -19 81 -19q44 0 70 20q25 19 54 77l-265 489h159l177 -344l155 344h153l-258 -548q-78 -166 -220 -166z"/>
<glyph glyph-name="uni0424" horiz-adv-x="927" unicode="Ф" d="M536 532v-352q90 2 140 49.5t50 126.5q0 80 -50 127.5t-140 48.5zM391 180v352q-90 -1 -140 -48.5t-50 -127.5q0 -79 50 -126.5t140 -49.5zM536 -27h-145v77q-162 6 -250 95t-88 211q0 123 88 211q89 89 250 95v64h145v-64q161 -6 250 -95q88 -88 88 -211 q0 -122 -88 -211t-250 -95v-77z"/>
<glyph glyph-name="uni0425" horiz-adv-x="725" unicode="Х" d="M48 700h168l147 -209l149 209h166l-231 -322l272 -378h-168l-190 261l-189 -261h-166l273 377z"/>
<glyph glyph-name="uni0426" horiz-adv-x="783" unicode="Ц" d="M755 -143h-136v143h-542v700h144v-571h293v571h144v-571h97v-272z"/>
<glyph glyph-name="uni0427" horiz-adv-x="692" unicode="Ч" d="M614 0h-143v273q-74 -25 -158 -25q-125 0 -192 58t-67 170v224h144v-200q0 -64 32.5 -91.5t101.5 -27.5q78 0 139 30v289h143v-700z"/>
<glyph glyph-name="uni0428" horiz-adv-x="1033" unicode="Ш" d="M955 0h-878v700h144v-571h223v571h143v-571h224v571h144v-700z"/>
<glyph glyph-name="uni0429" horiz-adv-x="1080" unicode="Щ" d="M1052 -143h-136v143h-839v700h144v-571h224v571h143v-571h224v571h143v-571h97v-272z"/>
<glyph glyph-name="uni042A" horiz-adv-x="800" unicode="Ъ" d="M343 347v-220h146q63 0 98.5 28.5t35.5 80.5q0 53 -35.5 82t-98.5 29h-146zM497 0h-298v571h-179v129h323v-231h154q125 0 198 -66q73 -64 73 -169t-73 -169q-74 -65 -198 -65z"/>
<glyph glyph-name="uni042B" horiz-adv-x="928" unicode="Ы" d="M221 347v-220h122q63 0 98.5 28.5t35.5 80.5q0 53 -35.5 82t-98.5 29h-122zM351 0h-274v700h144v-231h130q125 0 198 -66q73 -64 73 -169t-73 -169q-74 -65 -198 -65zM850 0h-144v700h144v-700z"/>
<glyph glyph-name="uni042C" horiz-adv-x="678" unicode="Ь" d="M221 347v-220h146q63 0 98.5 28.5t35.5 80.5q0 53 -35.5 82t-98.5 29h-146zM375 0h-298v700h144v-231h154q125 0 198 -66q73 -64 73 -169t-73 -169q-74 -65 -198 -65z"/>
<glyph glyph-name="uni042D" horiz-adv-x="672" unicode="Э" d="M242 -14q-111 0 -196 50v143q75 -60 197 -60q81 0 143 50q62 51 77 131h-273v121h266q-18 72 -76 115q-58 45 -134 45q-104 0 -187 -53v141q84 45 185 45q160 0 267 -106q108 -105 108 -258q0 -152 -109 -258t-268 -106z"/>
<glyph glyph-name="uni042E" horiz-adv-x="1050" unicode="Ю" d="M658 121q85 0 139 62q54 63 54 167t-54 166q-54 63 -139 63q-84 0 -138 -63q-54 -62 -54 -166q0 -103 54 -166t138 -63zM658 714q146 0 242 -106q97 -104 97 -258q0 -153 -97 -259q-96 -105 -242 -105q-131 0 -221 84q-89 86 -113 217h-101v-287h-146v700h146v-282h102 q21 128 113 212t220 84z"/>
<glyph glyph-name="uni042F" horiz-adv-x="733" unicode="Я" d="M339 404h172v170h-172q-49 0 -76.5 -22.5t-27.5 -62.5q0 -41 27.5 -63t76.5 -22zM183 0h-166l219 299q-69 21 -107.5 72.5t-38.5 121.5q0 92 65 149q64 58 176 58h324v-700h-144v283h-122z"/>
<glyph glyph-name="uni0430" horiz-adv-x="602" unicode="а" d="M369 147v50q-44 29 -104 29q-45 0 -71.5 -17t-26.5 -48q0 -32 24 -48.5t65 -16.5q74 0 113 51zM544 109q18 0 29 6v-103q-27 -21 -76 -21q-85 0 -113 64q-66 -68 -172 -68q-82 0 -133 46t-51 121q0 80 58 122t139 42q85 0 144 -31v15q0 94 -132 94q-81 0 -151 -42v118 q76 40 185 40q108 0 172 -52q66 -52 66 -144v-169q0 -38 35 -38z"/>
<glyph glyph-name="uni0431" horiz-adv-x="609" unicode="б" d="M312 106q54 0 88.5 36t34.5 92q0 53 -33 84.5t-85 31.5q-41 0 -80 -21.5t-60 -54.5q1 -81 36.5 -124.5t98.5 -43.5zM353 467q98 0 159 -61q62 -62 62 -162q0 -113 -75 -185q-73 -72 -186 -72q-133 0 -203 88q-71 89 -71 237q0 101 28 169.5t90 113.5q64 47 146 74 q81 28 213 49v-131l-53 -9l-52 -9q-21 -4 -47 -10q-39 -8 -85 -25q-32 -12 -65 -42q-41 -36 -47 -110q67 85 186 85z"/>
<glyph glyph-name="uni0432" horiz-adv-x="585" unicode="в" d="M208 402v-102h98q67 0 67 51t-67 51h-98zM208 211v-112h120q73 0 73 56t-73 56h-120zM363 0h-294v499h282q76 0 118 -35.5t42 -92.5q0 -75 -61 -106q95 -33 95 -128q0 -64 -48 -100.5t-134 -36.5z"/>
<glyph glyph-name="uni0433" horiz-adv-x="484" unicode="г" d="M210 0h-141v499h396v-118h-255v-381z"/>
<glyph glyph-name="uni0434" horiz-adv-x="676" unicode="д" d="M228 118h200v263h-156q0 -155 -44 -263zM155 -127h-135v245h64q57 89 60 284l2 97h420v-381h82v-245h-133v127h-360v-127z"/>
<glyph glyph-name="uni0435" horiz-adv-x="573" unicode="е" d="M176 301h219q-2 43 -30.5 71.5t-74.5 28.5q-47 0 -78 -27.5t-36 -72.5zM313 -13q-117 0 -197 72t-80 191q0 111 72 186q72 76 188 76q108 0 173 -77t65 -187v-37h-358q11 -50 55.5 -77t111.5 -27q83 0 160 44v-113q-67 -51 -190 -51z"/>
<glyph glyph-name="uni0436" horiz-adv-x="831" unicode="ж" d="M180 0h-167l215 266l-193 233h159l152 -188v188h139v-188l151 188h159l-193 -233l216 -266h-168l-165 213v-213h-139v213z"/>
<glyph glyph-name="uni0437" horiz-adv-x="532" unicode="з" d="M244 -13q-116 0 -194 38v114q77 -40 174 -40q57 0 88.5 15t31.5 43q0 49 -88 49h-98v102h98q72 0 72 44q0 48 -102 48q-93 0 -162 -34v110q77 36 193 36q91 0 153 -39t62 -98q0 -83 -72 -107q41 -13 66.5 -43.5t25.5 -75.5q0 -71 -69 -117q-67 -45 -179 -45z"/>
<glyph glyph-name="uni0438" horiz-adv-x="635" unicode="и" d="M201 0h-132v499h139v-294l226 294h132v-499h-139v294z"/>
<glyph glyph-name="uni0439" horiz-adv-x="635" unicode="й" d="M317 554q-80 0 -130 46.5t-51 124.5h106q0 -33 20 -53t54 -20t53.5 20t20.5 53h107q-1 -79 -52 -125q-50 -46 -128 -46zM201 0h-132v499h139v-294l226 294h132v-499h-139v294z"/>
<glyph glyph-name="uni043A" horiz-adv-x="599" unicode="к" d="M210 0h-141v499h141v-182l172 182h173l-217 -225l251 -274h-182l-197 215v-215z"/>
<glyph glyph-name="uni043B" horiz-adv-x="633" unicode="л" d="M423 381h-154l-2 -70q-5 -111 -23 -175q-19 -67 -59.5 -102.5t-111.5 -37.5q-37 0 -53 9v115q11 -4 29 -4q49 0 65 64q15 57 16 172l3 147h431v-499h-141v381z"/>
<glyph glyph-name="uni043C" horiz-adv-x="707" unicode="м" d="M202 0h-133v499h139l145 -186l146 186h139v-499h-133v308l-124 -155h-56l-123 155v-308z"/>
<glyph glyph-name="uni043D" horiz-adv-x="625" unicode="н" d="M210 0h-141v499h141v-185h205v185h141v-499h-141v196h-205v-196z"/>
<glyph glyph-name="uni043E" horiz-adv-x="625" unicode="о" d="M36 250q0 111 78 186q77 76 199 76t199 -76q78 -76 78 -186q0 -112 -78 -188q-78 -75 -199 -75t-199 75q-78 76 -78 188zM214 150q39 -40 99 -40t99 40q39 41 39 100q0 60 -39 99q-39 40 -99 40t-99 -40q-39 -39 -39 -99t39 -100z"/>
<glyph glyph-name="uni043F" horiz-adv-x="619" unicode="п" d="M210 0h-141v499h481v-499h-141v381h-199v-381z"/>
<glyph glyph-name="uni0440" horiz-adv-x="644" unicode="р" d="M334 389q-40 0 -73 -21t-51 -54v-130q18 -33 51 -53.5t73 -20.5q60 0 97 40q38 41 38 99q0 59 -38 100q-37 40 -97 40zM374 512q102 0 168 -76q67 -74 67 -187q0 -111 -67 -187q-66 -75 -168 -75q-105 0 -164 74v-261h-141v699h141v-61q56 74 164 74z"/>
<glyph glyph-name="uni0441" horiz-adv-x="516" unicode="с" d="M307 -13q-111 0 -191 72q-80 74 -80 192t80 189q81 72 193 72q82 0 148 -33v-120q-65 30 -127 30q-66 0 -111 -39q-44 -38 -44 -100t45 -101t110 -39q77 0 135 34v-120q-70 -37 -158 -37z"/>
<glyph glyph-name="uni0442" horiz-adv-x="484" unicode="т" d="M312 0h-141v381h-156v118h455v-118h-158v-381z"/>
<glyph glyph-name="uni0443" horiz-adv-x="579" unicode="у" d="M134 -206q-62 0 -100 20v123q35 -20 76 -20q38 0 63.5 23.5t47.5 76.5l-215 482h152l132 -328l125 328h149l-231 -551q-66 -154 -199 -154z"/>
<glyph glyph-name="uni0444" horiz-adv-x="759" unicode="ф" d="M450 391v-283q64 3 101.5 41.5t37.5 100.5t-37.5 99.5t-101.5 41.5zM311 108v283q-64 -4 -101.5 -41.5t-37.5 -99.5t37.5 -100.5t101.5 -41.5zM311 505v195h139v-195q128 -6 201 -77q73 -70 73 -178q0 -110 -71.5 -177.5t-202.5 -77.5v-195h-139v195q-128 4 -203 76 q-72 72 -72 179q0 109 72.5 177t202.5 78z"/>
<glyph glyph-name="uni0445" horiz-adv-x="593" unicode="х" d="M34 499h158l100 -140l101 140h156l-175 -238l190 -261h-158l-116 160l-117 -160h-156l191 260z"/>
<glyph glyph-name="uni0446" horiz-adv-x="662" unicode="ц" d="M634 -127h-136v127h-429v499h141v-381h201v381h141v-381h82v-245z"/>
<glyph glyph-name="uni0447" horiz-adv-x="577" unicode="ч" d="M508 0h-141v164q-49 -17 -109 -17q-213 0 -213 204v148h141v-134q0 -54 21.5 -76.5t72.5 -22.5q53 0 87 19v214h141v-499z"/>
<glyph glyph-name="uni0448" horiz-adv-x="860" unicode="ш" d="M791 0h-722v499h139v-381h152v381h138v-381h155v381h138v-499z"/>
<glyph glyph-name="uni0449" horiz-adv-x="901" unicode="щ" d="M873 -127h-127v127h-677v499h139v-381h152v381h138v-381h155v381h138v-381h82v-245z"/>
<glyph glyph-name="uni044A" horiz-adv-x="655" unicode="ъ" d="M295 248v-139h98q41 0 64 18t23 51t-23 51.5t-64 18.5h-98zM422 0h-268v381h-140v118h281v-146h120q94 0 150 -48t56 -128q0 -76 -52 -127q-53 -50 -147 -50z"/>
<glyph glyph-name="uni044B" horiz-adv-x="786" unicode="ы" d="M210 248v-139h80q41 0 64 18t23 51t-23 51.5t-64 18.5h-80zM319 0h-250v499h141v-146h102q94 0 150 -48t56 -128q0 -76 -52 -127q-53 -50 -147 -50zM717 0h-139v499h139v-499z"/>
<glyph glyph-name="uni044C" horiz-adv-x="570" unicode="ь" d="M210 248v-139h98q41 0 64 18t23 51t-23 51.5t-64 18.5h-98zM337 0h-268v499h141v-146h120q94 0 150 -48t56 -128q0 -76 -52 -127q-53 -50 -147 -50z"/>
<glyph glyph-name="uni044D" horiz-adv-x="511" unicode="э" d="M205 -13q-91 0 -156 36v115q64 -34 134 -34q57 0 98.5 27t51.5 71h-184v98h183q-11 44 -51.5 70t-97.5 26q-64 0 -124 -29v113q66 32 146 32q111 0 191 -72q80 -71 80 -189q0 -120 -80 -192t-191 -72z"/>
<glyph glyph-name="uni044E" horiz-adv-x="837" unicode="ю" d="M543 110q53 0 86.5 40t33.5 100t-33.5 99.5t-86.5 39.5q-54 0 -88 -39.5t-34 -99.5q0 -59 33 -100q34 -40 89 -40zM543 -13q-99 0 -169 59q-67 58 -84 151h-80v-197h-141v499h141v-184h83q20 87 86 142q67 55 164 55q114 0 186 -76q73 -74 73 -186t-73 -188 q-72 -75 -186 -75z"/>
<glyph glyph-name="uni044F" horiz-adv-x="593" unicode="я" d="M279 267h104v122h-104q-35 0 -55 -16t-20 -45t20 -45t55 -16zM183 0h-158l134 190q-99 36 -99 147q0 73 50.5 117.5t145.5 44.5h268v-499h-141v165h-85z"/>
<glyph glyph-name="uni0451" horiz-adv-x="573" unicode="ё" d="M178 569q-30 0 -52 21.5t-22 52.5q0 30 22 51.5t52 21.5q31 0 52.5 -21t21.5 -52t-21.5 -52.5t-52.5 -21.5zM450 590q-21 -21 -52 -21q-32 0 -53 21t-21 53q0 31 21 52t53 21q31 0 52 -21q22 -22 22 -52q0 -31 -22 -53zM176 301h219q-2 43 -30.5 71.5t-74.5 28.5 q-47 0 -78 -27.5t-36 -72.5zM313 -13q-117 0 -197 72t-80 191q0 111 72 186q72 76 188 76q108 0 173 -77t65 -187v-37h-358q11 -50 55.5 -77t111.5 -27q83 0 160 44v-113q-67 -51 -190 -51z"/>
<glyph glyph-name="uni0452" horiz-adv-x="665" unicode="ђ" d="M425 -206q-74 0 -111 22v120q35 -19 75 -19q76 0 76 79v210q0 54 -26.5 80t-68.5 26q-32 0 -63.5 -18.5t-49.5 -46.5v-247h-141v518h-102v93h102v89h141v-89h160v-93h-160v-151q68 74 167 74q86 0 134 -54.5t48 -151.5v-253q0 -89 -48.5 -138.5t-132.5 -49.5z"/>
<glyph glyph-name="uni0453" horiz-adv-x="484" unicode="ѓ" d="M288 570h-122l95 146h170zM210 0h-141v499h396v-118h-255v-381z"/>
<glyph glyph-name="uni0454" horiz-adv-x="514" unicode="є" d="M311 -13q-111 0 -191 72t-80 192q0 118 80 189q80 72 191 72q80 0 146 -32v-113q-60 29 -124 29q-57 0 -97.5 -26t-51.5 -70h183v-98h-184q10 -44 51.5 -71t98.5 -27q70 0 134 34v-115q-65 -36 -156 -36z"/>
<glyph glyph-name="uni0455" horiz-adv-x="490" unicode="ѕ" d="M246 -13q-133 0 -210 47v125q36 -24 91.5 -40.5t112.5 -16.5q86 0 86 42q0 20 -25 31q-13 6 -26 9l-37 9q-8 2 -21.5 5.5t-18.5 5.5q-89 24 -125.5 57.5t-36.5 97.5q0 71 58.5 112t161.5 41q114 0 187 -46v-120q-89 52 -181 52q-80 0 -80 -40q0 -8 4.5 -14.5t9 -9.5 t14.5 -9q6 -2 22 -6.5t21 -6.5l53 -11q83 -19 123 -56.5t40 -101.5q0 -70 -61 -113t-162 -43z"/>
<glyph glyph-name="uni0456" horiz-adv-x="293" unicode="і" d="M62 631q0 36 24.5 60.5t59.5 24.5t59.5 -24.5t24.5 -60.5q0 -35 -24.5 -59.5t-59.5 -24.5t-59.5 24.5t-24.5 59.5zM217 0h-141v499h141v-499z"/>
<glyph glyph-name="uni0457" horiz-adv-x="266" unicode="ї" d="M204 0h-141v499h141v-499zM23 569q-30 0 -52 21.5t-22 52.5q0 30 22 51.5t52 21.5q31 0 52.5 -21t21.5 -52t-21.5 -52.5t-52.5 -21.5zM295 590q-21 -21 -52 -21q-32 0 -53 21t-21 53q0 31 21 52t53 21q31 0 52 -21q22 -22 22 -52q0 -31 -22 -53z"/>
<glyph glyph-name="uni0458" horiz-adv-x="293" unicode="ј" d="M61 631q0 36 24.5 60.5t59.5 24.5t60 -24.5t25 -60.5q0 -35 -25 -59.5t-60 -24.5t-59.5 24.5t-24.5 59.5zM36 -206q-74 0 -111 22v120q35 -19 75 -19q76 0 76 79v503h141v-517q0 -89 -48.5 -138.5t-132.5 -49.5z"/>
<glyph glyph-name="uni0459" horiz-adv-x="919" unicode="љ" d="M559 248v-139h98q41 0 64 18t23 51t-23 51.5t-64 18.5h-98zM686 0h-268v381h-149q-6 -157 -16 -209q-31 -160 -153 -174q-18 -2 -27 -2q-37 0 -53 9v115q11 -4 29 -4q53 0 68 69q15 61 15 193l1 121h426v-146h120q94 0 150 -48t56 -128q0 -76 -52 -127q-53 -50 -147 -50z "/>
<glyph glyph-name="uni045A" horiz-adv-x="909" unicode="њ" d="M549 248v-139h98q41 0 64 18t23 51t-23 51.5t-64 18.5h-98zM676 0h-268v213h-198v-213h-141v499h141v-173h198v173h141v-146h120q94 0 150 -48t56 -128q0 -76 -52 -127q-53 -50 -147 -50z"/>
<glyph glyph-name="uni045B" horiz-adv-x="665" unicode="ћ" d="M257 247v-247h-141v518h-102v93h102v89h141v-89h160v-93h-160v-151q68 74 167 74q86 0 134 -54.5t48 -151.5v-235h-141v206q0 54 -26.5 80t-68.5 26q-32 0 -63.5 -18.5t-49.5 -46.5z"/>
<glyph glyph-name="uni045C" horiz-adv-x="599" unicode="ќ" d="M350 570h-122l95 146h170zM210 0h-141v499h141v-182l172 182h173l-217 -225l251 -274h-182l-197 215v-215z"/>
<glyph glyph-name="uni045E" horiz-adv-x="579" unicode="ў" d="M285 554q-80 0 -130 46.5t-51 124.5h106q0 -33 20 -53t54 -20t53.5 20t20.5 53h107q-1 -79 -52 -125q-50 -46 -128 -46zM134 -206q-62 0 -100 20v123q35 -20 76 -20q38 0 63.5 23.5t47.5 76.5l-215 482h152l132 -328l125 328h149l-231 -551q-66 -154 -199 -154z"/>
<glyph glyph-name="uni045F" horiz-adv-x="621" unicode="џ" d="M379 -127h-137v127h-173v499h141v-381h201v381h141v-499h-173v-127z"/>
<glyph glyph-name="uni0490" horiz-adv-x="615" unicode="Ґ" d="M221 0h-144v700h373v139h130v-268h-359v-571z"/>
<glyph glyph-name="uni0491" horiz-adv-x="484" unicode="ґ" d="M210 0h-141v499h267v124h129v-242h-255v-381z"/>
<glyph glyph-name="uni1E02" horiz-adv-x="716" unicode="Ḃ" d="M335 760q-30 0 -52 21.5t-22 52.5q0 30 22 51.5t52 21.5q31 0 52.5 -21.5t21.5 -51.5q0 -31 -21.5 -52.5t-52.5 -21.5zM221 580v-154h162q45 0 70.5 20t25.5 56q0 37 -25.5 57.5t-70.5 20.5h-162zM221 307v-183h181q54 0 84 23.5t30 67.5t-30 68t-84 24h-181zM429 0h-352 v700h329q97 0 154.5 -46t57.5 -129q0 -51 -25 -87t-63 -52q57 -12 100 -62q42 -49 42 -125q0 -89 -66 -144q-65 -55 -177 -55z"/>
<glyph glyph-name="uni1E03" horiz-adv-x="644" unicode="ḃ" d="M332 760q-30 0 -52 21.5t-22 52.5q0 30 22 51.5t52 21.5q31 0 52.5 -21.5t21.5 -51.5q0 -31 -21.5 -52.5t-52.5 -21.5zM334 110q60 0 97 40q38 41 38 100q0 58 -38 99q-37 40 -97 40q-40 0 -73 -20.5t-51 -53.5v-130q18 -33 51 -54t73 -21zM374 -13q-108 0 -164 74v-61 h-141v700h141v-262q59 74 164 74q102 0 168 -76q67 -74 67 -186t-67 -188q-66 -75 -168 -75z"/>
<glyph glyph-name="uni1E0A" horiz-adv-x="776" unicode="Ḋ" d="M355 760q-30 0 -52 21.5t-22 52.5q0 30 22 51.5t52 21.5q31 0 52.5 -21.5t21.5 -51.5q0 -31 -21.5 -52.5t-52.5 -21.5zM221 571v-442h106q117 0 182.5 58.5t65.5 162.5t-65.5 162.5t-182.5 58.5h-106zM339 0h-262v700h262q170 0 277 -98t107 -252q0 -155 -107 -253 q-106 -97 -277 -97z"/>
<glyph glyph-name="uni1E0B" horiz-adv-x="645" unicode="ḋ" d="M319 760q-30 0 -52 21.5t-22 52.5q0 30 22 51.5t52 21.5q31 0 52.5 -21.5t21.5 -51.5q0 -31 -21.5 -52.5t-52.5 -21.5zM311 110q40 0 73 21t51 54v130q-18 33 -51 53.5t-73 20.5q-60 0 -97 -40q-38 -41 -38 -99q0 -59 38 -100q37 -40 97 -40zM271 -13q-101 0 -169 75 q-66 76 -66 188q0 111 66 186q67 76 169 76q105 0 164 -74v262h141v-700h-141v61q-56 -74 -164 -74z"/>
<glyph glyph-name="uni1E1E" horiz-adv-x="628" unicode="Ḟ" d="M333 760q-30 0 -52 21.5t-22 52.5q0 30 22 51.5t52 21.5q31 0 52.5 -21.5t21.5 -51.5q0 -31 -21.5 -52.5t-52.5 -21.5zM221 0h-144v700h513v-129h-369v-142h285v-127h-285v-302z"/>
<glyph glyph-name="uni1E1F" horiz-adv-x="425" unicode="ḟ" d="M256 760q-30 0 -52 21.5t-22 52.5q0 30 22 51.5t52 21.5q31 0 52.5 -21.5t21.5 -51.5q0 -31 -21.5 -52.5t-52.5 -21.5zM107 0v381h-89v118h89v47q0 76 44 121t125 45q73 0 127 -21v-114q-45 17 -86 17q-69 0 -69 -67v-28h155v-118h-155v-381h-141z"/>
<glyph glyph-name="uni1E40" horiz-adv-x="846" unicode="Ṁ" d="M422 760q-30 0 -52 21.5t-22 52.5q0 30 22 51.5t52 21.5q31 0 52.5 -21.5t21.5 -51.5q0 -31 -21.5 -52.5t-52.5 -21.5zM221 0h-144v700h143l203 -290l203 290h142v-700h-142v479l-161 -225h-80l-164 225v-479z"/>
<glyph glyph-name="uni1E41" horiz-adv-x="926" unicode="ṁ" d="M468 569q-30 0 -52 21.5t-22 52.5q0 30 22 51.5t52 21.5q31 0 52 -21t21 -52t-21 -52.5t-52 -21.5zM210 0h-141v499h141v-61q56 74 152 74q54 0 96.5 -24t58.5 -61q25 38 72 61.5t100 23.5q82 0 130 -52t48 -148v-312h-141v280q0 103 -83 103q-32 0 -61 -19t-43 -49v-315 h-141v280q0 103 -83 103q-30 0 -60 -19t-45 -47v-317z"/>
<glyph glyph-name="uni1E56" horiz-adv-x="659" unicode="Ṗ" d="M331 760q-30 0 -52 21.5t-22 52.5q0 30 22 51.5t52 21.5q31 0 52.5 -21.5t21.5 -51.5q0 -31 -21.5 -52.5t-52.5 -21.5zM221 574v-174h152q52 0 81 22.5t29 64.5t-29 64.5t-81 22.5h-152zM221 0h-144v700h306q113 0 178 -59q66 -58 66 -152q0 -95 -66 -153 q-65 -59 -178 -59h-162v-277z"/>
<glyph glyph-name="uni1E57" horiz-adv-x="644" unicode="ṗ" d="M335 569q-30 0 -52 21.5t-22 52.5q0 30 22 51.5t52 21.5q31 0 52 -21t21 -52t-21 -52.5t-52 -21.5zM334 389q-40 0 -73 -21t-51 -54v-130q18 -33 51 -53.5t73 -20.5q60 0 97 40q38 41 38 99q0 59 -38 100q-37 40 -97 40zM374 512q102 0 168 -76q67 -74 67 -187 q0 -111 -67 -187q-66 -75 -168 -75q-105 0 -164 74v-261h-141v699h141v-61q56 74 164 74z"/>
<glyph glyph-name="uni1E60" horiz-adv-x="627" unicode="Ṡ" d="M304 760q-30 0 -52 21.5t-22 52.5q0 30 22 51.5t52 21.5q31 0 52.5 -21.5t21.5 -51.5q0 -31 -21.5 -52.5t-52.5 -21.5zM309 -14q-158 0 -266 75v150q44 -38 116 -66q73 -27 144 -27q59 0 97 21.5t38 59.5q0 41 -36 58q-15 9 -40 18l-24 8l-56 17l-52 17q-11 3 -47 17 q-31 12 -45 21q-52 36 -66 61q-24 48 -24 98q0 93 71 146q71 54 193 54q123 0 229 -58v-140q-107 66 -227 66q-119 0 -119 -69q0 -30 37 -48q22 -12 57 -21q47 -13 76 -22q87 -27 152 -73q70 -49 70 -146q0 -101 -79 -159t-199 -58z"/>
<glyph glyph-name="uni1E61" horiz-adv-x="512" unicode="ṡ" d="M248 569q-30 0 -52 21.5t-22 52.5q0 30 22 51.5t52 21.5q31 0 52 -21t21 -52t-21 -52.5t-52 -21.5zM253 -13q-133 0 -210 47v125q36 -24 91.5 -40.5t112.5 -16.5q86 0 86 42q0 20 -25 31q-13 6 -26 9l-37 9q-8 2 -21.5 5.5t-18.5 5.5q-89 24 -125.5 57.5t-36.5 97.5 q0 71 58.5 112t161.5 41q114 0 187 -46v-120q-89 52 -181 52q-80 0 -80 -40q0 -8 4.5 -14.5t9 -9.5t14.5 -9q6 -2 22 -6.5t21 -6.5l53 -11q83 -19 123 -56.5t40 -101.5q0 -70 -61 -113t-162 -43z"/>
<glyph glyph-name="uni1E6A" horiz-adv-x="647" unicode="Ṫ" d="M322 760q-30 0 -52 21.5t-22 52.5q0 30 22 51.5t52 21.5q31 0 52.5 -21.5t21.5 -51.5q0 -31 -21.5 -52.5t-52.5 -21.5zM30 571v129h587v-129h-222v-571h-144v571h-221z"/>
<glyph glyph-name="uni1E6B" horiz-adv-x="441" unicode="ṫ" d="M187 679q-30 0 -52 21.5t-22 52.5q0 30 22 51.5t52 21.5q31 0 52 -21t21 -52t-21 -52.5t-52 -21.5zM116 381h-98v118h98v137h141v-137h142v-118h-142v-198q0 -37 16 -53.5t52 -16.5q37 0 73 18v-117q-44 -27 -119 -27q-163 0 -163 168v226z"/>
<glyph glyph-name="Wgrave" horiz-adv-x="1075" unicode="Ẁ" d="M334 907h170l95 -146h-122zM383 -4h-127l-235 704h160l144 -472l158 474h112l159 -474l144 472h157l-236 -704h-127l-153 467z"/>
<glyph glyph-name="wgrave" horiz-adv-x="845" unicode="ẁ" d="M210 722h171l95 -146h-122zM308 -4h-120l-169 503h141l99 -297l98 299h113l101 -299l97 297h140l-171 -503h-122l-104 301z"/>
<glyph glyph-name="Wacute" horiz-adv-x="1075" unicode="Ẃ" d="M603 761h-122l95 146h170zM383 -4h-127l-235 704h160l144 -472l158 474h112l159 -474l144 472h157l-236 -704h-127l-153 467z"/>
<glyph glyph-name="wacute" horiz-adv-x="845" unicode="ẃ" d="M480 570h-122l95 146h170zM308 -4h-120l-169 503h141l99 -297l98 299h113l101 -299l97 297h140l-171 -503h-122l-104 301z"/>
<glyph glyph-name="Wdieresis" horiz-adv-x="1075" unicode="Ẅ" d="M429 760q-30 0 -52 21.5t-22 52.5q0 30 22 51.5t52 21.5q31 0 52.5 -21t21.5 -52t-21.5 -52.5t-52.5 -21.5zM701 781q-21 -21 -52 -21q-32 0 -53 21t-21 53q0 31 21 52t53 21q31 0 52 -21t21 -52q0 -32 -21 -53zM383 -4h-127l-235 704h160l144 -472l158 474h112l159 -474 l144 472h157l-236 -704h-127l-153 467z"/>
<glyph glyph-name="wdieresis" horiz-adv-x="845" unicode="ẅ" d="M303 569q-30 0 -52 21.5t-22 52.5q0 30 22 51.5t52 21.5q31 0 52.5 -21t21.5 -52t-21.5 -52.5t-52.5 -21.5zM575 590q-21 -21 -52 -21q-32 0 -53 21t-21 53q0 31 21 52t53 21q31 0 52 -21q22 -22 22 -52q0 -31 -22 -53zM308 -4h-120l-169 503h141l99 -297l98 299h113 l101 -299l97 297h140l-171 -503h-122l-104 301z"/>
<glyph glyph-name="Ygrave" horiz-adv-x="696" unicode="Ỳ" d="M158 907h170l95 -146h-122zM420 0h-143v314l-271 386h170l174 -249l175 249h165l-270 -383v-317z"/>
<glyph glyph-name="ygrave" horiz-adv-x="579" unicode="ỳ" d="M109 722h171l95 -146h-122zM134 -206q-62 0 -100 20v123q35 -20 76 -20q38 0 63.5 23.5t47.5 76.5l-215 482h152l132 -328l125 328h149l-231 -551q-66 -154 -199 -154z"/>
<glyph glyph-name="endash" horiz-adv-x="771" unicode="–" d="M675 214h-579v127h579v-127z"/>
<glyph glyph-name="emdash" horiz-adv-x="917" unicode="—" d="M821 214h-725v127h725v-127z"/>
<glyph glyph-name="uni2015" horiz-adv-x="771" unicode="―" d="M675 214h-579v127h579v-127z"/>
<glyph glyph-name="quoteleft" horiz-adv-x="290" unicode="‘" d="M146 700h116l-86 -303h-151z"/>
<glyph glyph-name="quoteright" horiz-adv-x="290" unicode="’" d="M142 397h-116l86 303h151z"/>
<glyph glyph-name="quotesinglbase" horiz-adv-x="280" unicode="‚" d="M122 -152h-116l86 303h151z"/>
<glyph glyph-name="quotedblleft" horiz-adv-x="507" unicode="“" d="M146 700h116l-86 -303h-151zM363 700h116l-86 -303h-151z"/>
<glyph glyph-name="quotedblright" horiz-adv-x="507" unicode="”" d="M142 397h-116l86 303h151zM359 397h-116l86 303h151z"/>
<glyph glyph-name="quotedblbase" horiz-adv-x="497" unicode="„" d="M122 -152h-116l86 303h151zM339 -152h-116l86 303h151z"/>
<glyph glyph-name="dagger" horiz-adv-x="500" unicode="†" d="M307 0h-114v409h-164v111h164v180h114v-180h164v-111h-164v-409z"/>
<glyph glyph-name="daggerdbl" horiz-adv-x="500" unicode="‡" d="M307 0h-114v174h-164v111h164v124h-164v111h164v180h114v-180h164v-111h-164v-124h164v-111h-164v-174z"/>
<glyph glyph-name="bullet" horiz-adv-x="414" unicode="•" d="M60 388q0 61 43 104t104 43t103 -43q43 -43 43 -104q0 -60 -43 -103q-42 -43 -103 -43t-104 43t-43 103z"/>
<glyph glyph-name="ellipsis" horiz-adv-x="753" unicode="…" d="M535 77q0 36 25.5 61t61.5 25t61.5 -25t25.5 -61q0 -37 -25.5 -62.5t-61.5 -25.5t-61.5 25.5t-25.5 62.5zM290 77q0 36 25.5 61t61.5 25t61.5 -25t25.5 -61q0 -37 -25.5 -62.5t-61.5 -25.5t-61.5 25.5t-25.5 62.5zM132 -11q-37 0 -62 25.5t-25 62.5q0 36 25 61t62 25 q36 0 61.5 -25t25.5 -61q0 -37 -25.5 -62.5t-61.5 -25.5z"/>
<glyph glyph-name="perthousand" horiz-adv-x="1211" unicode="‰" d="M951 106q23 -23 58 -23q34 0 57 23t23 58t-23 58t-57 23q-35 0 -58 -23q-22 -25 -22 -58t22 -58zM882 286q49 49 127 49t127 -49q50 -50 50 -122t-50 -122q-49 -49 -127 -49t-127 49q-50 50 -50 122t50 122zM558 107q23 -23 58 -23q34 0 57 23t23 58t-23 58t-57 23 q-35 0 -58 -23q-22 -25 -22 -58t22 -58zM489 287q49 49 127 49t127 -49q50 -50 50 -122t-50 -122q-49 -49 -127 -49t-127 49q-50 50 -50 122t50 122zM143 477q23 -23 58 -23q34 0 57 23t23 58t-23 58t-57 23q-35 0 -58 -23q-22 -25 -22 -58t22 -58zM74 657q49 49 127 49 t127 -49q50 -50 50 -122t-50 -122q-49 -49 -127 -49t-127 49q-50 50 -50 122t50 122zM251 0h-101l418 700h101z"/>
<glyph glyph-name="guilsinglleft" horiz-adv-x="341" unicode="‹" d="M310 35h-141l-137 179v71l137 179h141l-161 -214z"/>
<glyph glyph-name="guilsinglright" horiz-adv-x="341" unicode="›" d="M172 35h-141l161 215l-161 214h141l137 -179v-71z"/>
<glyph glyph-name="fraction" horiz-adv-x="225" unicode="⁄" d="M-44 0h-108l422 700h108z"/>
<glyph glyph-name="zerosuperior" horiz-adv-x="379" unicode="⁰" d="M190 398h4q33 0 51.5 33.5t18.5 79.5t-18.5 79.5t-51.5 33.5h-4h-4q-34 0 -52.5 -33.5t-18.5 -79.5t18.5 -79.5t52.5 -33.5h4zM190 315q-80 0 -126 58q-45 59 -45 138t45 138q46 58 126 58q79 0 124 -58q46 -58 46 -138t-46 -138q-45 -58 -124 -58z"/>
<glyph glyph-name="foursuperior" horiz-adv-x="364" unicode="⁴" d="M203 594l-93 -108h93v108zM295 322h-92v90h-190v68l185 220h97v-214h54v-74h-54v-90z"/>
<glyph glyph-name="fivesuperior" horiz-adv-x="331" unicode="⁵" d="M137 315q-65 0 -112 27v89q50 -32 108 -32q32 0 53 13.5t21 38.5q0 23 -20 37t-55 14q-47 0 -95 -15l25 213h216v-80h-144l-5 -48q10 2 26 2q66 0 107 -33.5t41 -89.5q0 -65 -48 -101q-49 -35 -118 -35z"/>
<glyph glyph-name="sixsuperior" horiz-adv-x="353" unicode="⁶" d="M178 392q26 0 41.5 16.5t15.5 41.5q0 22 -16.5 38t-40.5 16q-18 0 -35 -10.5t-25 -27.5q1 -34 17.5 -54t42.5 -20zM184 315q-75 0 -116.5 47.5t-41.5 129.5q0 90 46 152q46 63 136 63q56 0 90 -23v-84q-34 24 -79 24q-39 0 -64.5 -22.5t-28.5 -61.5q28 34 80 34 q55 0 89.5 -33.5t34.5 -90.5q0 -60 -41.5 -97.5t-104.5 -37.5z"/>
<glyph glyph-name="sevensuperior" horiz-adv-x="325" unicode="⁷" d="M147 322h-104l151 298h-173v80h282v-75z"/>
<glyph glyph-name="eightsuperior" horiz-adv-x="359" unicode="⁸" d="M180 549q22 0 36.5 11.5t14.5 29.5q0 19 -14.5 30.5t-36.5 11.5q-23 0 -38 -11.5t-15 -30.5q0 -18 15 -29.5t38 -11.5zM180 392q27 0 44.5 14t17.5 34q0 22 -17.5 35.5t-44.5 13.5q-28 0 -45.5 -13.5t-17.5 -35.5q0 -21 17.5 -34.5t45.5 -13.5zM180 315q-69 0 -114 31 t-45 86q0 29 20 55t48 36q-22 10 -36 31t-14 46q0 47 40 77t101 30q60 0 100 -30t40 -77q0 -24 -14.5 -45.5t-35.5 -31.5q30 -10 49 -35.5t19 -55.5q0 -55 -45 -86t-113 -31z"/>
<glyph glyph-name="ninesuperior" horiz-adv-x="353" unicode="⁹" d="M178 630q-26 0 -41.5 -16.5t-15.5 -41.5q0 -22 16 -38t40 -16q42 0 60 38q-1 34 -17.5 54t-41.5 20zM171 707q75 0 117 -47.5t42 -129.5q0 -88 -47 -152q-47 -63 -135 -63q-57 0 -91 23v84q35 -24 79 -24q39 0 64.5 22.5t29.5 61.5q-31 -34 -81 -34q-54 0 -88.5 34 t-34.5 90q0 59 41 97q43 38 104 38z"/>
<glyph glyph-name="zeroinferior" horiz-adv-x="379" unicode="₀" d="M190 76h4q33 0 51.5 33.5t18.5 79.5t-18.5 79.5t-51.5 33.5h-4h-4q-34 0 -52.5 -33.5t-18.5 -79.5t18.5 -79.5t52.5 -33.5h4zM190 -7q-80 0 -126 58q-45 59 -45 138t45 138q46 58 126 58q79 0 124 -58q46 -58 46 -138t-46 -138q-45 -58 -124 -58z"/>
<glyph glyph-name="oneinferior" horiz-adv-x="252" unicode="₁" d="M214 0h-96v280l-101 -51v94l105 55h92v-378z"/>
<glyph glyph-name="twoinferior" horiz-adv-x="356" unicode="₂" d="M319 0h-281v69l108 92q65 56 65 93q0 20 -15.5 31.5t-40.5 11.5q-54 0 -104 -39v95q47 32 112 32q57 0 100 -33q44 -32 44 -86q0 -41 -17.5 -72t-62.5 -71l-48 -43h140v-80z"/>
<glyph glyph-name="threeinferior" horiz-adv-x="328" unicode="₃" d="M144 -7q-71 0 -122 30v88q55 -34 114 -34q31 0 51.5 14t20.5 37q0 22 -17.5 35.5t-47.5 13.5q-36 0 -61 -11v59l87 73h-136v80h253v-71l-80 -69q43 -9 70.5 -36.5t27.5 -75.5q0 -59 -47 -97q-47 -36 -113 -36z"/>
<glyph glyph-name="fourinferior" horiz-adv-x="364" unicode="₄" d="M203 272l-93 -108h93v108zM295 0h-92v90h-190v68l185 220h97v-214h54v-74h-54v-90z"/>
<glyph glyph-name="fiveinferior" horiz-adv-x="331" unicode="₅" d="M137 -7q-65 0 -112 27v89q50 -32 108 -32q32 0 53 13.5t21 38.5q0 23 -20 37t-55 14q-47 0 -95 -15l25 213h216v-80h-144l-5 -48q10 2 26 2q66 0 107 -33.5t41 -89.5q0 -65 -48 -101q-49 -35 -118 -35z"/>
<glyph glyph-name="sixinferior" horiz-adv-x="353" unicode="₆" d="M178 70q26 0 41.5 16.5t15.5 41.5q0 22 -16.5 38t-40.5 16q-18 0 -35 -10.5t-25 -27.5q1 -34 17.5 -54t42.5 -20zM184 -7q-75 0 -116.5 47.5t-41.5 129.5q0 90 46 152q47 63 136 63q56 0 90 -23v-84q-34 24 -79 24q-39 0 -64.5 -22.5t-28.5 -61.5q28 34 80 34 q55 0 89.5 -33.5t34.5 -90.5q0 -60 -41.5 -97.5t-104.5 -37.5z"/>
<glyph glyph-name="seveninferior" horiz-adv-x="325" unicode="₇" d="M147 0h-104l151 298h-173v80h282v-75z"/>
<glyph glyph-name="eightinferior" horiz-adv-x="359" unicode="₈" d="M180 227q22 0 36.5 11.5t14.5 29.5q0 19 -14.5 30.5t-36.5 11.5q-23 0 -38 -11.5t-15 -30.5q0 -18 15 -29.5t38 -11.5zM180 70q27 0 44.5 14t17.5 34q0 22 -17.5 35.5t-44.5 13.5q-28 0 -45.5 -13.5t-17.5 -35.5q0 -21 17.5 -34.5t45.5 -13.5zM180 -7q-69 0 -114 31 t-45 86q0 29 20 55t48 36q-22 10 -36 31t-14 46q0 47 40 77t101 30q60 0 100 -30t40 -77q0 -24 -14.5 -45.5t-35.5 -31.5q30 -10 49 -35.5t19 -55.5q0 -55 -45 -86t-113 -31z"/>
<glyph glyph-name="nineinferior" horiz-adv-x="353" unicode="₉" d="M178 307q-26 0 -41.5 -16.5t-15.5 -41.5q0 -22 16 -38t40 -16q42 0 60 38q-1 34 -17.5 54t-41.5 20zM171 384q75 0 117 -47.5t42 -129.5q0 -88 -47 -152q-47 -63 -135 -63q-57 0 -91 23v84q34 -24 79 -24q39 0 64.5 22.5t29.5 61.5q-31 -34 -81 -34q-54 0 -88.5 34 t-34.5 90q0 59 41 97q43 38 104 38z"/>
<glyph glyph-name="franc" horiz-adv-x="666" unicode="₣" d="M115 108h-102v103h102v489h513v-131h-369v-140h285v-128h-285v-90h149v-103h-149v-108h-144v108z"/>
<glyph glyph-name="lira" horiz-adv-x="602" unicode="₤" d="M128 362h-81v79h81v34q0 111 68 175t185 64q93 0 160 -35v-134q-62 34 -137 34q-132 0 -132 -124v-14h211v-79h-211v-61h211v-79h-211v-31q0 -44 -29 -62h314v-129h-510v129h14q41 0 54 17.5t13 64.5v11h-81v79h81v61z"/>
<glyph glyph-name="peseta" horiz-adv-x="740" unicode="₧" d="M252 574v-174h152q52 0 81 22.5t29 64.5t-29 64.5t-81 22.5h-152zM252 0h-144v426h-91v111h91v163h306q96 0 159.5 -44t79.5 -119h81v-111h-85q-21 -69 -82.5 -109t-152.5 -40h-162v-277z"/>
<glyph glyph-name="Euro" horiz-adv-x="661" unicode="€" d="M462 479v-86h-215q-2 -30 -2 -36q0 -9 2 -31h215v-87h-196q22 -58 72 -89.5t119 -31.5q92 0 158 51v-141q-71 -42 -176 -42q-127 0 -212 69q-87 72 -115 184h-82v87h69q-1 8 -1 33q0 4 2 34h-70v86h87q31 105 117 170t205 65q93 0 161 -37v-136q-68 41 -143 41 q-135 0 -184 -103h189z"/>
<glyph glyph-name="uni20B4" horiz-adv-x="601" unicode="₴" d="M323 -14q-108 0 -180 45q-71 47 -71 134q0 58 44 96h-70v79h510v-79h-270q-60 -29 -60 -76q0 -70 122 -70q39 0 92 11q49 12 84 29v-132q-83 -37 -201 -37zM556 388h-510v79h291q33 19 33 55q0 65 -114 65q-89 0 -164 -33v129q68 31 183 31q107 0 178 -46q72 -45 72 -130 q0 -47 -28 -71h59v-79z"/>
<glyph glyph-name="uni20B6" horiz-adv-x="720" unicode="₶" d="M275 574v-194h139q55 0 86.5 25.5t31.5 71.5q0 47 -31.5 72t-86.5 25h-139zM132 277h-110v103h110v320h301q111 0 178 -59q66 -58 66 -152q0 -95 -66 -153q-67 -59 -178 -59h-158v-66h254v-103h-254v-108h-143v108h-110v103h110v66z"/>
<glyph glyph-name="uni20B6" horiz-adv-x="720" unicode="⃏" d="M275 574v-194h139q55 0 86.5 25.5t31.5 71.5q0 47 -31.5 72t-86.5 25h-139zM132 277h-110v103h110v320h301q111 0 178 -59q66 -58 66 -152q0 -95 -66 -153q-67 -59 -178 -59h-158v-66h254v-103h-254v-108h-143v108h-110v103h110v66z"/>
<glyph glyph-name="uni20B6" horiz-adv-x="720" unicode="⃎" d="M275 574v-194h139q55 0 86.5 25.5t31.5 71.5q0 47 -31.5 72t-86.5 25h-139zM132 277h-110v103h110v320h301q111 0 178 -59q66 -58 66 -152q0 -95 -66 -153q-67 -59 -178 -59h-158v-66h254v-103h-254v-108h-143v108h-110v103h110v66z"/>
<glyph glyph-name="uni20B6" horiz-adv-x="720" unicode="⃍" d="M275 574v-194h139q55 0 86.5 25.5t31.5 71.5q0 47 -31.5 72t-86.5 25h-139zM132 277h-110v103h110v320h301q111 0 178 -59q66 -58 66 -152q0 -95 -66 -153q-67 -59 -178 -59h-158v-66h254v-103h-254v-108h-143v108h-110v103h110v66z"/>
<glyph glyph-name="uni20B6" horiz-adv-x="720" unicode="⃌" d="M275 574v-194h139q55 0 86.5 25.5t31.5 71.5q0 47 -31.5 72t-86.5 25h-139zM132 277h-110v103h110v320h301q111 0 178 -59q66 -58 66 -152q0 -95 -66 -153q-67 -59 -178 -59h-158v-66h254v-103h-254v-108h-143v108h-110v103h110v66z"/>
<glyph glyph-name="uni20B6" horiz-adv-x="720" unicode="⃋" d="M275 574v-194h139q55 0 86.5 25.5t31.5 71.5q0 47 -31.5 72t-86.5 25h-139zM132 277h-110v103h110v320h301q111 0 178 -59q66 -58 66 -152q0 -95 -66 -153q-67 -59 -178 -59h-158v-66h254v-103h-254v-108h-143v108h-110v103h110v66z"/>
<glyph glyph-name="uni20B6" horiz-adv-x="720" unicode="⃊" d="M275 574v-194h139q55 0 86.5 25.5t31.5 71.5q0 47 -31.5 72t-86.5 25h-139zM132 277h-110v103h110v320h301q111 0 178 -59q66 -58 66 -152q0 -95 -66 -153q-67 -59 -178 -59h-158v-66h254v-103h-254v-108h-143v108h-110v103h110v66z"/>
<glyph glyph-name="uni20B6" horiz-adv-x="720" unicode="⃉" d="M275 574v-194h139q55 0 86.5 25.5t31.5 71.5q0 47 -31.5 72t-86.5 25h-139zM132 277h-110v103h110v320h301q111 0 178 -59q66 -58 66 -152q0 -95 -66 -153q-67 -59 -178 -59h-158v-66h254v-103h-254v-108h-143v108h-110v103h110v66z"/>
<glyph glyph-name="uni20B6" horiz-adv-x="720" unicode="⃈" d="M275 574v-194h139q55 0 86.5 25.5t31.5 71.5q0 47 -31.5 72t-86.5 25h-139zM132 277h-110v103h110v320h301q111 0 178 -59q66 -58 66 -152q0 -95 -66 -153q-67 -59 -178 -59h-158v-66h254v-103h-254v-108h-143v108h-110v103h110v66z"/>
<glyph glyph-name="uni20B6" horiz-adv-x="720" unicode="⃇" d="M275 574v-194h139q55 0 86.5 25.5t31.5 71.5q0 47 -31.5 72t-86.5 25h-139zM132 277h-110v103h110v320h301q111 0 178 -59q66 -58 66 -152q0 -95 -66 -153q-67 -59 -178 -59h-158v-66h254v-103h-254v-108h-143v108h-110v103h110v66z"/>
<glyph glyph-name="uni20B6" horiz-adv-x="720" unicode="⃆" d="M275 574v-194h139q55 0 86.5 25.5t31.5 71.5q0 47 -31.5 72t-86.5 25h-139zM132 277h-110v103h110v320h301q111 0 178 -59q66 -58 66 -152q0 -95 -66 -153q-67 -59 -178 -59h-158v-66h254v-103h-254v-108h-143v108h-110v103h110v66z"/>
<glyph glyph-name="uni20B6" horiz-adv-x="720" unicode="⃅" d="M275 574v-194h139q55 0 86.5 25.5t31.5 71.5q0 47 -31.5 72t-86.5 25h-139zM132 277h-110v103h110v320h301q111 0 178 -59q66 -58 66 -152q0 -95 -66 -153q-67 -59 -178 -59h-158v-66h254v-103h-254v-108h-143v108h-110v103h110v66z"/>
<glyph glyph-name="uni20B6" horiz-adv-x="720" unicode="⃄" d="M275 574v-194h139q55 0 86.5 25.5t31.5 71.5q0 47 -31.5 72t-86.5 25h-139zM132 277h-110v103h110v320h301q111 0 178 -59q66 -58 66 -152q0 -95 -66 -153q-67 -59 -178 -59h-158v-66h254v-103h-254v-108h-143v108h-110v103h110v66z"/>
<glyph glyph-name="uni20B6" horiz-adv-x="720" unicode="⃃" d="M275 574v-194h139q55 0 86.5 25.5t31.5 71.5q0 47 -31.5 72t-86.5 25h-139zM132 277h-110v103h110v320h301q111 0 178 -59q66 -58 66 -152q0 -95 -66 -153q-67 -59 -178 -59h-158v-66h254v-103h-254v-108h-143v108h-110v103h110v66z"/>
<glyph glyph-name="uni20B6" horiz-adv-x="720" unicode="⃂" d="M275 574v-194h139q55 0 86.5 25.5t31.5 71.5q0 47 -31.5 72t-86.5 25h-139zM132 277h-110v103h110v320h301q111 0 178 -59q66 -58 66 -152q0 -95 -66 -153q-67 -59 -178 -59h-158v-66h254v-103h-254v-108h-143v108h-110v103h110v66z"/>
<glyph glyph-name="uni20B6" horiz-adv-x="720" unicode="⃁" d="M275 574v-194h139q55 0 86.5 25.5t31.5 71.5q0 47 -31.5 72t-86.5 25h-139zM132 277h-110v103h110v320h301q111 0 178 -59q66 -58 66 -152q0 -95 -66 -153q-67 -59 -178 -59h-158v-66h254v-103h-254v-108h-143v108h-110v103h110v66z"/>
<glyph glyph-name="uni20B6" horiz-adv-x="720" unicode="⃀" d="M275 574v-194h139q55 0 86.5 25.5t31.5 71.5q0 47 -31.5 72t-86.5 25h-139zM132 277h-110v103h110v320h301q111 0 178 -59q66 -58 66 -152q0 -95 -66 -153q-67 -59 -178 -59h-158v-66h254v-103h-254v-108h-143v108h-110v103h110v66z"/>
<glyph glyph-name="uni20B6" horiz-adv-x="720" unicode="₿" d="M275 574v-194h139q55 0 86.5 25.5t31.5 71.5q0 47 -31.5 72t-86.5 25h-139zM132 277h-110v103h110v320h301q111 0 178 -59q66 -58 66 -152q0 -95 -66 -153q-67 -59 -178 -59h-158v-66h254v-103h-254v-108h-143v108h-110v103h110v66z"/>
<glyph glyph-name="uni20B6" horiz-adv-x="720" unicode="₾" d="M275 574v-194h139q55 0 86.5 25.5t31.5 71.5q0 47 -31.5 72t-86.5 25h-139zM132 277h-110v103h110v320h301q111 0 178 -59q66 -58 66 -152q0 -95 -66 -153q-67 -59 -178 -59h-158v-66h254v-103h-254v-108h-143v108h-110v103h110v66z"/>
<glyph glyph-name="uni20B6" horiz-adv-x="720" unicode="₽" d="M275 574v-194h139q55 0 86.5 25.5t31.5 71.5q0 47 -31.5 72t-86.5 25h-139zM132 277h-110v103h110v320h301q111 0 178 -59q66 -58 66 -152q0 -95 -66 -153q-67 -59 -178 -59h-158v-66h254v-103h-254v-108h-143v108h-110v103h110v66z"/>
<glyph glyph-name="uni20B6" horiz-adv-x="720" unicode="₼" d="M275 574v-194h139q55 0 86.5 25.5t31.5 71.5q0 47 -31.5 72t-86.5 25h-139zM132 277h-110v103h110v320h301q111 0 178 -59q66 -58 66 -152q0 -95 -66 -153q-67 -59 -178 -59h-158v-66h254v-103h-254v-108h-143v108h-110v103h110v66z"/>
<glyph glyph-name="uni20B6" horiz-adv-x="720" unicode="₻" d="M275 574v-194h139q55 0 86.5 25.5t31.5 71.5q0 47 -31.5 72t-86.5 25h-139zM132 277h-110v103h110v320h301q111 0 178 -59q66 -58 66 -152q0 -95 -66 -153q-67 -59 -178 -59h-158v-66h254v-103h-254v-108h-143v108h-110v103h110v66z"/>
<glyph glyph-name="uni20B6" horiz-adv-x="720" unicode="₺" d="M275 574v-194h139q55 0 86.5 25.5t31.5 71.5q0 47 -31.5 72t-86.5 25h-139zM132 277h-110v103h110v320h301q111 0 178 -59q66 -58 66 -152q0 -95 -66 -153q-67 -59 -178 -59h-158v-66h254v-103h-254v-108h-143v108h-110v103h110v66z"/>
<glyph glyph-name="uni20B6" horiz-adv-x="720" unicode="₹" d="M275 574v-194h139q55 0 86.5 25.5t31.5 71.5q0 47 -31.5 72t-86.5 25h-139zM132 277h-110v103h110v320h301q111 0 178 -59q66 -58 66 -152q0 -95 -66 -153q-67 -59 -178 -59h-158v-66h254v-103h-254v-108h-143v108h-110v103h110v66z"/>
<glyph glyph-name="uni20B6" horiz-adv-x="720" unicode="₷" d="M275 574v-194h139q55 0 86.5 25.5t31.5 71.5q0 47 -31.5 72t-86.5 25h-139zM132 277h-110v103h110v320h301q111 0 178 -59q66 -58 66 -152q0 -95 -66 -153q-67 -59 -178 -59h-158v-66h254v-103h-254v-108h-143v108h-110v103h110v66z"/>
<glyph glyph-name="uni2113" horiz-adv-x="422" unicode="ℓ" d="M162 489v-177q51 49 88 113q37 62 37 117q0 71 -52 71q-32 0 -52 -31.5t-21 -92.5zM234 -13q-86 0 -130 46.5t-44 130.5v306q0 105 41 173q42 69 132 69q68 0 107.5 -46.5t39.5 -119.5q0 -171 -218 -362v-18q0 -84 94 -84q58 0 101 35v-92q-44 -38 -123 -38z"/>
<glyph glyph-name="uni2116" horiz-adv-x="1153" unicode="№" d="M218 0h-141v700h123l353 -448v448h140v-700h-119l-356 450v-450zM880 477q23 -23 58 -23q34 0 57 23t23 58t-23 58t-57 23q-35 0 -58 -23q-22 -25 -22 -58t22 -58zM811 657q49 49 127 49t127 -49q50 -50 50 -122t-50 -122q-49 -49 -127 -49t-127 49q-50 50 -50 122 t50 122zM1101 225h-326v86h326v-86z"/>
<glyph glyph-name="trademark" horiz-adv-x="684" unicode="™" d="M191 389h-79v240h-95v71h269v-71h-95v-240zM405 389h-78v311h73l83 -113l81 113h74v-311h-79v185l-56 -74h-40l-58 75v-186z"/>
<glyph glyph-name="Omega" horiz-adv-x="792" unicode="Ω" d="M721 382q0 -73 -27.5 -142t-71.5 -111h98v-129h-266v109q53 38 86.5 104t33.5 144q0 97 -49 159q-49 63 -129 63t-129 -63q-49 -62 -49 -159q0 -78 33.5 -144t86.5 -104v-109h-266v129h98q-44 42 -71.5 111t-27.5 142q0 136 89 234t236 98t236 -98t89 -234z"/>
<glyph glyph-name="estimated" horiz-adv-x="785" unicode="℮" d="M167 534v-178h453v178q-92 98 -226 98q-137 0 -227 -98zM394 -14q-146 0 -243 96q-98 96 -98 243q0 139 94 239t247 100q73 0 137.5 -27.5t106.5 -74.5q88 -94 94 -210v-29h-565v-205q90 -98 227 -98q92 0 165 45.5t111 125.5h38q-35 -88 -117 -146q-83 -59 -197 -59z "/>
<glyph glyph-name="onethird" horiz-adv-x="793" unicode="⅓" d="M609 -7q-71 0 -122 30v88q55 -34 114 -34q31 0 51.5 14t20.5 37q0 22 -17.5 35.5t-47.5 13.5q-36 0 -61 -11v59l87 73h-136v80h253v-71l-80 -69q43 -9 70.5 -36.5t27.5 -75.5q0 -59 -47 -97q-46 -36 -113 -36zM214 322h-96v280l-101 -51v94l105 55h92v-378zM207 0h-108 l422 700h108z"/>
<glyph glyph-name="twothirds" horiz-adv-x="887" unicode="⅔" d="M301 0h-108l422 700h108zM703 -7q-71 0 -122 30v88q55 -34 114 -34q31 0 51.5 14t20.5 37q0 22 -17.5 35.5t-47.5 13.5q-36 0 -61 -11v59l87 73h-136v80h253v-71l-80 -69q43 -9 70.5 -36.5t27.5 -75.5q0 -59 -47 -97q-46 -36 -113 -36zM319 322h-281v69l108 92 q65 56 65 93q0 20 -15.5 31.5t-40.5 11.5q-54 0 -104 -39v95q47 32 112 32q57 0 100 -33q44 -32 44 -86q0 -41 -17.5 -72t-62.5 -71l-48 -43h140v-80z"/>
<glyph glyph-name="uni2155" horiz-adv-x="775" unicode="⅕" d="M581 -7q-65 0 -112 27v89q50 -32 108 -32q32 0 53 13.5t21 38.5q0 23 -20 37t-55 14q-47 0 -95 -15l25 213h216v-80h-144l-5 -48q10 2 26 2q66 0 107 -33.5t41 -89.5q0 -65 -48 -101q-49 -35 -118 -35zM214 322h-96v280l-101 -51v94l105 55h92v-378zM207 0h-108l422 700 h108z"/>
<glyph glyph-name="uni2156" horiz-adv-x="869" unicode="⅖" d="M301 0h-108l422 700h108zM675 -7q-65 0 -112 27v89q50 -32 108 -32q32 0 53 13.5t21 38.5q0 23 -20 37t-55 14q-47 0 -95 -15l25 213h216v-80h-144l-5 -48q10 2 26 2q66 0 107 -33.5t41 -89.5q0 -65 -48 -101q-49 -35 -118 -35zM319 322h-281v69l108 92q65 56 65 93 q0 20 -15.5 31.5t-40.5 11.5q-54 0 -104 -39v95q47 32 112 32q57 0 100 -33q44 -32 44 -86q0 -41 -17.5 -72t-62.5 -71l-48 -43h140v-80z"/>
<glyph glyph-name="uni2157" horiz-adv-x="818" unicode="⅗" d="M144 315q-71 0 -122 30v88q55 -34 114 -34q31 0 51.5 14t20.5 37q0 22 -17.5 35.5t-47.5 13.5q-36 0 -61 -11v59l87 73h-136v80h253v-71l-80 -69q43 -9 70.5 -36.5t27.5 -75.5q0 -59 -47 -97q-47 -36 -113 -36zM624 -7q-66 0 -112 27v89q50 -32 108 -32q32 0 53 13.5 t21 38.5q0 23 -20 37t-55 14q-47 0 -95 -15l25 213h216v-80h-144l-5 -48q10 2 26 2q66 0 107 -33.5t41 -89.5q0 -65 -48 -101q-49 -35 -118 -35zM251 0h-108l422 700h108z"/>
<glyph glyph-name="uni2158" horiz-adv-x="860" unicode="⅘" d="M293 0h-108l422 700h108zM666 -7q-66 0 -112 27v89q50 -32 108 -32q32 0 53 13.5t21 38.5q0 23 -20 37t-55 14q-47 0 -95 -15l25 213h216v-80h-144l-5 -48q10 2 26 2q66 0 107 -33.5t41 -89.5q0 -65 -48 -101q-49 -35 -118 -35zM203 594l-93 -108h93v108zM295 322h-92v90 h-190v68l185 220h97v-214h54v-74h-54v-90z"/>
<glyph glyph-name="uni2159" horiz-adv-x="777" unicode="⅙" d="M602 70q26 0 41.5 16.5t15.5 41.5q0 22 -16.5 38t-40.5 16q-18 0 -35 -10.5t-25 -27.5q1 -34 17.5 -54t42.5 -20zM608 -7q-75 0 -116.5 47.5t-41.5 129.5q0 90 46 152q46 63 136 63q56 0 90 -23v-84q-34 24 -79 24q-39 0 -64.5 -22.5t-28.5 -61.5q28 34 80 34 q55 0 89.5 -33.5t34.5 -90.5q0 -61 -42 -98q-41 -37 -104 -37zM214 322h-96v280l-101 -51v94l105 55h92v-378zM207 0h-108l422 700h108z"/>
<glyph glyph-name="uni215A" horiz-adv-x="820" unicode="⅚" d="M250 0h-108l422 700h108zM137 315q-65 0 -112 27v89q50 -32 108 -32q32 0 53 13.5t21 38.5q0 23 -20 37t-55 14q-47 0 -95 -15l25 213h216v-80h-144l-5 -48q10 2 26 2q66 0 107 -33.5t41 -89.5q0 -65 -48 -101q-49 -35 -118 -35zM645 70q26 0 41.5 16.5t15.5 41.5 q0 22 -16.5 38t-40.5 16q-18 0 -35 -10.5t-25 -27.5q1 -34 17.5 -54t42.5 -20zM651 -7q-75 0 -116.5 47.5t-41.5 129.5q0 90 46 152q47 63 136 63q56 0 90 -23v-84q-35 24 -79 24q-39 0 -64.5 -22.5t-28.5 -61.5q28 34 80 34q55 0 89.5 -33.5t34.5 -90.5q0 -60 -41.5 -97.5 t-104.5 -37.5z"/>
<glyph glyph-name="oneeighth" horiz-adv-x="800" unicode="⅛" d="M621 227q22 0 36.5 11.5t14.5 29.5q0 19 -14.5 30.5t-36.5 11.5q-23 0 -38 -11.5t-15 -30.5q0 -18 15 -29.5t38 -11.5zM621 70q27 0 44.5 14t17.5 34q0 22 -17.5 35.5t-44.5 13.5q-28 0 -45.5 -13.5t-17.5 -35.5q0 -21 17.5 -34.5t45.5 -13.5zM621 -7q-69 0 -114 31 t-45 86q0 29 20 55t48 36q-22 10 -36 31t-14 46q0 47 40 77t101 30q60 0 100 -30t40 -77q0 -24 -14.5 -45.5t-35.5 -31.5q30 -10 49 -35.5t19 -55.5q0 -55 -45 -86t-113 -31zM214 322h-96v280l-101 -51v94l105 55h92v-378zM207 0h-108l422 700h108z"/>
<glyph glyph-name="threeeighths" horiz-adv-x="844" unicode="⅜" d="M144 315q-71 0 -122 30v88q55 -34 114 -34q31 0 51.5 14t20.5 37q0 22 -17.5 35.5t-47.5 13.5q-36 0 -61 -11v59l87 73h-136v80h253v-71l-80 -69q43 -9 70.5 -36.5t27.5 -75.5q0 -59 -47 -97q-47 -36 -113 -36zM665 227q22 0 36.5 11.5t14.5 29.5q0 19 -14.5 30.5 t-36.5 11.5q-23 0 -38 -11.5t-15 -30.5q0 -18 15 -29.5t38 -11.5zM665 70q27 0 44.5 14t17.5 34q0 22 -17.5 35.5t-44.5 13.5q-28 0 -45.5 -13.5t-17.5 -35.5q0 -21 17.5 -34.5t45.5 -13.5zM665 -7q-69 0 -114 31t-45 86q0 29 20 55t48 36q-22 10 -36 31t-14 46q0 47 40 77 t101 30q60 0 100 -30t40 -77q0 -24 -14.5 -45.5t-35.5 -31.5q30 -10 49 -35.5t19 -55.5q0 -55 -45 -86t-113 -31zM251 0h-108l422 700h108z"/>
<glyph glyph-name="fiveeighths" horiz-adv-x="843" unicode="⅝" d="M250 0h-108l422 700h108zM137 315q-65 0 -112 27v89q50 -32 108 -32q32 0 53 13.5t21 38.5q0 23 -20 37t-55 14q-47 0 -95 -15l25 213h216v-80h-144l-5 -48q10 2 26 2q66 0 107 -33.5t41 -89.5q0 -65 -48 -101q-49 -35 -118 -35zM664 227q22 0 36.5 11.5t14.5 29.5 q0 19 -14.5 30.5t-36.5 11.5q-23 0 -38 -11.5t-15 -30.5q0 -18 15 -29.5t38 -11.5zM664 70q27 0 44.5 14t17.5 34q0 22 -17.5 35.5t-44.5 13.5q-28 0 -45.5 -13.5t-17.5 -35.5q0 -21 17.5 -34.5t45.5 -13.5zM664 -7q-69 0 -114 31t-45 86q0 29 20 55t48 36q-22 10 -36 31 t-14 46q0 47 40 77t101 30q60 0 100 -30t40 -77q0 -24 -14.5 -45.5t-35.5 -31.5q30 -10 49 -35.5t19 -55.5q0 -55 -45 -86t-113 -31z"/>
<glyph glyph-name="seveneighths" horiz-adv-x="788" unicode="⅞" d="M147 322h-104l151 298h-173v80h282v-75zM609 227q22 0 36.5 11.5t14.5 29.5q0 19 -14.5 30.5t-36.5 11.5q-23 0 -38 -11.5t-15 -30.5q0 -18 15 -29.5t38 -11.5zM609 70q27 0 44.5 14t17.5 34q0 22 -17.5 35.5t-44.5 13.5q-28 0 -45.5 -13.5t-17.5 -35.5q0 -21 17.5 -34.5 t45.5 -13.5zM609 -7q-69 0 -114 31t-45 86q0 29 20 55t48 36q-22 10 -36 31t-14 46q0 47 40 77t101 30q60 0 100 -30t40 -77q0 -24 -14.5 -45.5t-35.5 -31.5q30 -10 49 -35.5t19 -55.5q0 -55 -45 -86t-113 -31zM195 0h-108l422 700h108z"/>
<glyph glyph-name="uni215F" horiz-adv-x="455" unicode="⅟" d="M207 0h-108l422 700h108zM214 322h-96v280l-101 -51v94l105 55h92v-378z"/>
<glyph glyph-name="arrowleft" horiz-adv-x="706" unicode="←" d="M42 267l190 221h139l-146 -166h419v-111h-420l147 -166h-139z"/>
<glyph glyph-name="arrowup" horiz-adv-x="567" unicode="↑" d="M284 602l221 -190v-139l-166 146v-419h-111v420l-166 -147v139z"/>
<glyph glyph-name="arrowright" horiz-adv-x="706" unicode="→" d="M481 322l-146 166h139l190 -221l-190 -222h-139l147 166h-420v111h419z"/>
<glyph glyph-name="arrowdown" horiz-adv-x="567" unicode="↓" d="M283 -14l-221 190v139l166 -146v419h111v-420l166 147v-139z"/>
<glyph glyph-name="partialdiff" horiz-adv-x="616" unicode="∂" d="M281 92q62 0 103 45t50 123q-17 45 -54.5 72.5t-82.5 27.5q-57 0 -98 -39t-41 -102q0 -56 34 -91.5t89 -35.5zM269 -14q-101 0 -168 62q-65 62 -65 164q0 105 66 177t169 72q112 0 170 -82q0 89 -47 157t-136 68q-74 0 -139 -39v104q65 43 156 43q131 0 209 -96 q78 -94 78 -255q0 -149 -66 -256q-34 -55 -92.5 -87t-134.5 -32z"/>
<glyph glyph-name="increment" horiz-adv-x="770" unicode="∆" d="M384 521l-166 -394h332zM754 0h-738l300 700h138z"/>
<glyph glyph-name="product" horiz-adv-x="775" unicode="∏" d="M281 -134h-123v724h-121v110h701v-110h-122v-724h-123v724h-212v-724z"/>
<glyph glyph-name="summation" horiz-adv-x="622" unicode="∑" d="M584 0h-541v102l225 248l-218 248v102h527v-129h-325l167 -191v-59l-175 -192h340v-129z"/>
<glyph glyph-name="minus" horiz-adv-x="712" unicode="−" d="M646 268h-580v126h580v-126z"/>
<glyph glyph-name="uni2215" horiz-adv-x="547" unicode="∕" d="M117 0h-108l422 700h108z"/>
<glyph glyph-name="uni2219" horiz-adv-x="248" unicode="∙" d="M124 178q-37 0 -62 25.5t-25 62.5q0 36 25 61t62 25q36 0 61.5 -25t25.5 -61q0 -37 -25.5 -62.5t-61.5 -25.5z"/>
<glyph glyph-name="radical" horiz-adv-x="730" unicode="√" d="M432 0h-112l-176 388h-138v111h220l150 -339l214 540h126z"/>
<glyph glyph-name="infinity" horiz-adv-x="803" unicode="∞" d="M572 213q38 0 61 26.5t23 63.5t-23 61.5t-63 24.5q-62 0 -114 -87q50 -89 116 -89zM233 213q61 0 114 89q-58 88 -115 88q-37 0 -61 -26t-24 -61q0 -37 24 -63.5t62 -26.5zM221 112q-72 0 -130 50q-56 51 -56 141q0 87 57 136q58 51 130 51q105 0 180 -105q30 46 77 75.5 t104 29.5q79 0 132 -54q53 -55 53 -133q0 -83 -53 -138q-53 -53 -132 -53q-51 0 -99 27.5t-83 76.5q-77 -104 -180 -104z"/>
<glyph glyph-name="integral" horiz-adv-x="520" unicode="∫" d="M410 712q60 0 98 -19v-116q-33 13 -68 13q-95 0 -115 -116l-76 -473q-15 -95 -72 -151t-153 -56q-60 0 -98 19v116q33 -13 68 -13q95 0 115 116l76 473q15 95 72 151t153 56z"/>
<glyph glyph-name="approxequal" horiz-adv-x="656" unicode="≈" d="M465 112q-54 0 -139 28q-84 28 -136 28q-78 0 -124 -48v127q15 19 50 31.5t74 12.5q50 0 137 -29q84 -28 138 -28q79 0 125 48v-127q-16 -19 -50.5 -31t-74.5 -12zM465 342q-53 0 -138 27q-84 28 -137 28q-79 0 -124 -47v127q15 19 50 31.5t74 12.5q50 0 137 -29 q84 -28 138 -28q79 0 125 48v-127q-16 -19 -50.5 -31t-74.5 -12z"/>
<glyph glyph-name="notequal" horiz-adv-x="641" unicode="≠" d="M285 381h-219v127h286l51 98h126l-51 -98h97v-127h-164l-51 -99h215v-128h-282l-55 -106h-126l55 106h-101v128h168z"/>
<glyph glyph-name="lessequal" horiz-adv-x="641" unicode="≤" d="M574 18h-508v127h508v-127zM575 316v-140l-509 186v121l509 186v-140l-359 -106z"/>
<glyph glyph-name="greaterequal" horiz-adv-x="641" unicode="≥" d="M67 145h508v-127h-508v127zM575 483v-121l-509 -186v140l359 107l-359 106v140z"/>
<glyph glyph-name="dotmath" horiz-adv-x="263" unicode="⋅" d="M132 300q-37 0 -62 25.5t-25 62.5q0 36 25 61t62 25q36 0 61.5 -25t25.5 -61q0 -37 -25.5 -62.5t-61.5 -25.5z"/>
<glyph glyph-name="lozenge" horiz-adv-x="565" unicode="◊" d="M159 350l125 -239l124 239l-124 239zM343 0h-121l-190 350l190 350h121l191 -350z"/>
<glyph glyph-name="uniF401" horiz-adv-x="12" unicode="" d="M-353 761h-122l95 146h170z"/>
<glyph glyph-name="uniF639" d="M325 118q68 0 105 67t37 165t-37 165t-105 67q-67 0 -104 -67t-37 -165t37 -165t104 -67zM480 38q-65 -52 -155 -52q-87 0 -153 50.5t-99 134.5q-32 84 -32 179q0 210 129 312q65 52 155 52q87 0 153.5 -51t99.5 -135q32 -82 32 -178q0 -210 -130 -312z" unicode=""/>
<glyph glyph-name="uniF63A" d="M573 0h-498v105l206 187q71 65 97 104q28 40 28 85t-33 71.5t-87 26.5q-98 0 -189 -80v148q85 67 204 67q100 0 174 -59t74 -155q0 -74 -33 -131q-30 -54 -115 -133l-120 -110h292v-126z" unicode=""/>
<glyph glyph-name="uniF63B" d="M285 -14q-124 0 -213 56v137q92 -64 205 -64q64 0 105 31.5t41 85.5q0 51 -38 82.5t-101 31.5q-51 0 -99 -19v95l167 154h-258v124h442v-108l-158 -145q75 -13 132 -69q57 -55 57 -146q0 -112 -81 -179q-80 -67 -201 -67z" unicode=""/>
<glyph glyph-name="uniF63C" d="M374 519l-192 -228h192v228zM514 0h-140v175h-351v104l349 421h142v-409h103v-116h-103v-175z" unicode=""/>
<glyph glyph-name="uniF63D" d="M270 -14q-111 0 -199 50v135q89 -56 193 -56q68 0 111.5 31t43.5 86q0 52 -42.5 84t-113.5 32q-83 0 -168 -30l46 382h374v-124h-268l-15 -119q31 7 67 7q116 0 189 -64q75 -64 75 -168q0 -115 -85 -181q-85 -65 -208 -65z" unicode=""/>
<glyph glyph-name="uniF63E" d="M331 110q53 0 86.5 33.5t33.5 86.5q0 51 -34 84t-86 33q-41 0 -77 -25t-51 -63q3 -71 37 -110t91 -39zM340 -14q-132 0 -205.5 87t-73.5 241q0 79 20 150t58.5 127.5t101 89.5t141.5 33q90 0 158 -45v-130q-66 45 -142 45q-86 0 -136 -54q-49 -53 -55 -136q56 65 163 65 q95 0 160 -62q64 -61 64 -164q0 -109 -73 -178q-72 -69 -181 -69z" unicode=""/>
<glyph glyph-name="uniF63F" d="M277 0h-153l286 571h-331v129h494v-111z" unicode=""/>
<glyph glyph-name="uniF640" d="M455 208q0 44 -37 73t-93 29t-93.5 -29t-37.5 -73q0 -43 37.5 -72t93.5 -29t93 29t37 72zM216 506q0 -38 31.5 -62.5t77.5 -24.5t77 24.5t31 62.5q0 39 -31 63.5t-77 24.5t-77.5 -24.5t-31.5 -63.5zM474 373q59 -21 94.5 -68t35.5 -106q0 -99 -81 -156q-79 -57 -198 -57 q-118 0 -199 57t-81 156q0 59 35.5 106t94.5 68q-46 21 -72 60t-26 87q0 86 70 140q71 54 178 54q105 0 176 -54t71 -140q0 -48 -26 -87t-72 -60z" unicode=""/>
<glyph glyph-name="uniF641" d="M319 590q-53 0 -86.5 -33.5t-33.5 -86.5q0 -51 34 -84t86 -33q41 0 77 25t51 64q-3 71 -37 109.5t-91 38.5zM310 714q132 0 205.5 -87t73.5 -241q0 -79 -20 -150t-58.5 -127.5t-101 -89.5t-141.5 -33q-90 0 -158 45v130q66 -45 142 -45q86 0 135 54q50 55 56 136 q-56 -65 -163 -65q-96 0 -160 61t-64 165q0 109 72 178q73 69 182 69z" unicode=""/>
<glyph glyph-name="uniF643" d="M49 250q0 111 78 186q77 76 199 76t199 -76q78 -76 78 -186q0 -112 -78 -188q-78 -75 -199 -75t-199 75q-78 76 -78 188zM227 150q39 -40 99 -40t99 40q39 41 39 100q0 60 -39 99q-39 40 -99 40t-99 -40q-39 -39 -39 -99t39 -100z" unicode=""/>
<glyph glyph-name="uniF644" d="M593 0h-486v124h179v221l-148 -75v141l164 88h125v-375h166v-124z" unicode=""/>
<glyph glyph-name="uniF645" d="M564 0h-478v106q140 71 211 113l51 32q49 35 49 71q0 60 -90 60q-96 0 -202 -73v136q97 67 215 67q98 0 159 -46q62 -47 62 -126q0 -116 -153 -186l-65 -30h241v-124z" unicode=""/>
<glyph glyph-name="uniF646" d="M284 -206q-124 0 -213 56v137q92 -64 205 -64q64 0 105 31t41 84q0 50 -37.5 80.5t-101.5 30.5q-51 0 -99 -19v95l167 150h-258v124h442v-108l-158 -141q74 -13 132 -68q57 -52 57 -144q0 -111 -81 -177q-80 -67 -201 -67z" unicode=""/>
<glyph glyph-name="uniF647" d="M371 329l-188 -212h188v212zM514 -200h-143v200h-348v105l349 394h142v-382h103v-117h-103v-200z" unicode=""/>
<glyph glyph-name="uniF648" d="M284 -206q-111 0 -199 50v135q89 -56 193 -56q68 0 111.5 31t43.5 86q0 52 -42 83t-114 31q-81 0 -168 -31l45 376h374v-124h-269l-13 -113q32 8 66 8q116 0 190 -63q75 -63 75 -167q0 -116 -85 -180q-84 -66 -208 -66z" unicode=""/>
<glyph glyph-name="uniF649" d="M331 110q53 0 86.5 33.5t33.5 86.5q0 51 -34 84t-86 33q-41 0 -77 -25t-51 -63q3 -71 37 -110t91 -39zM340 -14q-132 0 -205.5 87t-73.5 241q0 79 20 150t58.5 127.5t101 89.5t141.5 33q90 0 158 -45v-130q-66 45 -142 45q-86 0 -136 -54q-49 -53 -55 -136q56 65 163 65 q95 0 160 -62q64 -61 64 -164q0 -109 -73 -178q-72 -69 -181 -69z" unicode=""/>
<glyph glyph-name="uniF64A" d="M279 -200h-152l284 571h-332v128h494v-111z" unicode=""/>
<glyph glyph-name="uniF64B" d="M455 208q0 44 -37 73t-93 29t-93.5 -29t-37.5 -73q0 -43 37.5 -72t93.5 -29t93 29t37 72zM216 506q0 -38 31.5 -62.5t77.5 -24.5t77 24.5t31 62.5q0 39 -31 63.5t-77 24.5t-77.5 -24.5t-31.5 -63.5zM474 373q59 -21 94.5 -68t35.5 -106q0 -99 -81 -156q-79 -57 -198 -57 q-118 0 -199 57t-81 156q0 59 35.5 106t94.5 68q-46 21 -72 60t-26 87q0 86 70 140q71 54 178 54q105 0 176 -54t71 -140q0 -48 -26 -87t-72 -60z" unicode=""/>
<glyph glyph-name="uniF64C" d="M325 388q-53 0 -86.5 -33.5t-33.5 -86.5q0 -51 34 -84t86 -33q41 0 77 25t51 64q-3 71 -37 109.5t-91 38.5zM316 512q132 0 205.5 -87t73.5 -241q0 -109 -34 -193q-35 -90 -110 -143.5t-177 -53.5q-90 0 -158 45v130q66 -45 142 -45q86 0 136 48.5t55 131.5 q-56 -65 -163 -65q-96 0 -160 61t-64 165q0 109 72 178q73 69 182 69z" unicode=""/>
<glyph glyph-name="uniF64E" horiz-adv-x="560" unicode="" d="M82 275h-66v61h78q25 82 98 129t161 47q82 0 148 -33v-111q-63 29 -125 29q-99 0 -136 -61h160v-61h-181q-2 -22 -2 -25q0 -6 2 -24h181v-61h-161q37 -63 137 -63q75 0 133 34v-111q-71 -38 -157 -38q-87 0 -160 47q-72 48 -98 131h-78v61h66q-1 5 -1 25q0 3 0.5 12.5 t0.5 11.5z"/>
<glyph glyph-name="uniF653" horiz-adv-x="512" unicode="" d="M317 -8v-91h-125v89q-96 10 -149 44v125q36 -24 91.5 -40.5t112.5 -16.5q86 0 86 42q0 20 -25 31q-13 6 -26 9l-37 9q-8 2 -21.5 5.5t-18.5 5.5q-89 24 -125.5 57.5t-36.5 97.5q0 58 39 96t110 51v92h125v-90q79 -10 133 -42v-120q-89 52 -181 52q-80 0 -80 -40 q0 -8 4.5 -14.5t9 -9.5t14.5 -9q6 -2 22 -6.5t21 -6.5l53 -11q83 -19 123 -56.5t40 -101.5q0 -58 -42.5 -98t-116.5 -53z"/>
<glyph glyph-name="commaaccent" horiz-adv-x="237" unicode="" d="M137 -270h-105l59 204h130z"/>
<glyph glyph-name="cyrbreve" horiz-adv-x="479" unicode="" d="M240 554q-80 0 -130 46.5t-51 124.5h106q0 -33 20 -53t54 -20q33 0 53 20t21 53h107q-1 -79 -52 -125q-50 -46 -128 -46z"/>
<glyph glyph-name="uniF6DC" d="M581 0h-492v126h181v420l-148 -75v141l164 88h125v-574h170v-126z" unicode=""/>
<glyph glyph-name="uniF721" horiz-adv-x="562" unicode="" d="M110 173h-55v60h444v-60h-241q-38 -11 -38 -38q0 -39 97 -39q80 0 152 28v-108q-72 -29 -166 -29q-52 0 -98 10t-83.5 40t-37.5 77q0 38 26 59zM449 332h50v-60h-444v60h248q35 12 35 34q0 38 -90 38q-76 0 -150 -27v106q74 30 164 30q78 0 138 -26q34 -13 53.5 -39.5 t19.5 -61.5q0 -34 -24 -54z"/>
<glyph glyph-name="uniF722" horiz-adv-x="613" unicode="" d="M345 395h-95v-151h95q44 0 69 20t25 55q0 36 -25 56t-69 20zM250 0h-137v58h-86v61h86v39h-86v86h86v255h259q92 0 144.5 -47.5t52.5 -123.5q0 -78 -55.5 -124t-148.5 -46h-115v-39h165v-61h-165v-58z"/>
<glyph glyph-name="uniF725" horiz-adv-x="570" unicode="" d="M130 197h-73v86h73v44q0 85 59.5 135t163.5 50q83 0 141 -26v-113q-64 24 -121 24q-51 0 -79.5 -24t-28.5 -66v-24h187v-86h-187v-30q0 -42 -25 -60h269v-107h-452v107h26q47 0 47 57v33z"/>
<glyph glyph-name="uniF727" horiz-adv-x="600" unicode="" d="M231 204h-146v61h116l-175 234h151l124 -177l125 177h148l-179 -234h120v-61h-147v-45h147v-61h-147v-98h-137v98h-146v61h146v45z"/>
<glyph glyph-name="uniF730" horiz-adv-x="625" unicode="" d="M36 250q0 111 78 186q77 76 199 76t199 -76q78 -76 78 -186q0 -112 -78 -188q-78 -75 -199 -75t-199 75q-78 76 -78 188zM214 150q39 -40 99 -40t99 40q39 41 39 100q0 60 -39 99q-39 40 -99 40t-99 -40q-39 -39 -39 -99t39 -100z"/>
<glyph glyph-name="uniF731" horiz-adv-x="386" unicode="" d="M317 0h-141v345l-148 -75v141l164 88h125v-499z"/>
<glyph glyph-name="uniF732" horiz-adv-x="574" unicode="" d="M522 0h-478v106q140 71 211 113l51 32q49 35 49 71q0 60 -90 60q-96 0 -202 -73v136q97 67 215 67q98 0 159 -46q62 -47 62 -126q0 -116 -153 -186l-65 -30h241v-124z"/>
<glyph glyph-name="uniF733" horiz-adv-x="565" unicode="" d="M239 -206q-124 0 -213 56v137q92 -64 205 -64q64 0 105 31t41 84q0 50 -37.5 80.5t-101.5 30.5q-51 0 -99 -19v95l167 150h-258v124h442v-108l-158 -141q74 -13 132 -68q57 -52 57 -144q0 -111 -81 -177q-80 -67 -201 -67z"/>
<glyph glyph-name="uniF734" horiz-adv-x="641" unicode="" d="M371 329l-188 -212h188v212zM514 -200h-143v200h-348v105l349 394h142v-382h103v-117h-103v-200z"/>
<glyph glyph-name="uniF735" horiz-adv-x="576" unicode="" d="M238 -206q-111 0 -199 50v135q89 -56 193 -56q68 0 111.5 31t43.5 86q0 52 -42 83t-114 31q-81 0 -168 -31l45 376h374v-124h-269l-13 -113q32 8 66 8q116 0 190 -63q75 -63 75 -167q0 -116 -85 -180q-84 -66 -208 -66z"/>
<glyph glyph-name="uniF736" horiz-adv-x="638" unicode="" d="M325 110q53 0 86.5 33.5t33.5 86.5q0 51 -34 84t-86 33q-41 0 -77 -25t-51 -63q3 -71 37 -110t91 -39zM334 -14q-132 0 -205.5 87t-73.5 241q0 79 20 150t58.5 127.5t101 89.5t141.5 33q90 0 158 -45v-130q-66 45 -142 45q-86 0 -136 -54q-49 -53 -55 -136q56 65 163 65 q95 0 160 -62q64 -61 64 -164q0 -109 -73 -178q-72 -69 -181 -69z"/>
<glyph glyph-name="uniF737" horiz-adv-x="563" unicode="" d="M234 -200h-152l284 571h-332v128h494v-111z"/>
<glyph glyph-name="uniF738" horiz-adv-x="638" unicode="" d="M449 208q0 44 -37 73t-93 29t-93.5 -29t-37.5 -73q0 -43 37.5 -72t93.5 -29t93 29t37 72zM210 506q0 -38 31.5 -62.5t77.5 -24.5t77 24.5t31 62.5q0 39 -31 63.5t-77 24.5t-77.5 -24.5t-31.5 -63.5zM468 373q59 -21 94.5 -68t35.5 -106q0 -99 -81 -156q-79 -57 -198 -57 q-118 0 -199 57t-81 156q0 59 35.5 106t94.5 68q-46 21 -72 60t-26 87q0 86 70 140q71 54 178 54q105 0 176 -54t71 -140q0 -48 -26 -87t-72 -60z"/>
<glyph glyph-name="uniF739" horiz-adv-x="638" unicode="" d="M318 388q-53 0 -86.5 -33.5t-33.5 -86.5q0 -51 34 -84t86 -33q41 0 77 25t51 64q-3 71 -37 109.5t-91 38.5zM309 512q132 0 205.5 -87t73.5 -241q0 -109 -34 -193q-35 -90 -110 -143.5t-177 -53.5q-91 0 -158 45v130q66 -45 142 -45q85 0 135.5 48.5t55.5 131.5 q-56 -65 -163 -65q-96 0 -160 61t-64 165q0 109 72 178q73 69 182 69z"/>
<glyph glyph-name="NULL" horiz-adv-x="0"/>
<glyph glyph-name="CR" horiz-adv-x="333"/>
<glyph glyph-name="adieresis.alt" d="M207 569q-30 0 -52 21.5t-22 52.5q0 30 22 51.5t52 21.5q31 0 52.5 -21t21.5 -52t-21.5 -52.5t-52.5 -21.5zM479 590q-21 -21 -52 -21q-32 0 -53 21t-21 53q0 31 21 52t53 21q31 0 52 -21q22 -22 22 -52q0 -31 -22 -53zM311 110q40 0 73 21t51 54v130q-18 33 -51 53.5 t-73 20.5q-60 0 -97 -40q-38 -41 -38 -99q0 -59 38 -100q37 -40 97 -40zM271 -13q-101 0 -169 75q-66 76 -66 188q0 111 66 186q67 76 169 76q105 0 164 -74v61h141v-499h-141v61q-56 -74 -164 -74z" horiz-adv-x="645"/>
<glyph glyph-name="cyrbreve.cap" d="M70 909h106q0 -33 20.5 -53t55.5 -20t56 20t22 53h106q-1 -78 -52 -124.5t-131 -46.5t-131 46.5t-52 124.5z" horiz-adv-x="506"/>
<glyph glyph-name="idieresis_idieresis" d="M317 590q-21 -21 -52 -21q-32 0 -53 21t-21 53q0 31 21 52t53 21q31 0 52 -21q22 -22 22 -52q0 -31 -22 -53zM560 590q-21 -21 -52 -21q-32 0 -53 21t-21 53q0 31 21 52t53 21q31 0 52 -21q22 -22 22 -52q0 -31 -22 -53zM204 0h-141v499h141v-499zM23 569q-30 0 -52 21.5 t-22 52.5q0 30 22 51.5t52 21.5q31 0 52.5 -21t21.5 -52t-21.5 -52.5t-52.5 -21.5zM469 0h-141v499h141v-499z" horiz-adv-x="531"/>
<glyph glyph-name="peseta.mono" d="M208 574v-174h152q52 0 81 22.5t29 64.5t-29 64.5t-81 22.5h-152zM208 0h-144v426h-91v111h91v163h306q96 0 159.5 -44t79.5 -119h81v-111h-85q-21 -69 -82.5 -109t-152.5 -40h-162v-277z"/>
<glyph glyph-name="lira.mono" d="M152 362h-81v79h81v34q0 111 68 175t185 64q93 0 160 -35v-134q-62 34 -137 34q-132 0 -132 -124v-14h211v-79h-211v-61h211v-79h-211v-31q0 -44 -29 -62h314v-129h-510v129h14q41 0 54 17.5t13 64.5v11h-81v79h81v61z"/>
<glyph glyph-name="pesolow" d="M334 390h-98v-139h98q41 0 64 18.5t23 51.5t-23 51t-64 18zM95 276h-91v86h91v137h268q79 0 130.5 -37.5t64.5 -99.5h77v-86h-79q-15 -61 -68 -95.5t-132 -34.5h-120v-146h-141v276z" horiz-adv-x="654"/>
<glyph glyph-name="franclow" d="M218 0h-135v58h-68v61h68v380h419v-115h-284v-100h215v-106h-215v-59h114v-61h-114v-58z" horiz-adv-x="535"/>
<glyph glyph-name="liralow" d="M130 268h-73v61h73q1 85 60 134t163 49q83 0 141 -26v-113q-64 24 -121 24q-91 0 -106 -68h185v-61h-187v-45h187v-61h-187q-1 -39 -25 -55h269v-107h-452v107h26q46 0 47 55h-73v61h73v45z" horiz-adv-x="570"/>
<glyph glyph-name="uni20B6.mono" d="M248 574v-194h139q55 0 86.5 25.5t31.5 71.5q0 47 -31.5 72t-86.5 25h-139zM105 277h-110v103h110v320h301q111 0 178 -59q66 -58 66 -152q0 -95 -66 -153q-67 -59 -178 -59h-158v-66h254v-103h-254v-108h-143v108h-110v103h110v66z"/>
<glyph glyph-name="liralow.mono" d="M161 268h-73v61h73q1 85 60 134t163 49q83 0 141 -26v-113q-64 24 -121 24q-91 0 -106 -68h185v-61h-187v-45h187v-61h-187q-1 -39 -25 -55h269v-107h-452v107h26q46 0 47 55h-73v61h73v45z"/>
<glyph glyph-name="franclow.mono" d="M264 0h-135v58h-68v61h68v380h419v-115h-284v-100h215v-106h-215v-59h114v-61h-114v-58z"/>
<glyph glyph-name="uniF64E.mono" d="M125 275h-66v61h78q25 82 98 129t161 47q82 0 148 -33v-111q-63 29 -125 29q-99 0 -136 -61h160v-61h-181q-2 -22 -2 -25q0 -6 2 -24h181v-61h-161q38 -63 137 -63q74 0 133 34v-111q-71 -38 -157 -38q-87 0 -160 47q-72 48 -98 131h-78v61h66q-1 5 -1 25q0 3 0.5 12.5 t0.5 11.5z"/>
<glyph glyph-name="pesolow.mono" d="M334 390h-98v-139h98q41 0 64 18.5t23 51.5t-23 51t-64 18zM95 276h-91v86h91v137h268q79 0 130.5 -37.5t64.5 -99.5h77v-86h-79q-15 -61 -68 -95.5t-132 -34.5h-120v-146h-141v276z"/>
<glyph glyph-name="uniF722.mono" d="M369 395h-95v-151h95q44 0 69 20t25 55q0 36 -25 56t-69 20zM274 0h-137v58h-86v61h86v39h-86v86h86v255h259q92 0 144.5 -47.5t52.5 -123.5q0 -78 -55.5 -124t-148.5 -46h-115v-39h165v-61h-165v-58z"/>
<glyph glyph-name="o_o" d="M629 150q39 -40 99 -40t99 40q39 41 39 100q0 60 -39 99q-39 40 -99 40t-99 -40q-39 -39 -39 -99t39 -100zM214 150q39 -40 99 -40t99 40q39 41 39 100q0 60 -39 99q-39 40 -99 40t-99 -40q-39 -39 -39 -99t39 -100zM313 -13q-121 0 -199 75q-78 76 -78 188q0 111 78 186 q77 76 199 76q130 0 207 -92q77 92 208 92q122 0 199 -76q78 -76 78 -186q0 -112 -78 -188q-78 -75 -199 -75q-133 0 -208 91q-75 -91 -207 -91z" horiz-adv-x="1040"/>
<glyph glyph-name="o_c" d="M214 150q39 -40 99 -40t99 40q39 41 39 100q0 60 -39 99q-39 40 -99 40t-99 -40q-39 -39 -39 -99t39 -100zM723 -13q-119 0 -203 92q-83 -92 -207 -92q-121 0 -199 75q-78 76 -78 188q0 111 78 186q77 76 199 76q121 0 207 -92q84 92 205 92q82 0 148 -33v-120 q-65 30 -127 30q-66 0 -111 -39q-44 -38 -44 -100t45 -101t110 -39q77 0 135 34v-120q-70 -37 -158 -37z" horiz-adv-x="932"/>
<glyph glyph-name="O_O" d="M840 186q62 -65 155 -65q92 0 154 65t62 164t-62 164t-154 65q-93 0 -155 -65q-61 -64 -61 -164t61 -164zM261 186q62 -65 155 -65q92 0 154 65t62 164t-62 164t-154 65q-93 0 -155 -65q-61 -64 -61 -164t61 -164zM416 -14q-157 0 -260 106t-103 258q0 154 103 258 q103 106 260 106q89 0 164.5 -37t124.5 -104q51 67 126 104t164 37q156 0 259 -106q104 -106 104 -258q0 -151 -104 -258q-103 -106 -259 -106q-89 0 -164 37t-126 103q-49 -66 -124.5 -103t-164.5 -37z" horiz-adv-x="1411"/>
<glyph glyph-name="O_C" d="M261 186q62 -65 155 -65q92 0 154 65t62 164t-62 164t-154 65q-93 0 -155 -65q-61 -64 -61 -164t61 -164zM1011 -14q-95 0 -174.5 37t-131.5 104q-49 -67 -124.5 -104t-164.5 -37q-157 0 -260 106t-103 258q0 154 103 258q103 106 260 106q89 0 164.5 -37t124.5 -104 q52 67 131.5 104t174.5 37q102 0 185 -44v-145q-81 54 -184 54q-99 0 -167 -65q-66 -64 -66 -164t68 -165q67 -64 171 -64q115 0 192 61v-145q-86 -51 -199 -51z" horiz-adv-x="1256"/>
<glyph glyph-name="Idieresis_Idieresis" d="M346 781q-21 -21 -52 -21q-32 0 -53 21t-21 53q0 31 21 52t53 21q31 0 52 -21t21 -52q0 -32 -21 -53zM595 781q-21 -21 -52 -21q-32 0 -53 21t-21 53q0 31 21 52t53 21q31 0 52 -21t21 -52q0 -32 -21 -53zM504 0h-143v700h143v-700zM225 0h-143v700h143v-700zM44 760 q-30 0 -52 21.5t-22 52.5q0 30 22 51.5t52 21.5q31 0 52.5 -21t21.5 -52t-21.5 -52.5t-52.5 -21.5z" horiz-adv-x="586"/>
<glyph glyph-name="threequarters.mono" d="M266 0h-108l422 700h108zM160 315q-71 0 -122 30v88q55 -34 114 -34q31 0 51.5 14t20.5 37q0 22 -17.5 35.5t-47.5 13.5q-36 0 -61 -11v59l87 73h-136v80h253v-71l-80 -69q43 -9 70.5 -36.5t27.5 -75.5q0 -59 -47 -97q-47 -36 -113 -36zM663 272l-93 -108h93v108zM755 0 h-92v90h-190v68l185 220h97v-214h54v-74h-54v-90z" horiz-adv-x="852"/>
<glyph glyph-name="franc.mono" d="M99 108h-102v103h102v489h513v-131h-369v-140h285v-128h-285v-90h149v-103h-149v-108h-144v108z"/>
<glyph glyph-name="uniF727.mono" d="M256 204h-146v61h116l-175 234h151l124 -177l125 177h148l-179 -234h120v-61h-147v-45h147v-61h-147v-98h-137v98h-146v61h146v45z"/>
<glyph glyph-name="circumflex.cap" d="M187 762h-122l122 145h136l119 -145h-123l-67 77z" horiz-adv-x="514"/>
<glyph glyph-name="agrave.alt" d="M146 722h171l95 -146h-122zM311 110q40 0 73 21t51 54v130q-18 33 -51 53.5t-73 20.5q-60 0 -97 -40q-38 -41 -38 -99q0 -59 38 -100q37 -40 97 -40zM271 -13q-101 0 -169 75q-66 76 -66 188q0 111 66 186q67 76 169 76q105 0 164 -74v61h141v-499h-141v61 q-56 -74 -164 -74z" horiz-adv-x="645"/>
<glyph glyph-name="macron.cap" d="M419 785h-306v95h306v-95z" horiz-adv-x="541"/>
<glyph glyph-name="aacute.alt" d="M337 570h-122l95 146h170zM311 110q40 0 73 21t51 54v130q-18 33 -51 53.5t-73 20.5q-60 0 -97 -40q-38 -41 -38 -99q0 -59 38 -100q37 -40 97 -40zM271 -13q-101 0 -169 75q-66 76 -66 188q0 111 66 186q67 76 169 76q105 0 164 -74v61h141v-499h-141v61 q-56 -74 -164 -74z" horiz-adv-x="645"/>
<glyph glyph-name="grave.cap" d="M100 907h170l95 -146h-122z" horiz-adv-x="504"/>
<glyph glyph-name="uniF653.mono" d="M382 -8v-91h-125v89q-96 10 -149 44v125q36 -24 91.5 -40.5t112.5 -16.5q86 0 86 42q0 20 -25 31q-13 6 -26 9l-37 9q-8 2 -21.5 5.5t-18.5 5.5q-89 24 -125.5 57.5t-36.5 97.5q0 58 39 96t110 51v92h125v-90q79 -10 133 -42v-120q-89 52 -181 52q-80 0 -80 -40 q0 -8 4.5 -14.5t9 -9.5t14.5 -9q6 -2 22 -6.5t21 -6.5l53 -11q83 -19 123 -56.5t40 -101.5q0 -58 -42.5 -98t-116.5 -53z"/>
<glyph glyph-name="onehalf.mono" d="M802 0h-281v69l108 92q65 56 65 93q0 20 -15.5 31.5t-40.5 11.5q-54 0 -104 -39v95q47 32 112 32q56 0 100 -33q44 -32 44 -86q0 -41 -17.5 -72t-62.5 -71l-48 -43h140v-80zM246 322h-96v280l-101 -51v94l105 55h92v-378zM239 0h-108l422 700h108z" horiz-adv-x="852"/>
<glyph glyph-name="onequarter.mono" d="M646 272l-93 -108h93v108zM738 0h-92v90h-190v68l185 220h97v-214h54v-74h-54v-90zM256 322h-96v280l-101 -51v94l105 55h92v-378zM249 0h-108l422 700h108z" horiz-adv-x="852"/>
<glyph glyph-name="oneeighth.mono" d="M665 227q22 0 36.5 11.5t14.5 29.5q0 19 -14.5 30.5t-36.5 11.5q-23 0 -38 -11.5t-15 -30.5q0 -18 15 -29.5t38 -11.5zM665 70q27 0 44.5 14t17.5 34q0 22 -17.5 35.5t-44.5 13.5q-28 0 -45.5 -13.5t-17.5 -35.5q0 -21 17.5 -34.5t45.5 -13.5zM665 -7q-69 0 -114 31 t-45 86q0 29 20 55t48 36q-22 10 -36 31t-14 46q0 47 40 77t101 30q60 0 100 -30t40 -77q0 -24 -14.5 -45.5t-35.5 -31.5q30 -10 49 -35.5t19 -55.5q0 -55 -45 -86t-113 -31zM258 322h-96v280l-101 -51v94l105 55h92v-378zM251 0h-108l422 700h108z" horiz-adv-x="890"/>
<glyph glyph-name="threeeighths.mono" d="M164 315q-71 0 -122 30v88q55 -34 114 -34q31 0 51.5 14t20.5 37q0 22 -17.5 35.5t-47.5 13.5q-36 0 -61 -11v59l87 73h-136v80h253v-71l-80 -69q43 -9 70.5 -36.5t27.5 -75.5q0 -59 -47 -97q-47 -36 -113 -36zM685 227q22 0 36.5 11.5t14.5 29.5q0 19 -14.5 30.5 t-36.5 11.5q-23 0 -38 -11.5t-15 -30.5q0 -18 15 -29.5t38 -11.5zM685 70q27 0 44.5 14t17.5 34q0 22 -17.5 35.5t-44.5 13.5q-28 0 -45.5 -13.5t-17.5 -35.5q0 -21 17.5 -34.5t45.5 -13.5zM685 -7q-69 0 -114 31t-45 86q0 29 20 55t48 36q-22 10 -36 31t-14 46q0 47 40 77 t101 30q60 0 100 -30t40 -77q0 -24 -14.5 -45.5t-35.5 -31.5q30 -10 49 -35.5t19 -55.5q0 -55 -45 -86t-113 -31zM271 0h-108l422 700h108z" horiz-adv-x="890"/>
<glyph glyph-name="fiveeighths.mono" d="M271 0h-108l422 700h108zM160 315q-66 0 -112 27v89q50 -32 108 -32q32 0 53 13.5t21 38.5q0 23 -20 37t-55 14q-47 0 -95 -15l25 213h216v-80h-144l-5 -48q10 2 26 2q66 0 107 -33.5t41 -89.5q0 -65 -48 -101q-49 -35 -118 -35zM685 227q22 0 36.5 11.5t14.5 29.5 q0 19 -14.5 30.5t-36.5 11.5q-23 0 -38 -11.5t-15 -30.5q0 -18 15 -29.5t38 -11.5zM685 70q27 0 44.5 14t17.5 34q0 22 -17.5 35.5t-44.5 13.5q-28 0 -45.5 -13.5t-17.5 -35.5q0 -21 17.5 -34.5t45.5 -13.5zM685 -7q-69 0 -114 31t-45 86q0 29 20 55t48 36q-22 10 -36 31 t-14 46q0 47 40 77t101 30q60 0 100 -30t40 -77q0 -24 -14.5 -45.5t-35.5 -31.5q30 -10 49 -35.5t19 -55.5q0 -55 -45 -86t-113 -31z" horiz-adv-x="890"/>
<glyph glyph-name="seveneighths.mono" d="M202 322h-104l151 298h-173v80h282v-75zM664 227q22 0 36.5 11.5t14.5 29.5q0 19 -14.5 30.5t-36.5 11.5q-23 0 -38 -11.5t-15 -30.5q0 -18 15 -29.5t38 -11.5zM664 70q27 0 44.5 14t17.5 34q0 22 -17.5 35.5t-44.5 13.5q-28 0 -45.5 -13.5t-17.5 -35.5q0 -21 17.5 -34.5 t45.5 -13.5zM664 -7q-69 0 -114 31t-45 86q0 29 20 55t48 36q-22 10 -36 31t-14 46q0 47 40 77t101 30q60 0 100 -30t40 -77q0 -24 -14.5 -45.5t-35.5 -31.5q30 -10 49 -35.5t19 -55.5q0 -55 -45 -86t-113 -31zM250 0h-108l422 700h108z" horiz-adv-x="890"/>
<glyph glyph-name="ring.cap" d="M218 805q16 -13 33 -13q19 0 32 13q14 14 14 33q0 21 -14 32q-11 14 -32 14q-19 0 -33 -14q-13 -13 -13 -32q0 -17 13 -33zM325 764q-31 -31 -74 -31t-74 31t-31 74t31 74t74 31t74 -31t31 -74t-31 -74z" horiz-adv-x="518"/>
<glyph glyph-name="caron.cap" d="M336 907h122l-122 -146h-136l-119 146h123l67 -78z" horiz-adv-x="538"/>
<glyph glyph-name="dotaccent.cap" d="M201 760q-30 0 -52 21.5t-22 52.5q0 30 22 51.5t52 21.5q31 0 52.5 -21.5t21.5 -51.5q0 -31 -21.5 -52.5t-52.5 -21.5z" horiz-adv-x="415"/>
<glyph glyph-name="breve.cap" d="M88 909h95q2 -33 21 -53t49 -20t49 20t21 53h95q-2 -75 -50 -119q-47 -44 -115 -44q-67 0 -116 44q-48 44 -49 119z" horiz-adv-x="512"/>
<glyph glyph-name="hungarumlaut.cap" d="M193 761h-123l95 146h172zM421 761h-123l95 146h172z" horiz-adv-x="626"/>
<glyph glyph-name="dollar.mono" d="M388 -109h-130v99q-121 13 -203 71v150q44 -38 116 -66q73 -27 144 -27q59 0 97 21.5t38 59.5q0 41 -36 58q-15 9 -40 18l-24 8l-56 17l-52 17q-11 3 -47 17q-31 12 -45 21q-52 36 -66 61q-24 48 -24 98q0 80 52 130.5t146 64.5v100h130v-99q82 -10 165 -54v-140 q-107 66 -227 66q-119 0 -119 -69q0 -30 37 -48q22 -12 57 -21q47 -13 76 -22q87 -27 152 -73q70 -49 70 -146q0 -83 -58 -139.5t-153 -71.5v-101z"/>
<glyph glyph-name="yen.mono" d="M58 129v94h196v70h-196v95h156l-215 312h162l166 -250l167 250h157l-215 -312h158v-95h-197v-70h197v-94h-197v-129h-143v129h-196z"/>
<glyph glyph-name="sterling.mono" d="M581 0h-510v129h14q41 0 54 17.5t13 64.5v71h-81v111h81v82q0 111 68 175t185 64q93 0 160 -35v-134q-62 34 -137 34q-132 0 -132 -124v-62h225v-111h-225v-91q0 -44 -29 -62h314v-129z"/>
<glyph glyph-name="onethird.mono" d="M641 -7q-71 0 -122 30v88q55 -34 114 -34q31 0 51.5 14t20.5 37q0 22 -17.5 35.5t-47.5 13.5q-36 0 -61 -11v59l87 73h-136v80h253v-71l-80 -69q43 -9 70.5 -36.5t27.5 -75.5q0 -59 -47 -97q-46 -36 -113 -36zM246 322h-96v280l-101 -51v94l105 55h92v-378zM239 0h-108 l422 700h108z" horiz-adv-x="852"/>
<glyph glyph-name="twothirds.mono" d="M277 0h-108l422 700h108zM660 -7q-71 0 -122 30v88q55 -34 114 -34q31 0 51.5 14t20.5 37q0 22 -17.5 35.5t-47.5 13.5q-36 0 -61 -11v59l87 73h-136v80h253v-71l-80 -69q43 -9 70.5 -36.5t27.5 -75.5q0 -59 -47 -97q-47 -36 -113 -36zM313 322h-281v69l108 92 q65 56 65 93q0 20 -15.5 31.5t-40.5 11.5q-55 0 -104 -39v95q47 32 112 32q57 0 100 -33q44 -32 44 -86q0 -41 -17.5 -72t-62.5 -71l-48 -43h140v-80z" horiz-adv-x="852"/>
<glyph glyph-name="Euro.mono" d="M462 479v-86h-215q-2 -30 -2 -36q0 -9 2 -31h215v-87h-196q22 -58 72 -89.5t119 -31.5q92 0 158 51v-141q-71 -42 -176 -42q-127 0 -212 69q-87 72 -115 184h-82v87h69q-1 8 -1 33q0 4 2 34h-70v86h87q31 105 117 170t205 65q93 0 161 -37v-136q-68 41 -143 41 q-135 0 -184 -103h189z"/>
<glyph glyph-name="tilde.cap" d="M159 765h-77q1 60 32.5 100t81.5 40q31 0 71 -22t61 -22q34 0 43 41h76q0 -55 -32 -99q-31 -42 -81 -42q-32 0 -72 22q-41 23 -61 23q-34 0 -42 -41z" horiz-adv-x="509"/>
<glyph glyph-name="uniF725.mono" d="M161 197h-73v86h73v44q0 85 59.5 135t163.5 50q83 0 141 -26v-113q-64 24 -121 24q-51 0 -79.5 -24t-28.5 -66v-24h187v-86h-187v-30q0 -42 -25 -60h269v-107h-452v107h26q47 0 47 57v33z"/>
<glyph glyph-name="acute.cap" d="M224 761h-122l95 146h170z" horiz-adv-x="449"/>
<glyph glyph-name="acircumflex.alt" d="M242 570h-121l122 146h136l119 -146h-124l-66 78zM311 110q40 0 73 21t51 54v130q-18 33 -51 53.5t-73 20.5q-60 0 -97 -40q-38 -41 -38 -99q0 -59 38 -100q37 -40 97 -40zM271 -13q-101 0 -169 75q-66 76 -66 188q0 111 66 186q67 76 169 76q105 0 164 -74v61h141v-499 h-141v61q-56 -74 -164 -74z" horiz-adv-x="645"/>
<glyph glyph-name="dieresis.cap" d="M145 760q-30 0 -52 21.5t-22 52.5q0 30 22 51.5t52 21.5q31 0 52.5 -21t21.5 -52t-21.5 -52.5t-52.5 -21.5zM417 781q-21 -21 -52 -21q-32 0 -53 21t-21 53q0 31 21 52t53 21q31 0 52 -21t21 -52q0 -32 -21 -53z" horiz-adv-x="497"/>
<glyph glyph-name="uniF721.mono" d="M140 173h-55v60h444v-60h-241q-38 -11 -38 -38q0 -39 97 -39q80 0 152 28v-108q-72 -29 -166 -29q-52 0 -98 10t-83.5 40t-37.5 77q0 38 26 59zM479 332h50v-60h-444v60h248q35 12 35 34q0 38 -90 38q-76 0 -150 -27v106q74 30 164 30q78 0 138 -26q34 -13 53.5 -39.5 t19.5 -61.5q0 -34 -24 -54z"/>
<glyph glyph-name="uni20B4.mono" d="M344 -14q-108 0 -180 45q-71 47 -71 134q0 58 44 96h-70v79h510v-79h-270q-60 -29 -60 -76q0 -70 122 -70q39 0 92 11q49 12 84 29v-132q-83 -37 -201 -37zM577 388h-510v79h291q33 19 33 55q0 65 -114 65q-89 0 -164 -33v129q68 31 183 31q107 0 178 -46q72 -45 72 -130 q0 -47 -28 -71h59v-79z"/>
<glyph glyph-name="atilde.alt" d="M215 576h-76q0 59 31 99q32 41 82 41q31 0 71 -22q41 -22 62 -22q34 0 42 41h77q-2 -55 -33 -99q-31 -42 -80 -42q-32 0 -72 22q-41 23 -61 23q-34 0 -43 -41zM311 110q40 0 73 21t51 54v130q-18 33 -51 53.5t-73 20.5q-60 0 -97 -40q-38 -41 -38 -99q0 -59 38 -100 q37 -40 97 -40zM271 -13q-101 0 -169 75q-66 76 -66 188q0 111 66 186q67 76 169 76q105 0 164 -74v61h141v-499h-141v61q-56 -74 -164 -74z" horiz-adv-x="645"/>
<glyph glyph-name="aring.alt" d="M277 617q16 -13 33 -13q19 0 32 13q14 14 14 33q0 21 -14 32q-11 14 -32 14q-19 0 -33 -14q-13 -13 -13 -32q0 -17 13 -33zM384 576q-31 -31 -74 -31t-74 31t-31 74t31 74t74 31t74 -31t31 -74t-31 -74zM311 110q40 0 73 21t51 54v130q-18 33 -51 53.5t-73 20.5 q-60 0 -97 -40q-38 -41 -38 -99q0 -59 38 -100q37 -40 97 -40zM271 -13q-101 0 -169 75q-66 76 -66 188q0 111 66 186q67 76 169 76q105 0 164 -74v61h141v-499h-141v61q-56 -74 -164 -74z" horiz-adv-x="645"/>
<glyph glyph-name="uni2155.mono" d="M623 -7q-65 0 -112 27v89q50 -32 108 -32q32 0 53 13.5t21 38.5q0 23 -20 37t-55 14q-47 0 -95 -15l25 213h216v-80h-144l-5 -48q10 2 26 2q66 0 107 -33.5t41 -89.5q0 -65 -48 -101q-49 -35 -118 -35zM256 322h-96v280l-101 -51v94l105 55h92v-378zM249 0h-108l422 700 h108z" horiz-adv-x="852"/>
<glyph glyph-name="uni2156.mono" d="M286 0h-108l422 700h108zM641 -7q-65 0 -112 27v89q50 -32 108 -32q32 0 53 13.5t21 38.5q0 23 -20 37t-55 14q-47 0 -95 -15l25 213h216v-80h-144l-5 -48q10 2 26 2q66 0 107 -33.5t41 -89.5q0 -65 -48 -101q-49 -35 -118 -35zM323 322h-281v69l108 92q65 56 65 93 q0 20 -15.5 31.5t-40.5 11.5q-55 0 -104 -39v95q47 32 112 32q57 0 100 -33q44 -32 44 -86q0 -41 -17.5 -72t-62.5 -71l-48 -43h140v-80z" horiz-adv-x="852"/>
<glyph glyph-name="uni2157.mono" d="M163 315q-71 0 -122 30v88q55 -34 114 -34q31 0 51.5 14t20.5 37q0 22 -17.5 35.5t-47.5 13.5q-36 0 -61 -11v59l87 73h-136v80h253v-71l-80 -69q43 -9 70.5 -36.5t27.5 -75.5q0 -59 -47 -97q-47 -36 -113 -36zM643 -7q-65 0 -112 27v89q50 -32 108 -32q32 0 53 13.5 t21 38.5q0 23 -20 37t-55 14q-47 0 -95 -15l25 213h216v-80h-144l-5 -48q10 2 26 2q66 0 107 -33.5t41 -89.5q0 -65 -48 -101q-49 -35 -118 -35zM270 0h-108l422 700h108z" horiz-adv-x="852"/>
<glyph glyph-name="uni2158.mono" d="M295 0h-108l422 700h108zM650 -7q-66 0 -112 27v89q50 -32 108 -32q32 0 53 13.5t21 38.5q0 23 -20 37t-55 14q-47 0 -95 -15l25 213h216v-80h-144l-5 -48q10 2 26 2q66 0 107 -33.5t41 -89.5q0 -65 -48 -101q-49 -35 -118 -35zM224 594l-93 -108h93v108zM316 322h-92v90 h-190v68l185 220h97v-214h54v-74h-54v-90z" horiz-adv-x="852"/>
<glyph glyph-name="uni2159.mono" d="M249 0h-108l422 700h108zM255 322h-96v280l-101 -51v94l105 55h92v-378zM643 70q26 0 41.5 16.5t15.5 41.5q0 22 -16.5 38t-40.5 16q-18 0 -35 -10.5t-25 -27.5q1 -34 17.5 -54t42.5 -20zM649 -7q-75 0 -116.5 47.5t-41.5 129.5q0 90 46 152q47 63 136 63q56 0 90 -23 v-84q-35 24 -79 24q-39 0 -64.5 -22.5t-28.5 -61.5q28 34 80 34q55 0 89.5 -33.5t34.5 -90.5q0 -60 -41.5 -97.5t-104.5 -37.5z" horiz-adv-x="852"/>
<glyph glyph-name="uni215A.mono" d="M152 315q-66 0 -112 27v89q50 -32 108 -32q32 0 53 13.5t21 38.5q0 23 -20 37t-55 14q-47 0 -95 -15l25 213h216v-80h-144l-5 -48q10 2 26 2q66 0 107 -33.5t41 -89.5q0 -65 -48 -101q-49 -35 -118 -35zM660 70q26 0 41.5 16.5t15.5 41.5q0 22 -16.5 38t-40.5 16 q-18 0 -35 -10.5t-25 -27.5q1 -34 17.5 -54t42.5 -20zM666 -7q-75 0 -116.5 47.5t-41.5 129.5q0 90 46 152q46 63 136 63q56 0 90 -23v-84q-34 24 -79 24q-39 0 -64.5 -22.5t-28.5 -61.5q28 34 80 34q55 0 89.5 -33.5t34.5 -90.5q0 -61 -42 -98q-41 -37 -104 -37zM265 0 h-108l422 700h108z" horiz-adv-x="852"/>
<glyph glyph-name="Q.alt02" d="M261 186q62 -65 155 -65q92 0 154 65t62 164t-62 164t-154 65q-93 0 -155 -65q-61 -64 -61 -164t61 -164zM246 -168v124q47 30 96 37q-129 26 -209 124q-80 101 -80 233q0 154 103 258q103 106 260 106q156 0 259 -106q104 -106 104 -258q0 -138 -89 -242 q-89 -103 -225 -119q39 -7 122 -39q107 -40 159 -40q33 0 56 14v-119q-24 -11 -64 -11q-63 0 -180 45q-108 42 -164 42q-90 0 -148 -49z" horiz-adv-x="840"/>
<glyph glyph-name="amacron.alt" d="M472 595h-307v95h307v-95zM311 110q40 0 73 21t51 54v130q-18 33 -51 53.5t-73 20.5q-60 0 -97 -40q-38 -41 -38 -99q0 -59 38 -100q37 -40 97 -40zM271 -13q-101 0 -169 75q-66 76 -66 188q0 111 66 186q67 76 169 76q105 0 164 -74v61h141v-499h-141v61 q-56 -74 -164 -74z" horiz-adv-x="645"/>
<glyph glyph-name="Q.alt01" d="M416 121q63 0 111 30l-151 190h154l78 -99q24 51 24 108q0 99 -62 164t-154 65q-93 0 -155 -65q-61 -64 -61 -164t61 -164q62 -65 155 -65zM416 -14q-157 0 -260 106t-103 258q0 154 103 258q103 106 260 106q156 0 259 -106q104 -106 104 -258q0 -130 -76 -227l98 -123 h-154l-34 42q-88 -56 -197 -56z" horiz-adv-x="846"/>
<glyph glyph-name="aogonek.alt" d="M311 110q40 0 73 21t51 54v130q-18 33 -51 53.5t-73 20.5q-60 0 -97 -40q-38 -41 -38 -99q0 -59 38 -100q37 -40 97 -40zM571 -202q-59 0 -93.5 29t-34.5 74q0 54 45 99h-53v61q-56 -74 -164 -74q-101 0 -169 75q-66 76 -66 188q0 111 66 186q67 76 169 76q105 0 164 -74 v61h141v-499q-35 -35 -35 -70q0 -22 14.5 -34.5t39.5 -12.5q23 0 36 7v-84q-22 -8 -60 -8z" horiz-adv-x="645"/>
<glyph glyph-name="abreve.alt" d="M314 561q-70 0 -116.5 44.5t-49.5 117.5h96q2 -33 21 -53t49 -20t48.5 20t20.5 53h95q-2 -74 -49 -118t-115 -44zM311 110q40 0 73 21t51 54v130q-18 33 -51 53.5t-73 20.5q-60 0 -97 -40q-38 -41 -38 -99q0 -59 38 -100q37 -40 97 -40zM271 -13q-101 0 -169 75 q-66 76 -66 188q0 111 66 186q67 76 169 76q105 0 164 -74v61h141v-499h-141v61q-56 -74 -164 -74z" horiz-adv-x="645"/>
<glyph glyph-name="gcommaaccent.alt" d="M279 778h105l-59 -204h-130zM371 304q0 41 -28.5 68.5t-72.5 27.5t-73 -27.5t-29 -68.5q0 -42 29 -69t73 -27t72.5 27t28.5 69zM424 461l139 51v-112l-75 -30q14 -33 14 -66q0 -63 -34 -113q69 -65 69 -161q0 -100 -75 -168q-76 -68 -191 -68q-110 0 -188 66 q-77 66 -77 182h143q0 -59 33.5 -92.5t88.5 -33.5q54 0 89 33t35 81q0 52 -37 83q-42 -17 -88 -17q-104 0 -168 60q-65 60 -65 148t65 148q64 60 168 60q90 0 154 -51z" horiz-adv-x="592"/>
<glyph glyph-name="f_f_t" d="M248 381v-381h-141v381h-89v118h89v47q0 76 44 121t125 45q73 0 127 -21v-114q-45 17 -86 17q-69 0 -69 -67v-28h219v47q0 76 44 121t125 45q73 0 127 -21v-114q-45 17 -86 17q-69 0 -69 -67v-28h219v137h141v-137h142v-118h-142v-198q0 -37 16 -53.5t52 -16.5 q37 0 73 18v-117q-43 -27 -119 -27q-163 0 -163 168v226h-219v-381h-141v381h-219z" horiz-adv-x="1152"/>
<glyph glyph-name="t.alt" d="M60 155v481h141v-137h142v-118h-142v-198q0 -37 16 -53.5t52 -16.5q37 0 73 18v-117q-44 -27 -119 -27q-163 0 -163 168z" horiz-adv-x="385"/>
<glyph glyph-name="f.alt01" d="M210 381v-381h-141v546q0 76 44 121t125 45q73 0 127 -21v-114q-45 17 -86 17q-69 0 -69 -67v-28h155v-118h-155z" horiz-adv-x="387"/>
<glyph glyph-name="f_j" d="M452 631q0 36 24.5 60.5t59.5 24.5t60 -24.5t25 -60.5q0 -35 -25 -59.5t-60 -24.5t-59.5 24.5t-24.5 59.5zM427 -206q-74 0 -111 22v120q35 -19 75 -19q76 0 76 79v385h-219v-381h-141v381h-89v118h89v47q0 76 44 121t125 45q73 0 127 -21v-114q-45 17 -86 17 q-69 0 -69 -67v-28h360v-517q0 -89 -48.5 -138.5t-132.5 -49.5z" horiz-adv-x="684"/>
<glyph glyph-name="T_h" d="M713 318v-318h-141v571h-177v-571h-144v571h-221v129h683v-262q68 74 167 74q86 0 134 -54.5t48 -151.5v-306h-141v277q0 54 -26.5 80t-68.5 26q-32 0 -63.5 -18.5t-49.5 -46.5z" horiz-adv-x="1121"/>
<glyph glyph-name="uni043F_uni0438" d="M210 0h-141v499h479v-294l226 294h132v-499h-139v291l-226 -291h-132v381h-199v-381z" horiz-adv-x="975"/>
<glyph glyph-name="uni041F_uni0418" d="M221 0h-144v700h586v-457l340 457h125v-700h-144v460l-343 -460h-121v573h-299v-573z" horiz-adv-x="1206"/>
<glyph glyph-name="uni041D_uni0418" d="M221 0h-144v700h144v-263h316v263h143v-457l340 457h125v-700h-144v460l-343 -460h-121v308h-316v-308z" horiz-adv-x="1223"/>
<glyph glyph-name="uni043D_uni0438" d="M210 0h-141v499h141v-185h205v185h139v-294l226 294h132v-499h-139v291l-226 -291h-132v197h-205v-197z" horiz-adv-x="981"/>
<glyph glyph-name="uni0418_uni041D" d="M198 0h-121v700h144v-457l339 457h124v-263h317v263h144v-700h-144v308h-317v-308h-143v460z" horiz-adv-x="1223"/>
<glyph glyph-name="uni0438_uni043D" d="M201 0h-132v499h139v-294l226 294h132v-185h205v185h141v-499h-141v197h-205v-197h-139v294z" horiz-adv-x="981"/>
<glyph glyph-name="f_t" d="M466 155v226h-218v-381h-141v381h-89v118h89v47q0 76 44 121t125 45q73 0 127 -21v-114q-45 17 -86 17q-69 0 -69 -67v-28h218v137h141v-137h142v-118h-142v-198q0 -37 16 -53.5t52 -16.5q37 0 73 18v-117q-44 -27 -119 -27q-163 0 -163 168z" horiz-adv-x="791"/>
<glyph glyph-name="uni0438_uni0439" d="M494 725h105q1 -33 21 -53t53 -20q34 0 54 20t21 53h107q-1 -79 -52 -125q-50 -46 -129 -46t-129 46.5t-51 124.5zM201 0h-132v499h139v-294l226 294h132v-294l226 294h131v-499h-138v294l-229 -294h-129v294z" horiz-adv-x="992"/>
<glyph glyph-name="gdotaccent.alt" d="M271 569q-30 0 -52 21.5t-22 52.5q0 30 22 51.5t52 21.5q31 0 52 -21t21 -52t-21 -52.5t-52 -21.5zM371 304q0 41 -28.5 68.5t-72.5 27.5t-73 -27.5t-29 -68.5q0 -42 29 -69t73 -27t72.5 27t28.5 69zM424 461l139 51v-112l-75 -30q14 -33 14 -66q0 -63 -34 -113 q69 -65 69 -161q0 -100 -75 -168q-76 -68 -191 -68q-110 0 -188 66q-77 66 -77 182h143q0 -59 33.5 -92.5t88.5 -33.5q54 0 89 33t35 81q0 52 -37 83q-42 -17 -88 -17q-104 0 -168 60q-65 60 -65 148t65 148q64 60 168 60q90 0 154 -51z" horiz-adv-x="592"/>
<glyph glyph-name="H_B" d="M681 580v-154h162q45 0 70.5 20t25.5 56q0 37 -25.5 57.5t-70.5 20.5h-162zM681 307v-183h181q54 0 84 23.5t30 67.5t-30 68t-84 24h-181zM221 0h-144v700h144v-262h316v262h329q97 0 154.5 -46t57.5 -129q0 -51 -25 -87t-63 -52q57 -12 100 -62q42 -49 42 -125 q0 -89 -66 -144q-65 -55 -177 -55h-352v307h-316v-307z" horiz-adv-x="1176"/>
<glyph glyph-name="H_D" d="M681 571v-442h106q117 0 182.5 58.5t65.5 162.5t-65.5 162.5t-182.5 58.5h-106zM799 0h-262v307h-316v-307h-144v700h144v-262h316v262h262q170 0 277 -98t107 -252q0 -155 -107 -253q-106 -97 -277 -97z" horiz-adv-x="1236"/>
<glyph glyph-name="H_E" d="M221 0h-144v700h144v-262h316v262h514v-129h-370v-135h298v-127h-298v-180h381v-129h-525v307h-316v-307z" horiz-adv-x="1100"/>
<glyph glyph-name="H_F" d="M221 0h-144v700h144v-262h316v262h513v-129h-369v-142h285v-127h-285v-302h-144v307h-316v-307z" horiz-adv-x="1088"/>
<glyph glyph-name="H_K" d="M681 0h-144v307h-316v-307h-144v700h144v-262h316v262h144v-276l258 276h176l-297 -321l348 -379h-184l-301 323v-323z" horiz-adv-x="1166"/>
<glyph glyph-name="H_M" d="M221 0h-144v700h144v-262h316v262h143l203 -290l203 290h142v-700h-142v479l-161 -225h-80l-164 225v-479h-144v307h-316v-307z" horiz-adv-x="1306"/>
<glyph glyph-name="H_N" d="M221 0h-144v700h144v-262h316v262h125l353 -448v448h140v-700h-119l-356 450v-450h-143v307h-316v-307z" horiz-adv-x="1233"/>
<glyph glyph-name="H_U" d="M221 0h-144v700h144v-262h316v262h143v-411q0 -81 42.5 -124.5t113.5 -43.5q72 0 114.5 43.5t42.5 124.5v411h144v-406q0 -146 -85 -227q-84 -81 -216 -81q-131 0 -215 81t-84 227v13h-316v-307z" horiz-adv-x="1204"/>
<glyph glyph-name="H_P" d="M681 574v-174h152q52 0 81 22.5t29 64.5t-29 64.5t-81 22.5h-152zM221 0h-144v700h144v-262h316v262h306q113 0 178 -59q66 -58 66 -152q0 -95 -66 -153q-65 -59 -178 -59h-162v-277h-144v307h-316v-307z" horiz-adv-x="1119"/>
<glyph glyph-name="H_R" d="M681 574v-170h172q49 0 76.5 22t27.5 63q0 40 -27.5 62.5t-76.5 22.5h-172zM681 0h-144v307h-316v-307h-144v700h144v-262h316v262h324q112 0 176 -58q65 -57 65 -149q0 -70 -38.5 -121.5t-106.5 -72.5l216 -299h-167l-204 283h-121v-283z" horiz-adv-x="1190"/>
<glyph glyph-name="N_D" d="M697 571v-442h106q117 0 182.5 58.5t65.5 162.5t-65.5 162.5t-182.5 58.5h-106zM218 0h-141v700h123l353 -448v448h262q170 0 277 -98t107 -252q0 -155 -107 -253q-106 -97 -277 -97h-241l-356 450v-450z" horiz-adv-x="1252"/>
<glyph glyph-name="N_B" d="M697 580v-154h162q45 0 70.5 20t25.5 56q0 37 -25.5 57.5t-70.5 20.5h-162zM697 307v-183h181q54 0 84 23.5t30 67.5t-30 68t-84 24h-181zM218 0h-141v700h123l353 -448v448h329q97 0 154.5 -46t57.5 -129q0 -51 -25 -87t-63 -52q57 -12 100 -62q42 -49 42 -125 q0 -89 -66 -144q-65 -55 -177 -55h-331l-356 450v-450z" horiz-adv-x="1192"/>
<glyph glyph-name="M_P" d="M770 574v-174h152q52 0 81 22.5t29 64.5t-29 64.5t-81 22.5h-152zM221 0h-144v700h143l203 -290l203 290h306q113 0 178 -59q66 -58 66 -152q0 -95 -66 -153q-65 -59 -178 -59h-162v-277h-144v479l-161 -225h-80l-164 225v-479z" horiz-adv-x="1208"/>
<glyph glyph-name="M_R" d="M770 574v-170h172q49 0 76.5 22t27.5 63q0 40 -27.5 62.5t-76.5 22.5h-172zM221 0h-144v700h143l203 -290l203 290h324q112 0 176 -58q65 -57 65 -149q0 -70 -38.5 -121.5t-106.5 -72.5l216 -299h-167l-204 283h-121v-283h-144v479l-161 -225h-80l-164 225v-479z" horiz-adv-x="1279"/>
<glyph glyph-name="M_H" d="M221 0h-144v700h143l203 -290l203 290h144v-262h316v262h143v-700h-143v307h-316v-307h-144v479l-161 -225h-80l-164 225v-479z" horiz-adv-x="1307"/>
<glyph glyph-name="M_U" d="M925 -14q-131 0 -215 81t-84 227v185l-161 -225h-80l-164 225v-479h-144v700h143l203 -290l203 290h143v-411q0 -81 42.5 -124.5t113.5 -43.5q72 0 114.5 43.5t42.5 124.5v411h144v-406q0 -146 -85 -227q-84 -81 -216 -81z" horiz-adv-x="1293"/>
<glyph glyph-name="N_P" d="M697 574v-174h152q52 0 81 22.5t29 64.5t-29 64.5t-81 22.5h-152zM218 0h-141v700h123l353 -448v448h306q113 0 178 -59q66 -58 66 -152q0 -95 -66 -153q-65 -59 -178 -59h-162v-277h-123l-356 450v-450z" horiz-adv-x="1135"/>
<glyph glyph-name="t_t" d="M116 155v226h-98v118h98v137h141v-137h219v137h141v-137h142v-118h-142v-198q0 -37 16 -53.5t52 -16.5q37 0 73 18v-117q-44 -27 -119 -27q-163 0 -163 168v226h-219v-198q0 -37 16 -53.5t52 -16.5q37 0 73 18v-117q-44 -27 -119 -27q-163 0 -163 168z" horiz-adv-x="801"/>
<glyph glyph-name="gbreve.alt" d="M271 561q-70 0 -116.5 44.5t-49.5 117.5h96q2 -33 21 -53t49 -20t48.5 20t20.5 53h95q-2 -74 -49 -118t-115 -44zM371 304q0 41 -28.5 68.5t-72.5 27.5t-73 -27.5t-29 -68.5q0 -42 29 -69t73 -27t72.5 27t28.5 69zM424 461l139 51v-112l-75 -30q14 -33 14 -66 q0 -63 -34 -113q69 -65 69 -161q0 -100 -75 -168q-76 -68 -191 -68q-110 0 -188 66q-77 66 -77 182h143q0 -59 33.5 -92.5t88.5 -33.5q54 0 89 33t35 81q0 52 -37 83q-42 -17 -88 -17q-104 0 -168 60q-65 60 -65 148t65 148q64 60 168 60q90 0 154 -51z" horiz-adv-x="592"/>
<glyph glyph-name="g.alt" d="M371 304q0 41 -28.5 68.5t-72.5 27.5t-73 -27.5t-29 -68.5q0 -42 29 -69t73 -27t72.5 27t28.5 69zM424 461l139 51v-112l-75 -30q14 -33 14 -66q0 -63 -34 -113q69 -65 69 -161q0 -100 -75 -168q-76 -68 -191 -68q-110 0 -188 66q-77 66 -77 182h143q0 -59 33.5 -92.5 t88.5 -33.5q54 0 89 33t35 81q0 52 -37 83q-42 -17 -88 -17q-104 0 -168 60q-65 60 -65 148t65 148q64 60 168 60q90 0 154 -51z" horiz-adv-x="592"/>
<glyph glyph-name="U_R" d="M668 574v-170h172q49 0 76.5 22t27.5 63q0 40 -27.5 62.5t-76.5 22.5h-172zM367 -14q-131 0 -215 81t-84 227v406h143v-411q0 -81 42.5 -124.5t113.5 -43.5q72 0 114.5 43.5t42.5 124.5v411h324q112 0 176 -58q65 -57 65 -149q0 -70 -38.5 -121.5t-106.5 -72.5l216 -299 h-167l-204 283h-121q-4 -142 -88 -220q-85 -77 -213 -77z" horiz-adv-x="1177"/>
<glyph glyph-name="U_F" d="M367 -14q-131 0 -215 81t-84 227v406h143v-411q0 -81 42.5 -124.5t113.5 -43.5q72 0 114.5 43.5t42.5 124.5v411h513v-129h-369v-142h285v-127h-285v-8q0 -146 -85 -227q-84 -81 -216 -81z" horiz-adv-x="1075"/>
<glyph glyph-name="U_H" d="M367 -14q-131 0 -215 81t-84 227v406h143v-411q0 -81 42.5 -124.5t113.5 -43.5q72 0 114.5 43.5t42.5 124.5v411h144v-262h316v262h143v-700h-143v307h-316v-13q0 -146 -85 -227q-84 -81 -216 -81z" horiz-adv-x="1205"/>
<glyph glyph-name="U_K" d="M367 -14q-131 0 -215 81t-84 227v406h143v-411q0 -81 42.5 -124.5t113.5 -43.5q72 0 114.5 43.5t42.5 124.5v411h144v-276l258 276h176l-297 -321l348 -379h-184l-301 323v-29q0 -146 -85 -227q-84 -81 -216 -81z" horiz-adv-x="1153"/>
<glyph glyph-name="U_M" d="M367 -14q-131 0 -215 81t-84 227v406h143v-411q0 -81 42.5 -124.5t113.5 -43.5q72 0 114.5 43.5t42.5 124.5v411h143l203 -290l203 290h142v-700h-142v479l-161 -225h-80l-164 225v-185q0 -146 -85 -227q-84 -81 -216 -81z" horiz-adv-x="1293"/>
<glyph glyph-name="M_B" d="M770 580v-154h162q45 0 70.5 20t25.5 56q0 37 -25.5 57.5t-70.5 20.5h-162zM770 307v-183h181q54 0 84 23.5t30 67.5t-30 68t-84 24h-181zM221 0h-144v700h143l203 -290l203 290h329q97 0 154.5 -46t57.5 -129q0 -51 -25 -87t-63 -52q57 -12 100 -62q42 -49 42 -125 q0 -89 -66 -144q-65 -55 -177 -55h-352v479l-161 -225h-80l-164 225v-479z" horiz-adv-x="1265"/>
<glyph glyph-name="U_N" d="M367 -14q-131 0 -215 81t-84 227v406h143v-411q0 -81 42.5 -124.5t113.5 -43.5q72 0 114.5 43.5t42.5 124.5v411h126l353 -448v448h140v-700h-119l-356 450v-156q0 -146 -85 -227q-84 -81 -216 -81z" horiz-adv-x="1221"/>
<glyph glyph-name="M_E" d="M221 0h-144v700h143l203 -290l203 290h514v-129h-370v-135h298v-127h-298v-180h381v-129h-525v479l-161 -225h-80l-164 225v-479z" horiz-adv-x="1189"/>
<glyph glyph-name="endash.cap" d="M675 324h-579v127h579v-127z" horiz-adv-x="771"/>
<glyph glyph-name="emdash.cap" d="M821 324h-725v127h725v-127z" horiz-adv-x="917"/>
<glyph glyph-name="hyphen.cap" d="M405 324h-309v127h309v-127z" horiz-adv-x="501"/>
<glyph glyph-name="bracketleft.cap" d="M393 -106h-314v912h314v-111h-186v-690h186v-111z" horiz-adv-x="429"/>
<glyph glyph-name="bracketright.cap" d="M36 806h314v-912h-314v111h186v690h-186v111z" horiz-adv-x="429"/>
<glyph glyph-name="braceleft.cap" d="M373 -106h-80q-77 0 -122 45t-45 122v111q0 61 -16 89t-61 33v112q46 5 61.5 31t15.5 86v116q0 77 45 122t122 45h80v-111h-50q-32 0 -50.5 -19.5t-18.5 -51.5v-142q0 -108 -80 -132q80 -24 80 -132v-142q0 -32 18.5 -51.5t50.5 -19.5h50v-111z" horiz-adv-x="409"/>
<glyph glyph-name="braceright.cap" d="M116 -106h-80v111h50q32 0 50.5 19.5t18.5 51.5v142q0 108 80 132q-80 24 -80 132v142q0 32 -18.5 51.5t-50.5 19.5h-50v111h80q77 0 122 -45t45 -122v-116q0 -60 15.5 -86t61.5 -31v-112q-45 -5 -61 -33t-16 -89v-111q0 -77 -45 -122t-122 -45z" horiz-adv-x="409"/>
<glyph glyph-name="guillemotright.cap" d="M420 135h-141l161 215l-161 214h141l137 -179v-71zM172 135h-141l161 215l-161 214h141l137 -179v-71z" horiz-adv-x="589"/>
<glyph glyph-name="guillemotleft.cap" d="M559 135h-142l-137 179v71l137 179h142l-162 -214zM310 135h-141l-137 179v71l137 179h141l-161 -214z" horiz-adv-x="590"/>
<glyph glyph-name="guilsinglright.cap" d="M172 135h-141l161 215l-161 214h141l137 -179v-71z" horiz-adv-x="341"/>
<glyph glyph-name="guilsinglleft.cap" d="M310 135h-141l-137 179v71l137 179h141l-161 -214z" horiz-adv-x="341"/>
<glyph glyph-name="parenleft.cap" d="M359 -106h-144q-144 182 -144 456q0 272 144 456h144q-159 -204 -159 -456t159 -456z" horiz-adv-x="388"/>
<glyph glyph-name="parenright.cap" d="M173 -106h-144q159 204 159 456t-159 456h144q144 -184 144 -456q0 -274 -144 -456z" horiz-adv-x="388"/>
<glyph glyph-name="exclamdown.cap" d="M253 0h-172l31 467h109zM253 624q0 -37 -25 -62t-61 -25t-61.5 25t-25.5 62q0 36 25.5 61.5t61.5 25.5t61 -25.5t25 -61.5z" horiz-adv-x="333"/>
<glyph glyph-name="questiondown.cap" d="M260 704q37 0 62 -25.5t25 -62.5q0 -36 -25 -61t-62 -25q-36 0 -61.5 25t-25.5 61q0 37 25.5 62.5t61.5 25.5zM196 460h134v-148q-67 -14 -118 -47q-52 -34 -52 -77q0 -39 31.5 -59.5t83.5 -20.5q85 0 179 56v-126q-86 -59 -202 -59q-97 0 -168 53q-69 54 -69 147 q0 73 54 125q56 54 127 76v80z" horiz-adv-x="491"/>
<glyph glyph-name="U_T" d="M367 -14q-131 0 -215 81t-84 227v406h143v-411q0 -81 42.5 -124.5t113.5 -43.5q72 0 114.5 43.5t42.5 124.5v282h-221v129h587v-129h-222v-277q0 -146 -85 -227q-84 -81 -216 -81z" horiz-adv-x="920"/>
<glyph glyph-name="T_U" d="M553 -14q-131 0 -217 81q-84 81 -84 227v277h-222v129h587v-129h-221v-282q0 -81 42.5 -124.5t114.5 -43.5q71 0 113.5 43.5t42.5 124.5v411h143v-406q0 -146 -84 -227t-215 -81z" horiz-adv-x="919"/>
<glyph glyph-name="N_T" d="M218 0h-141v700h123l353 -448v448h727v-129h-222v-571h-144v571h-221v-571h-119l-356 450v-450z" horiz-adv-x="1310"/>
<glyph glyph-name="T_H" d="M761 0h-144v571h-222v-571h-144v571h-221v129h731v-262h316v262h143v-700h-143v307h-316v-307z" horiz-adv-x="1298"/>
<glyph glyph-name="H_T" d="M902 571h-222v-571h-144v307h-316v-307h-143v700h143v-262h316v262h731v-129h-221v-571h-144v571z" horiz-adv-x="1297"/>
<glyph glyph-name="A_V" d="M384 524l-103 -243h205zM167 0h-151l300 704h138l217 -508l205 504h156l-292 -700h-139l-69 162h-296z" horiz-adv-x="1050"/>
<glyph glyph-name="D_C" d="M221 571v-442h106q117 0 182.5 58.5t65.5 162.5t-65.5 162.5t-182.5 58.5h-106zM955 -14q-96 0 -176 37.5t-132 106.5q-108 -130 -308 -130h-262v700h262q199 0 307 -130q52 69 132.5 106.5t176.5 37.5q102 0 185 -44v-145q-81 54 -184 54q-99 0 -167 -65 q-66 -64 -66 -164t68 -165q67 -64 171 -64q115 0 192 61v-145q-86 -51 -199 -51z" horiz-adv-x="1200"/>
<glyph glyph-name="D_O" d="M221 571v-442h106q117 0 182.5 58.5t65.5 162.5t-65.5 162.5t-182.5 58.5h-106zM784 186q62 -65 155 -65q92 0 154 65t62 164t-62 164t-154 65q-93 0 -155 -65q-61 -64 -61 -164t61 -164zM939 -14q-90 0 -166.5 38t-125.5 106q-108 -130 -308 -130h-262v700h262 q200 0 308 -130q49 68 125.5 106t166.5 38q156 0 259 -106q104 -106 104 -258q0 -151 -104 -258q-103 -106 -259 -106z" horiz-adv-x="1355"/>
<glyph glyph-name="D_Q" d="M221 571v-442h106q117 0 182.5 58.5t65.5 162.5t-65.5 162.5t-182.5 58.5h-106zM784 186q62 -65 155 -65q92 0 154 65t62 164t-62 164t-154 65q-93 0 -155 -65q-61 -64 -61 -164t61 -164zM977 -64l-56 52q-174 7 -274 142q-108 -130 -308 -130h-262v700h262 q200 0 308 -130q49 68 125.5 106t166.5 38q156 0 259 -106q104 -106 104 -258q0 -112 -60 -204q-59 -91 -159 -131l10 -11q16 -16 43.5 -28t53.5 -12q46 0 83 21v-121q-51 -23 -106 -23q-49 0 -93 23t-97 72z" horiz-adv-x="1355"/>
<glyph glyph-name="D_G" d="M221 571v-442h106q117 0 182.5 58.5t65.5 162.5t-65.5 162.5t-182.5 58.5h-106zM949 -14q-93 0 -172 37.5t-130 106.5q-108 -130 -308 -130h-262v700h262q199 0 307 -130q51 69 131.5 106.5t176.5 37.5q121 0 210 -53v-142q-98 60 -200 60q-107 0 -174 -64 q-67 -63 -67 -168q0 -104 65 -166t161 -62q92 0 141 46v241h144v-309q-45 -48 -120 -79q-78 -32 -165 -32z" horiz-adv-x="1290"/>
<glyph glyph-name="H_Y" d="M221 0h-144v700h144v-262h279l-184 262h170l174 -249l175 249h165l-270 -383v-317h-143v307h-366v-307z" horiz-adv-x="1006"/>
<glyph glyph-name="L_A" d="M793 524l-103 -243h205zM576 0h-499v700h144v-571h259l245 575h138l300 -704h-153l-69 162h-296z" horiz-adv-x="1179"/>
<glyph glyph-name="M_D" d="M770 571v-442h106q117 0 182.5 58.5t65.5 162.5t-65.5 162.5t-182.5 58.5h-106zM888 0h-262v479l-161 -225h-80l-164 225v-479h-144v700h143l203 -290l203 290h262q170 0 277 -98t107 -252q0 -155 -107 -253q-106 -97 -277 -97z" horiz-adv-x="1325"/>
<glyph glyph-name="M_F" d="M770 0h-144v479l-161 -225h-80l-164 225v-479h-144v700h143l203 -290l203 290h513v-129h-369v-142h285v-127h-285v-302z" horiz-adv-x="1177"/>
<glyph glyph-name="M_N" d="M768 0h-142v479l-161 -225h-80l-164 225v-479h-144v700h143l203 -290l203 290h124l353 -448v448h140v-700h-119l-356 450v-450z" horiz-adv-x="1321"/>
<glyph glyph-name="N_E" d="M1079 0h-505l-356 450v-450h-141v700h123l353 -448v448h515v-129h-370v-135h298v-127h-298v-180h381v-129z" horiz-adv-x="1117"/>
<glyph glyph-name="N_F" d="M218 0h-141v700h123l353 -448v448h513v-129h-369v-142h285v-127h-285v-302h-123l-356 450v-450z" horiz-adv-x="1104"/>
<glyph glyph-name="N_M" d="M218 0h-141v700h123l353 -448v448h143l203 -290l203 290h142v-700h-142v479l-161 -225h-80l-164 225v-479h-123l-356 450v-450z" horiz-adv-x="1322"/>
<glyph glyph-name="O_Q" d="M261 186q62 -65 155 -65q92 0 154 65t62 164t-62 164t-154 65q-93 0 -155 -65q-61 -64 -61 -164t61 -164zM840 186q62 -65 155 -65q92 0 154 65t62 164t-62 164t-154 65q-93 0 -155 -65q-61 -64 -61 -164t61 -164zM1033 -64l-56 52q-173 8 -272 138q-49 -66 -124.5 -103 t-164.5 -37q-157 0 -260 106t-103 258q0 154 103 258q103 106 260 106q89 0 164.5 -37t124.5 -104q51 67 126 104t164 37q156 0 259 -106q104 -106 104 -258q0 -112 -60 -204q-59 -91 -159 -131l10 -11q16 -16 43.5 -28t53.5 -12q46 0 83 21v-121q-51 -23 -106 -23 q-49 0 -93 23t-97 72z" horiz-adv-x="1411"/>
<glyph glyph-name="O_G" d="M261 186q62 -65 155 -65q92 0 154 65t62 164t-62 164t-154 65q-93 0 -155 -65q-61 -64 -61 -164t61 -164zM1005 -14q-92 0 -170 37t-130 103q-49 -66 -124.5 -103t-164.5 -37q-157 0 -260 106t-103 258q0 154 103 258q103 106 260 106q89 0 164.5 -37t124.5 -103 q51 67 130.5 103.5t174.5 36.5q121 0 210 -53v-142q-97 60 -200 60q-107 0 -174 -64q-67 -63 -67 -168q0 -104 65 -166t161 -62q92 0 141 46v241h144v-309q-45 -48 -120 -79q-78 -32 -165 -32z" horiz-adv-x="1346"/>
<glyph glyph-name="T_Z" d="M1175 0h-575v102l364 469h-569v-571h-144v571h-221v129h1129v-101l-363 -470h379v-129z" horiz-adv-x="1208"/>
<glyph glyph-name="V_A" d="M667 524l-103 -243h205zM450 0h-140l-292 700h159l205 -507l217 511h138l300 -704h-153l-69 162h-296z" horiz-adv-x="1053"/>
<glyph glyph-name="Y_H" d="M420 0h-144l1 3v311l-271 386h170l174 -249l175 249h165l-185 -262h281v262h143v-700h-143v307h-366v-307z" horiz-adv-x="1007"/>
<glyph glyph-name="H_L" d="M1036 0h-499v307h-316v-307h-144v700h144v-262h316v262h144v-571h355v-129z" horiz-adv-x="1063"/>
<glyph glyph-name="N_K" d="M697 0h-123l-356 450v-450h-141v700h123l353 -448v448h144v-276l258 276h176l-297 -321l348 -379h-184l-301 323v-323z" horiz-adv-x="1182"/>
<glyph glyph-name="N_L" d="M218 0h-141v700h123l353 -448v448h144v-571h355v-129h-478l-356 450v-450z" horiz-adv-x="1079"/>
<glyph glyph-name="M_L" d="M221 0h-144v700h143l203 -290l203 290h144v-571h355v-129h-499v479l-161 -225h-80l-164 225v-479z" horiz-adv-x="1152"/>
<glyph glyph-name="A_v" d="M384 524l-103 -243h205zM167 0h-151l300 704h138l224 -526l130 321h147l-215 -499h-139l-69 162h-296z" horiz-adv-x="969"/>
<glyph glyph-name="A_y" d="M384 524l-103 -243h205zM167 0h-151l300 704h138l225 -530l124 325h149l-231 -551q-66 -154 -199 -154q-62 0 -100 20v123q35 -20 76 -20q35 0 58.5 19.5t44.5 63.5l-69 162h-296z" horiz-adv-x="967"/>
<glyph glyph-name="H_k" d="M680 0h-143v307h-316v-307h-144v700h144v-262h316v262h143v-383l172 182h173l-217 -225l251 -274h-182l-197 215v-215z" horiz-adv-x="1069"/>
<glyph glyph-name="H_m" d="M680 0h-143v307h-316v-307h-144v700h144v-262h316v262h143v-262q56 74 152 74q54 0 96.5 -24t58.5 -61q25 38 72 61.5t100 23.5q82 0 130 -52t48 -148v-312h-141v280q0 103 -83 103q-32 0 -61 -19t-43 -49v-315h-141v280q0 103 -83 103q-30 0 -60 -19t-45 -47v-317z" horiz-adv-x="1396"/>
<glyph glyph-name="H_u" d="M221 0h-144v700h144v-262h316v262h143v-478q0 -54 26.5 -80t68.5 -26q32 0 63.5 18.5t49.5 46.5v318h141v-499h-141v60q-67 -73 -167 -73q-87 0 -135.5 55t-48.5 151v114h-316v-307z" horiz-adv-x="1098"/>
<glyph glyph-name="J_h" d="M196 -14q-109 0 -168 41v142q60 -48 138 -48q68 0 100.5 31.5t32.5 101.5v446h143v-262q68 74 167 74q86 0 134 -54.5t48 -151.5v-306h-141v277q0 54 -26.5 80t-68.5 26q-32 0 -63.5 -18.5t-49.5 -46.5v-88q0 -67 -19.5 -116t-54.5 -76t-77.5 -39.5t-94.5 -12.5z" horiz-adv-x="850"/>
<glyph glyph-name="J_k" d="M196 -14q-109 0 -168 41v142q60 -48 138 -48q68 0 100.5 31.5t32.5 101.5v446h143v-383l172 182h173l-217 -225l251 -274h-182l-197 215q-4 -121 -72 -175t-174 -54z" horiz-adv-x="831"/>
<glyph glyph-name="J_m" d="M196 -14q-109 0 -168 41v142q60 -48 138 -48q68 0 100.5 31.5t32.5 101.5v446h143v-262q56 74 152 74q54 0 96.5 -24t58.5 -61q25 38 72 61.5t100 23.5q82 0 130 -52t48 -148v-312h-141v280q0 103 -83 103q-32 0 -61 -19t-43 -49v-315h-141v280q0 103 -83 103 q-30 0 -60 -19t-45 -47v-87q0 -67 -19.5 -116t-54.5 -76t-77.5 -39.5t-94.5 -12.5z" horiz-adv-x="1158"/>
<glyph glyph-name="L_i" d="M562 631q0 36 24.5 60.5t59.5 24.5t59.5 -24.5t24.5 -60.5q0 -35 -24.5 -59.5t-59.5 -24.5t-59.5 24.5t-24.5 59.5zM717 0h-640v700h144v-571h355v370h141v-499z" horiz-adv-x="793"/>
<glyph glyph-name="M_b" d="M892 110q60 0 97 40q38 41 38 100q0 58 -38 99q-37 40 -97 40q-40 0 -73 -20.5t-51 -53.5v-130q18 -33 51 -54t73 -21zM932 -13q-108 0 -164 74v-61h-142v479l-161 -225h-80l-164 225v-479h-144v700h143l203 -290l203 290h142v-262q59 74 164 74q102 0 168 -76 q67 -74 67 -186t-67 -188q-66 -75 -168 -75z" horiz-adv-x="1202"/>
<glyph glyph-name="M_n" d="M221 0h-144v700h143l203 -290l203 290h142v-261q67 73 167 73q86 0 134 -54.5t48 -151.5v-306h-141v277q0 54 -26.5 80t-68.5 26q-32 0 -63.5 -18.5t-49.5 -46.5v-318h-142v479l-161 -225h-80l-164 225v-479z" horiz-adv-x="1176"/>
<glyph glyph-name="M_k" d="M768 0h-142v479l-161 -225h-80l-164 225v-479h-144v700h143l203 -290l203 290h142v-383l172 182h173l-217 -225l251 -274h-182l-197 215v-215z" horiz-adv-x="1157"/>
<glyph glyph-name="M_m" d="M768 0h-142v479l-161 -225h-80l-164 225v-479h-144v700h143l203 -290l203 290h142v-262q56 74 152 74q54 0 96.5 -24t58.5 -61q25 38 72 61.5t100 23.5q82 0 130 -52t48 -148v-312h-141v280q0 103 -83 103q-32 0 -61 -19t-43 -49v-315h-141v280q0 103 -83 103 q-30 0 -60 -19t-45 -47v-317z" horiz-adv-x="1484"/>
<glyph glyph-name="M_u" d="M221 0h-144v700h143l203 -290l203 290h142v-478q0 -54 26.5 -80t68.5 -26q32 0 63.5 18.5t49.5 46.5v318h141v-499h-141v60q-67 -73 -167 -73q-86 0 -134 54.5t-48 151.5v286l-162 -225h-80l-164 225v-479z" horiz-adv-x="1186"/>
<glyph glyph-name="N_h" d="M694 318v-318h-120l-356 450v-450h-141v700h123l353 -448v448h141v-262q68 74 167 74q86 0 134 -54.5t48 -151.5v-306h-141v277q0 54 -26.5 80t-68.5 26q-32 0 -63.5 -18.5t-49.5 -46.5z" horiz-adv-x="1102"/>
<glyph glyph-name="N_k" d="M694 0h-120l-356 450v-450h-141v700h123l353 -448v448h141v-383l172 182h173l-217 -225l251 -274h-182l-197 215v-215z" horiz-adv-x="1083"/>
<glyph glyph-name="N_m" d="M218 0h-141v700h123l353 -448v448h140v-262q56 74 152 74q54 0 96.5 -24t58.5 -61q25 38 72 61.5t100 23.5q82 0 130 -52t48 -148v-312h-141v280q0 103 -83 103q-32 0 -61 -19t-43 -49v-315h-141v280q0 103 -83 103q-30 0 -60 -19t-45 -47v-317h-119l-356 450v-450z" horiz-adv-x="1409"/>
<glyph glyph-name="T_b" d="M882 110q60 0 97 40q38 41 38 100q0 58 -38 99q-37 40 -97 40q-40 0 -73 -20.5t-51 -53.5v-130q18 -33 51 -54t73 -21zM922 -13q-108 0 -164 74v-61h-141v571h-222v-571h-144v571h-221v129h728v-262q59 74 164 74q102 0 168 -76q67 -74 67 -186t-67 -188 q-66 -75 -168 -75z" horiz-adv-x="1192"/>
<glyph glyph-name="T_k" d="M758 0h-141v571h-222v-571h-144v571h-221v129h728v-383l172 182h173l-217 -225l251 -274h-182l-197 215v-215z" horiz-adv-x="1147"/>
<glyph glyph-name="T_m" d="M395 0h-144v571h-221v129h587v-129h-222v-133q56 74 152 74q54 0 96.5 -24t58.5 -61q25 38 72 61.5t100 23.5q82 0 130 -52t48 -148v-312h-141v280q0 103 -83 103q-32 0 -61 -19t-43 -49v-315h-141v280q0 103 -83 103q-30 0 -60 -19t-45 -47v-317z" horiz-adv-x="1111"/>
<glyph glyph-name="U_h" d="M367 -14q-131 0 -215 81t-84 227v406h143v-411q0 -81 42.5 -124.5t113.5 -43.5q72 0 114.5 43.5t42.5 124.5v411h144v-262q68 74 167 74q86 0 134 -54.5t48 -151.5v-306h-141v277q0 54 -26.5 80t-68.5 26q-32 0 -63.5 -18.5t-49.5 -46.5v-24q0 -146 -85 -227 q-84 -81 -216 -81z" horiz-adv-x="1076"/>
<glyph glyph-name="U_k" d="M367 -14q-131 0 -215 81t-84 227v406h143v-411q0 -81 42.5 -124.5t113.5 -43.5q72 0 114.5 43.5t42.5 124.5v411h144v-383l172 182h173l-217 -225l251 -274h-182l-203 222q-20 -113 -101 -175q-79 -61 -194 -61z" horiz-adv-x="1057"/>
<glyph glyph-name="U_m" d="M367 -14q-131 0 -215 81t-84 227v406h143v-411q0 -81 42.5 -124.5t113.5 -43.5q72 0 114.5 43.5t42.5 124.5v411h144v-262q56 74 152 74q54 0 96.5 -24t58.5 -61q25 38 72 61.5t100 23.5q82 0 130 -52t48 -148v-312h-141v280q0 103 -83 103q-32 0 -61 -19t-43 -49v-315 h-141v280q0 103 -83 103q-30 0 -60 -19t-45 -47v-23q0 -146 -85 -227q-84 -81 -216 -81z" horiz-adv-x="1384"/>
<glyph glyph-name="a_i" d="M421 631q0 36 24.5 60.5t59.5 24.5t59.5 -24.5t24.5 -60.5q0 -35 -24.5 -59.5t-59.5 -24.5t-59.5 24.5t-24.5 59.5zM311 110q40 0 73 21t51 54v130q-18 33 -51 53.5t-73 20.5q-60 0 -97 -40q-38 -41 -38 -99q0 -59 38 -100q37 -40 97 -40zM271 -13q-101 0 -169 75 q-66 76 -66 188q0 111 66 186q67 76 169 76q105 0 164 -74v61h141v-499h-141v61q-56 -74 -164 -74z" horiz-adv-x="652"/>
<glyph glyph-name="a_m" d="M311 110q40 0 73 21t51 54v130q-18 33 -51 53.5t-73 20.5q-60 0 -97 -40q-38 -41 -38 -99q0 -59 38 -100q37 -40 97 -40zM271 -13q-101 0 -169 75q-66 76 -66 188q0 111 66 186q67 76 169 76q105 0 164 -74v61h141v-61q56 74 152 74q54 0 96.5 -24t58.5 -61 q25 38 72 61.5t100 23.5q82 0 130 -52t48 -148v-312h-141v280q0 103 -83 103q-32 0 -61 -19t-43 -49v-315h-141v280q0 103 -83 103q-30 0 -60 -19t-45 -47v-317h-141v61q-56 -74 -164 -74z" horiz-adv-x="1292"/>
<glyph glyph-name="a_n" d="M311 110q40 0 73 21t51 54v130q-18 33 -51 53.5t-73 20.5q-60 0 -97 -40q-38 -41 -38 -99q0 -59 38 -100q37 -40 97 -40zM576 318v-318h-141v61q-56 -74 -164 -74q-101 0 -169 75q-66 76 -66 188q0 111 66 186q67 76 169 76q105 0 164 -74v61h141v-60q67 73 167 73 q86 0 134 -54.5t48 -151.5v-306h-141v277q0 54 -26.5 80t-68.5 26q-32 0 -63.5 -18.5t-49.5 -46.5z" horiz-adv-x="984"/>
<glyph glyph-name="b_c" d="M334 110q60 0 97 40q38 41 38 100q0 58 -38 99q-37 40 -97 40q-40 0 -73 -20.5t-51 -53.5v-130q18 -33 51 -54t73 -21zM742 -13q-126 0 -198 92q-59 -92 -170 -92q-108 0 -164 74v-61h-141v700h141v-262q59 74 164 74q108 0 170 -92q71 92 200 92q82 0 148 -33v-120 q-64 30 -127 30q-66 0 -111 -39q-44 -38 -44 -100t45 -101t110 -39q76 0 135 34v-120q-70 -37 -158 -37z" horiz-adv-x="951"/>
<glyph glyph-name="b_d" d="M334 110q60 0 97 40q38 41 38 100q0 58 -38 99q-37 40 -97 40q-40 0 -73 -20.5t-51 -53.5v-130q18 -33 51 -54t73 -21zM745 110q40 0 73 21t51 54v130q-18 33 -51 53.5t-73 20.5q-60 0 -97 -40q-38 -41 -38 -99q0 -59 38 -100q37 -40 97 -40zM705 -13q-104 0 -166 92 q-60 -92 -165 -92q-108 0 -164 74v-61h-141v700h141v-262q59 74 164 74q103 0 165 -92q62 92 166 92q105 0 164 -74v262h141v-700h-141v61q-56 -74 -164 -74z" horiz-adv-x="1079"/>
<glyph glyph-name="b_g" d="M742 133q40 0 73 19t51 49v120q-18 30 -51 49t-73 19q-59 0 -95.5 -36.5t-36.5 -91.5t37.5 -91.5t94.5 -36.5zM334 110q60 0 97 40q38 41 38 100q0 58 -38 99q-37 40 -97 40q-40 0 -73 -20.5t-51 -53.5v-130q18 -33 51 -54t73 -21zM866 441v58h141v-441q0 -128 -86 -196 t-203 -68q-123 0 -196 43v127q80 -48 181 -48q31 0 58 6.5t52 21t39 42t14 65.5v31q-59 -71 -165 -71q-93 0 -156 79q-30 -48 -75 -75.5t-96 -27.5q-108 0 -164 74v-61h-141v700h141v-262q59 74 164 74q99 0 163 -91q63 91 164 91q106 0 165 -71z" horiz-adv-x="1071"/>
<glyph glyph-name="b_o" d="M334 110q60 0 97 40q38 41 38 100q0 58 -38 99q-37 40 -97 40q-40 0 -73 -20.5t-51 -53.5v-130q18 -33 51 -54t73 -21zM648 150q39 -40 99 -40t99 40q39 41 39 100q0 60 -39 99q-39 40 -99 40t-99 -40q-39 -39 -39 -99t39 -100zM747 -13q-133 0 -203 91q-60 -91 -170 -91 q-108 0 -164 74v-61h-141v700h141v-262q59 74 164 74q108 0 170 -92q71 92 203 92q122 0 199 -76q78 -76 78 -186q0 -112 -78 -188q-78 -75 -199 -75z" horiz-adv-x="1059"/>
<glyph glyph-name="b_q" d="M744 389q-60 0 -97 -40q-38 -41 -38 -100q0 -58 38 -99q37 -40 97 -40q40 0 73 20.5t51 53.5v130q-18 33 -51 54t-73 21zM334 110q60 0 97 40q38 41 38 100q0 58 -38 99q-37 40 -97 40q-40 0 -73 -20.5t-51 -53.5v-130q18 -33 51 -54t73 -21zM704 -13q-103 0 -165 92 q-60 -92 -165 -92q-108 0 -164 74v-61h-141v700h141v-262q59 74 164 74q103 0 165 -92q62 92 165 92q108 0 164 -74v61h141v-699h-141v261q-59 -74 -164 -74z" horiz-adv-x="1078"/>
</font>
</defs>
</svg>
